<svg width="112" height="118" viewBox="0 0 112 118" fill="none" xmlns="http://www.w3.org/2000/svg">
<g id="achivemenmts" clip-path="url(#clip0_1_88)">
<g id="Group 88">
<g id="Group 87">
<g id="Ellipse 115" filter="url(#filter0_b_1_88)">
<circle cx="24" cy="88" r="24" fill="#FFD5CC" fill-opacity="0.2"/>
</g>
</g>
<g id="Group 68">
<g id="Group">
<g id="Group_2">
<path id="Vector" d="M33.3456 101.995C32.3076 100.958 30.7553 98.8015 29.9512 96.9857L31.4506 96.3209C32.1682 97.9404 33.5939 99.9244 34.5054 100.835L33.3456 101.995Z" fill="#FF7F40"/>
</g>
<g id="Group_3">
<path id="Vector_2" d="M36.8395 98.4947C35.9008 97.556 33.8359 96.0926 32.2565 95.4094L32.9069 93.9036C34.7154 94.6862 36.9581 96.2937 37.9994 97.3349L36.8395 98.4947Z" fill="#F25A3C"/>
</g>
<path id="Vector_3" d="M14.4607 76.1207C14.9846 76.6453 16.0899 78.3433 16.5625 79.7074L18.1131 79.1707C17.5925 77.6682 16.367 75.709 15.6205 74.9609C14.3406 73.6794 12.2565 73.681 10.9798 74.9609C9.70145 76.24 9.65989 78.3209 10.9382 79.6008C11.6639 80.3249 13.5797 81.5151 15.1063 82.0638L15.6606 80.5196C14.3102 80.035 12.6058 78.9464 12.098 78.4403C11.4588 77.8011 11.5004 76.7598 12.1396 76.1207C12.7595 75.5023 13.8376 75.4991 14.4607 76.1207Z" fill="#FF7F40"/>
<path id="Vector_4" d="M14.4608 76.1203C14.9846 76.6449 16.09 78.3429 16.5625 79.707L18.1132 79.1704C17.5926 77.6678 16.3671 75.7086 15.6206 74.9606C14.3407 73.679 12.2566 73.6806 10.9799 74.9606L12.1396 76.1203C12.7596 75.502 13.8377 75.4988 14.4608 76.1203Z" fill="#F25A3C"/>
<path id="Vector_5" d="M36.3589 87.9427C36.3589 87.2811 36.093 86.6436 35.5676 86.0477C35.0293 85.4365 34.813 84.6268 34.9733 83.8291C35.1302 83.0521 35.0421 82.3665 34.7105 81.7898C34.379 81.2179 33.8295 80.799 33.0798 80.5459C32.3061 80.2848 31.7134 79.6929 31.4522 78.9208C31.1991 78.1678 30.7794 77.6184 30.2075 77.2892C29.6356 76.956 28.9516 76.8679 28.1715 77.0257C27.377 77.1811 26.5632 76.9697 25.9496 76.4306C24.7771 75.3957 23.3353 75.3966 22.1627 76.4298C21.5524 76.968 20.7514 77.1859 19.9408 77.0257C19.1591 76.8687 18.4767 76.9584 17.9048 77.2884C17.3329 77.6184 16.9132 78.1678 16.6601 78.9199C16.5222 79.3285 16.2868 79.6813 15.9856 79.9667C15.7171 80.2211 15.3972 80.4228 15.0326 80.5459C14.2829 80.799 13.7334 81.2179 13.4002 81.7922C13.0702 82.3665 12.9821 83.0521 13.1391 83.8266C13.2993 84.6268 13.083 85.4365 12.5448 86.0477C12.0194 86.6436 11.7534 87.2812 11.7534 87.9427C11.7534 88.6035 12.0193 89.2403 12.5448 89.8378C13.083 90.4489 13.2993 91.2587 13.1391 92.0564C12.9821 92.8334 13.0702 93.519 13.4002 94.0933C13.7302 94.666 14.2796 95.0849 15.0326 95.3396C15.8063 95.6007 16.399 96.1926 16.6601 96.9647C16.9132 97.7176 17.3329 98.2671 17.9048 98.5963C18.4783 98.9278 19.1607 99.0176 19.9408 98.8598C20.7418 98.6988 21.5492 98.9158 22.1611 99.4541C22.7474 99.9715 23.4025 100.245 24.0561 100.245C24.7097 100.245 25.3649 99.9715 25.9496 99.4549C26.5631 98.9159 27.3721 98.6996 28.1714 98.8598C28.9548 99.0183 29.6356 98.9287 30.2075 98.597C30.7793 98.2671 31.1991 97.7176 31.4522 96.9655C31.5752 96.6011 31.7772 96.2815 32.032 96.0131C32.3177 95.7125 32.6709 95.4775 33.0797 95.3396C33.8294 95.0865 34.3788 94.6676 34.7121 94.0933C35.042 93.519 35.1301 92.8334 34.9731 92.0588C34.8129 91.2587 35.0292 90.4489 35.5674 89.837C36.093 89.2403 36.3589 88.6035 36.3589 87.9427Z" fill="#5F5166"/>
<path id="Vector_6" d="M33.0798 95.3396C33.8295 95.0865 34.3789 94.6676 34.7122 94.0933C35.0421 93.519 35.1302 92.8334 34.9732 92.0589C34.813 91.2587 35.0293 90.449 35.5676 89.837C36.093 89.2403 36.3589 88.6035 36.3589 87.9427C36.3589 87.2811 36.093 86.6436 35.5676 86.0477C35.0293 85.4365 34.813 84.6268 34.9732 83.8291C35.1302 83.0521 35.0421 82.3665 34.7105 81.7898C34.3789 81.2179 33.8295 80.799 33.0798 80.5459C32.3061 80.2848 31.7134 79.6929 31.4522 78.9208C31.1991 78.1678 30.7794 77.6184 30.2075 77.2892C29.6356 76.956 28.9516 76.8679 28.1715 77.0257C27.377 77.1811 26.5632 76.9697 25.9496 76.4306C24.777 75.3957 23.3353 75.3966 22.1627 76.4298C21.5524 76.968 20.7514 77.1859 19.9408 77.0257C19.1591 76.8687 18.4767 76.9584 17.9048 77.2884C17.3329 77.6184 16.9132 78.1678 16.6601 78.9199C16.5222 79.3285 16.2868 79.6813 15.9856 79.9667L32.0321 96.0132C32.3178 95.7125 32.671 95.4776 33.0798 95.3396Z" fill="#45354D"/>
<path id="Vector_7" d="M24.0562 80.5607C21.9968 80.5607 20.1364 81.4122 18.7962 82.7768C17.4874 84.1094 16.6746 85.9312 16.6746 87.9423C16.6746 92.0127 19.9857 95.3239 24.0562 95.3239C26.0673 95.3239 27.889 94.5111 29.2217 93.2023C30.5863 91.8621 31.4378 90.0016 31.4378 87.9423C31.4378 83.8718 28.1267 80.5607 24.0562 80.5607Z" fill="#FF7F40"/>
<path id="Vector_8" d="M31.4377 87.9423C31.4377 83.8718 28.1266 80.5607 24.0561 80.5607C21.9968 80.5607 20.1363 81.4122 18.7961 82.7768L29.2216 93.2023C30.5862 91.8621 31.4377 90.0016 31.4377 87.9423Z" fill="#F25A3C"/>
<g id="Group_4">
<path id="Vector_9" d="M26.6466 86.5126L24.5889 88.5694L22.6257 90.5318L23.7855 91.6916L25.7487 89.7292L27.8063 87.6724L26.6466 86.5126Z" fill="#F25A3C"/>
<path id="Vector_10" d="M25.4867 85.3528L24.3269 84.193L22.2693 86.2498L20.3062 88.2122L21.4659 89.372L23.4291 87.4096L25.4867 85.3528Z" fill="#F25A3C"/>
</g>
<g id="Group_5">
<path id="Vector_11" d="M24.5857 88.5658L26.6426 86.5089L27.8023 87.6685L25.7453 89.7254L24.5857 88.5658Z" fill="#E63A3A"/>
<path id="Vector_12" d="M22.2666 86.2472L24.3235 84.1902L25.4832 85.3499L23.4262 87.4068L22.2666 86.2472Z" fill="#E63A3A"/>
</g>
</g>
</g>
</g>
<g id="Group 84">
<g id="Ellipse 116" filter="url(#filter1_b_1_88)">
<circle cx="88" cy="88" r="24" fill="#FFF1CC" fill-opacity="0.2"/>
</g>
<g id="Group 69">
<path id="Vector_13" d="M99.8891 88.89L99.7656 87.8375C99.1103 87.9444 94.6019 89.1318 88.3367 89.1318C82.0527 89.1318 77.573 87.9459 76.9087 87.8378L76.7849 88.8895C76.4121 92.0573 76.5446 95.1059 76.5421 95.4428C77.0574 95.5278 81.8047 96.7773 88.3369 96.7773C94.8891 96.7773 99.6006 95.5303 100.132 95.4428C100.129 94.9844 100.27 92.1391 99.8891 88.89Z" fill="#F57F41"/>
<path id="Vector_14" d="M99.8892 88.89L99.7657 87.8375C99.1104 87.9444 94.6026 89.1318 88.3381 89.1318L88.3384 96.7773C94.8895 96.7773 99.6007 95.5303 100.132 95.4425C100.129 94.9844 100.27 92.1391 99.8892 88.89Z" fill="#EA623C"/>
<path id="Vector_15" d="M99.9486 88.9509C99.604 86.0337 98.9248 83.5603 97.9849 81.7979C97.0228 79.9937 95.8023 79 94.548 79C93.2558 79 92.3072 79.7594 91.3901 80.4935C90.4737 81.2271 89.6082 81.9202 88.3892 81.9202C87.1701 81.9202 86.3047 81.2271 85.3883 80.4935C84.4711 79.7594 83.5225 79 82.2303 79C80.9761 79 79.7555 79.9937 78.7935 81.7979C77.8536 83.5603 77.1749 86.034 76.8306 88.9511L76.7267 89.83C77.296 89.9218 81.9602 91.1251 88.3892 91.1251C94.8449 91.1251 99.4651 89.9248 100.052 89.83L99.9486 88.9509Z" fill="#FFE07F"/>
<path id="Vector_16" d="M99.9482 88.9509C99.6021 86.0337 98.9199 83.5603 97.9759 81.7979C97.0096 79.9937 95.7837 79 94.524 79C93.2261 79 92.2734 79.7594 91.3522 80.4935C90.4318 81.2271 89.5625 81.9202 88.3381 81.9202V91.1251C94.8222 91.1251 99.4626 89.9248 100.052 89.83L99.9482 88.9509Z" fill="#FFD23A"/>
<path id="Vector_17" d="M88.3381 96.7768C82.7815 96.7768 77.2847 95.9066 72 94.19L72.5953 92.3583C77.6873 94.0122 82.9842 94.8508 88.3381 94.8508C93.6921 94.8508 98.989 94.0122 104.081 92.3583L104.676 94.19C99.3916 95.9066 93.8948 96.7768 88.3381 96.7768Z" fill="#FFE07F"/>
<path id="Vector_18" d="M104.081 92.3583C98.989 94.0122 93.6921 94.8508 88.3381 94.8508V96.7768C93.8948 96.7768 99.3916 95.9066 104.676 94.19L104.081 92.3583Z" fill="#FFD23A"/>
</g>
</g>
<g id="Group 85">
<g id="Ellipse 113" filter="url(#filter2_b_1_88)">
<circle cx="24" cy="24" r="24" fill="#E3FFFF" fill-opacity="0.2"/>
</g>
<g id="Group 73">
<g id="Group 71">
<g id="Group 70">
<path id="Vector_19" d="M25.8517 32.8273C25.8836 32.8325 25.9158 32.8369 25.9481 32.8411C25.9158 32.837 25.8837 32.8324 25.8517 32.8273Z" fill="black"/>
<path id="Vector_20" d="M25.6984 32.7985C25.7177 32.8026 25.737 32.8066 25.7565 32.8104C25.7371 32.8066 25.7177 32.8026 25.6984 32.7985Z" fill="black"/>
<path id="Vector_21" d="M26.012 32.8497C26.0652 32.8556 26.1189 32.8602 26.1729 32.8634C26.1191 32.8603 26.0654 32.8555 26.012 32.8497Z" fill="black"/>
<path id="Vector_22" d="M26.5478 32.8633C26.4253 32.8703 26.3021 32.8703 26.1796 32.8633C26.2405 32.8669 26.3018 32.8691 26.3637 32.8691C26.4255 32.8691 26.4868 32.8669 26.5478 32.8633Z" fill="black"/>
<path id="Vector_23" d="M26.7792 32.8411C26.8114 32.8369 26.8436 32.8325 26.8755 32.8273C26.8435 32.8324 26.8114 32.837 26.7792 32.8411Z" fill="black"/>
<path id="Vector_24" d="M27.0296 32.7985C27.0103 32.8026 26.991 32.8066 26.9716 32.8104C26.9909 32.8066 27.0103 32.8027 27.0296 32.7985Z" fill="black"/>
<path id="Vector_25" d="M26.5543 32.8634C26.6083 32.8602 26.662 32.8556 26.7152 32.8497C26.6618 32.8555 26.6081 32.8603 26.5543 32.8634Z" fill="black"/>
<rect id="Rectangle 78" x="14" y="11" width="20" height="20" rx="1" fill="#3CBCCC"/>
<rect id="Rectangle 79" x="14" y="21.9301" width="20" height="14.186" rx="1" fill="#3CBCCC"/>
<path id="Vector_26" d="M31.7259 12.3951H16.1266C15.723 12.3951 15.3954 12.7227 15.3954 13.1264V33.8442C15.3954 34.2478 15.723 34.5754 16.1266 34.5754H24.17V33.1129V31.9839C23.5699 31.4068 23.195 30.5971 23.195 29.7006C23.195 27.9535 24.6165 26.532 26.3636 26.532C28.1108 26.532 29.5322 27.9535 29.5322 29.7006C29.5322 30.5971 29.1574 31.4068 28.5573 31.9839V33.1129V34.5754H31.7259C32.1295 34.5754 32.4571 34.2478 32.4571 33.8442V13.1264C32.4571 12.7227 32.1295 12.3951 31.7259 12.3951V12.3951ZM19.0515 18.0011H28.801C29.2046 18.0011 29.5322 18.3287 29.5322 18.7323C29.5322 19.136 29.2046 19.4636 28.801 19.4636H19.0515C18.6478 19.4636 18.3203 19.136 18.3203 18.7323C18.3203 18.3287 18.6478 18.0011 19.0515 18.0011ZM18.3203 16.295C18.3203 15.8913 18.6478 15.5637 19.0515 15.5637H21.9763C22.38 15.5637 22.7075 15.8913 22.7075 16.295C22.7075 16.6986 22.38 17.0262 21.9763 17.0262H19.0515C18.6478 17.0262 18.3203 16.6986 18.3203 16.295ZM19.0515 21.901C18.6478 21.901 18.3203 21.5734 18.3203 21.1697C18.3203 20.7661 18.6478 20.4385 19.0515 20.4385H28.801C29.2046 20.4385 29.5322 20.7661 29.5322 21.1697C29.5322 21.5734 29.2046 21.901 28.801 21.901H19.0515ZM28.801 24.3383H25.8762C25.4725 24.3383 25.1449 24.0108 25.1449 23.6071C25.1449 23.2035 25.4725 22.8759 25.8762 22.8759H28.801C29.2046 22.8759 29.5322 23.2035 29.5322 23.6071C29.5322 24.0108 29.2046 24.3383 28.801 24.3383Z" fill="#E0F7FA"/>
<path id="Vector_27" d="M26.7152 32.8496C26.737 32.8473 26.7585 32.8441 26.7802 32.8414C26.7586 32.8442 26.737 32.8473 26.7152 32.8496Z" fill="black"/>
<path id="Vector_28" d="M26.8756 32.8273C26.9078 32.8221 26.9397 32.8162 26.9716 32.8101C26.9398 32.8163 26.9078 32.822 26.8756 32.8273Z" fill="black"/>
<path id="Vector_29" d="M26.1729 32.8628C26.175 32.8629 26.1772 32.8632 26.1794 32.8633C26.1772 32.8631 26.1751 32.8629 26.1729 32.8628Z" fill="black"/>
<path id="Vector_30" d="M25.7556 32.8101C25.7875 32.8162 25.8194 32.8221 25.8516 32.8273C25.8194 32.822 25.7874 32.8162 25.7556 32.8101Z" fill="black"/>
<path id="Vector_31" d="M26.5477 32.8633C26.5499 32.8632 26.5521 32.8629 26.5543 32.8628C26.5521 32.8629 26.5499 32.8631 26.5477 32.8633Z" fill="black"/>
<path id="Vector_32" d="M25.948 32.8414C25.9697 32.8442 25.9912 32.8473 26.013 32.8496C25.9912 32.8473 25.9696 32.8442 25.948 32.8414Z" fill="black"/>
<g id="Group_6">
<path id="Vector_33" d="M19.0514 17.0266H21.9763C22.3801 17.0266 22.7075 16.6993 22.7075 16.2954C22.7075 15.8916 22.3801 15.5642 21.9763 15.5642H19.0514C18.6476 15.5642 18.3202 15.8916 18.3202 16.2954C18.3202 16.6993 18.6476 17.0266 19.0514 17.0266Z" fill="#80DEEA"/>
<path id="Vector_34" d="M19.0514 19.4637H28.801C29.2048 19.4637 29.5322 19.1363 29.5322 18.7324C29.5322 18.3286 29.2048 18.0012 28.801 18.0012H19.0514C18.6476 18.0012 18.3202 18.3286 18.3202 18.7324C18.3202 19.1363 18.6476 19.4637 19.0514 19.4637Z" fill="#80DEEA"/>
<path id="Vector_35" d="M29.5322 21.1698C29.5322 20.7659 29.2048 20.4385 28.801 20.4385H19.0514C18.6476 20.4385 18.3202 20.7659 18.3202 21.1698C18.3202 21.5736 18.6476 21.901 19.0514 21.901H28.801C29.2048 21.901 29.5322 21.5736 29.5322 21.1698Z" fill="#80DEEA"/>
</g>
<path id="Vector_36" d="M24.17 34.5757V33.1133V31.9843C24.0838 31.9013 24.0028 31.813 23.9263 31.7209V34.5757H24.17Z" fill="#B2EBF2"/>
<path id="Vector_37" d="M31.7259 12.3951H23.9263V18.0011H28.801C29.2047 18.0011 29.5323 18.3287 29.5323 18.7323C29.5323 19.136 29.2047 19.4636 28.801 19.4636H23.9263V20.4385H28.801C29.2047 20.4385 29.5323 20.7661 29.5323 21.1697C29.5323 21.5734 29.2047 21.901 28.801 21.901H23.9263V27.6785C24.508 26.9785 25.3846 26.532 26.3637 26.532C28.1108 26.532 29.5323 27.9535 29.5323 29.7006C29.5323 30.5971 29.1574 31.4068 28.5573 31.9839V33.1129V34.5754H31.7259C32.1295 34.5754 32.4571 34.2478 32.4571 33.8442V13.1264C32.4571 12.7227 32.1295 12.3951 31.7259 12.3951V12.3951ZM28.801 24.3383H25.8762C25.4725 24.3383 25.145 24.0108 25.145 23.6071C25.145 23.2035 25.4725 22.8759 25.8762 22.8759H28.801C29.2047 22.8759 29.5323 23.2035 29.5323 23.6071C29.5323 24.0108 29.2047 24.3383 28.801 24.3383Z" fill="#B2EBF2"/>
<path id="Vector_38" d="M28.801 18.0015H23.9263V19.4639H28.801C29.2049 19.4639 29.5323 19.1365 29.5323 18.7327C29.5323 18.3289 29.2049 18.0015 28.801 18.0015Z" fill="#4DD0E1"/>
<path id="Vector_39" d="M28.801 20.4388H23.9263V21.9012H28.801C29.2049 21.9012 29.5323 21.5738 29.5323 21.17C29.5323 20.7662 29.2049 20.4388 28.801 20.4388Z" fill="#4DD0E1"/>
<path id="Vector_40" d="M28.801 22.876H25.8761C25.4723 22.876 25.1449 23.2034 25.1449 23.6073C25.1449 24.0111 25.4723 24.3385 25.8761 24.3385H28.801C29.2048 24.3385 29.5322 24.0111 29.5322 23.6073C29.5322 23.2034 29.2048 22.876 28.801 22.876Z" fill="#4DD0E1"/>
<path id="Vector_41" d="M27.0285 32.7988C27.0095 32.8027 26.9905 32.8066 26.9715 32.8105C26.9398 32.8163 26.9076 32.8222 26.8754 32.8275C26.8437 32.8324 26.8116 32.8373 26.7794 32.8412C26.7579 32.8441 26.7365 32.847 26.715 32.8495C26.6619 32.8553 26.6083 32.8602 26.5542 32.8631C26.5522 32.8631 26.5498 32.8636 26.5478 32.8636C26.425 32.8704 26.3021 32.8704 26.1793 32.8636C26.1774 32.8636 26.1749 32.8631 26.173 32.8631C26.1189 32.8602 26.0652 32.8553 26.0121 32.8495C25.9907 32.847 25.9692 32.8441 25.9478 32.8412C25.9156 32.8373 25.8834 32.8324 25.8517 32.8275C25.8195 32.8222 25.7874 32.8163 25.7557 32.8105C25.7367 32.8066 25.7177 32.8027 25.6987 32.7988C25.4057 32.7359 25.1278 32.6325 24.8709 32.4946C24.614 32.3566 24.3786 32.1845 24.1699 31.9842V37.013C24.1699 37.2826 24.3181 37.5307 24.556 37.6579C24.7939 37.7847 25.0825 37.771 25.3067 37.6214L26.3636 36.917L27.4204 37.6214C27.5428 37.7028 27.6841 37.7442 27.826 37.7442C27.9445 37.7442 28.0629 37.7155 28.1711 37.6579C28.409 37.5307 28.5572 37.2826 28.5572 37.013V31.9842C28.1404 32.3849 27.6144 32.673 27.0285 32.7988Z" fill="#EF5350"/>
<path id="Vector_42" d="M30.7442 29.2563C30.7442 29.8653 30.6137 30.4438 30.3785 30.9694C30.1433 31.4944 29.8034 31.965 29.3846 32.3569C28.8034 32.9011 28.0699 33.2923 27.2528 33.4631C27.2263 33.4684 27.1998 33.4737 27.1733 33.479C27.1291 33.4869 27.0842 33.4949 27.0394 33.5021C26.9952 33.5088 26.9503 33.5154 26.9054 33.5207C26.8755 33.5247 26.8456 33.5286 26.8157 33.5319C26.7416 33.5399 26.6668 33.5465 26.5914 33.5505C26.5887 33.5505 26.5853 33.5511 26.5825 33.5511C26.4112 33.5604 26.2399 33.5604 26.0686 33.5511C26.0659 33.5511 26.0625 33.5505 26.0598 33.5505C25.9843 33.5465 25.9096 33.5399 25.8355 33.5319C25.8056 33.5286 25.7756 33.5247 25.7457 33.5207C25.7009 33.5154 25.656 33.5088 25.6118 33.5021C25.5669 33.4949 25.5221 33.4869 25.4779 33.479C25.4514 33.4737 25.4249 33.4684 25.3984 33.4631C24.9898 33.3777 24.6023 33.2374 24.2441 33.05C23.8858 32.8627 23.5575 32.629 23.2666 32.3569C22.4297 31.5732 21.907 30.4736 21.907 29.2563C21.907 26.8837 23.8892 24.9534 26.3256 24.9534C28.7619 24.9534 30.7442 26.8837 30.7442 29.2563Z" fill="#FDD835"/>
<path id="Vector_43" d="M27.0286 32.7988C27.0096 32.8027 26.9905 32.8066 26.9715 32.8105C26.9398 32.8163 26.9077 32.8222 26.8755 32.8275C26.8438 32.8324 26.8116 32.8373 26.7795 32.8412C26.758 32.8441 26.7366 32.847 26.7151 32.8495C26.662 32.8553 26.6084 32.8602 26.5543 32.8631C26.5523 32.8631 26.5499 32.8636 26.5479 32.8636C26.4865 32.867 26.4251 32.8687 26.3636 32.8687V36.917L27.4205 37.6214C27.5429 37.7028 27.6842 37.7442 27.8261 37.7442C27.9445 37.7442 28.063 37.7155 28.1712 37.6579C28.4091 37.5307 28.5573 37.2826 28.5573 37.013V31.9842C28.1405 32.3849 27.6145 32.673 27.0286 32.7988Z" fill="#D32F2F"/>
<path id="Vector_44" d="M26.3256 24.9534V33.5581C26.4112 33.5581 26.4969 33.5558 26.5825 33.5511C26.5852 33.5511 26.5886 33.5505 26.5914 33.5505C26.6668 33.5465 26.7416 33.5399 26.8157 33.5319C26.8456 33.5286 26.8755 33.5247 26.9054 33.5207C26.9503 33.5154 26.9952 33.5088 27.0393 33.5021C27.0842 33.4949 27.1291 33.4869 27.1733 33.479C27.1998 33.4737 27.2263 33.4684 27.2528 33.4631C28.0699 33.2923 28.8034 32.9011 29.3846 32.3569C29.8033 31.965 30.1432 31.4944 30.3784 30.9694C30.6136 30.4438 30.7442 29.8653 30.7442 29.2563C30.7442 26.8837 28.7619 24.9534 26.3256 24.9534Z" fill="#FBC02D"/>
</g>
</g>
</g>
</g>
<g id="Group 83">
<g id="Ellipse 114" filter="url(#filter3_b_1_88)">
<circle cx="88" cy="24" r="24" fill="#FFF5CC" fill-opacity="0.2"/>
</g>
<g id="Group_7">
<g id="Group_8">
<g id="Group_9">
<path id="Vector_45" d="M82.015 35.6923L86.1955 25.6L82.8383 24.2094L78.0218 35.8372C77.8189 36.3271 78.278 36.8319 78.7849 36.6764L81.516 35.8383C81.597 35.8135 81.675 35.8059 81.7553 35.8137L82.015 35.6923Z" fill="#FFE07D"/>
<path id="Vector_46" d="M86.0167 25.5247L81.7552 35.8125C81.9615 35.8309 82.1518 35.9506 82.2537 36.1427L83.5922 38.6666C83.8407 39.135 84.5223 39.1026 84.7253 38.6128L89.5418 26.9849L86.0167 25.5247Z" fill="#FFD064"/>
<path id="Vector_47" d="M89.6667 25.4857L86.0479 26.9848L90.8644 38.6126C91.0673 39.1025 91.7489 39.1349 91.9974 38.6664L93.3359 36.1425C93.3771 36.0648 93.4329 35.9989 93.4982 35.9467L93.8259 35.5325L89.6667 25.4857Z" fill="#FFE07D"/>
<path id="Vector_48" d="M97.5678 35.8358L92.7513 24.208L89.2385 25.6631L93.4984 35.947C93.6563 35.8208 93.8704 35.7746 94.0736 35.8369L96.8048 36.675C97.3117 36.8307 97.7708 36.3257 97.5678 35.8358Z" fill="#FFD064"/>
</g>
<g id="Group_10">
<path id="Vector_49" d="M89.0043 9.42152C89.508 9.82119 90.1767 9.94617 90.7908 9.75551C91.6544 9.48733 92.5888 9.84938 93.0463 10.6293C93.3717 11.184 93.95 11.5421 94.5916 11.5861C95.4937 11.648 96.2343 12.3232 96.3792 13.2157C96.4822 13.8505 96.8922 14.3933 97.4745 14.6661C98.2933 15.0497 98.74 15.9468 98.5526 16.8314C98.4194 17.4604 98.6056 18.1147 99.05 18.5795C99.675 19.233 99.7674 20.2308 99.2732 20.988C98.9217 21.5265 98.8589 22.2038 99.1055 22.7977C99.4522 23.6329 99.1779 24.5968 98.4435 25.1243C97.9213 25.4994 97.6181 26.1084 97.6334 26.7512C97.655 27.6552 97.0511 28.4549 96.1757 28.6815C95.5532 28.8426 95.0505 29.301 94.8326 29.906C94.5262 30.7567 93.6741 31.2843 92.776 31.1793C92.1373 31.1047 91.503 31.3504 91.0812 31.8359C90.4882 32.5185 89.5031 32.7026 88.7035 32.2803C88.1349 31.9801 87.4547 31.9801 86.8861 32.2803C86.0865 32.7026 85.1014 32.5185 84.5084 31.8359C84.0866 31.3504 83.4524 31.1047 82.8136 31.1793C81.9155 31.2843 81.0635 30.7567 80.757 29.906C80.5391 29.301 80.0364 28.8426 79.4139 28.6815C78.5385 28.4549 77.9346 27.6552 77.9562 26.7512C77.9715 26.1084 77.6683 25.4994 77.1461 25.1243C76.4117 24.5968 76.1374 23.6329 76.4841 22.7977C76.7307 22.2038 76.6679 21.5265 76.3164 20.988C75.8222 20.2308 75.9147 19.233 76.5396 18.5795C76.9841 18.1147 77.1702 17.4604 77.037 16.8314C76.8497 15.9468 77.2964 15.0496 78.1152 14.6661C78.6975 14.3933 79.1074 13.8505 79.2105 13.2157C79.3553 12.3232 80.096 11.648 80.9981 11.5861C81.6396 11.5421 82.218 11.184 82.5433 10.6293C83.0008 9.84938 83.9353 9.48738 84.7988 9.75551C85.413 9.94623 86.0816 9.82119 86.5854 9.42152C87.2938 8.85949 88.296 8.85949 89.0043 9.42152Z" fill="#E8AE4D"/>
<g id="Group_11">
<path id="Vector_50" d="M93.1037 20.7532C93.1037 16.7861 90.5444 13.417 86.987 12.2061C82.6246 12.6132 79.2101 16.2844 79.2101 20.7532C79.2101 25.222 82.6246 28.8932 86.987 29.3003C90.5445 28.0895 93.1037 24.7204 93.1037 20.7532Z" fill="#FFE07D"/>
<path id="Vector_51" d="M87.7947 12.1685C87.1375 12.1685 86.4977 12.2426 85.8828 12.3824C89.7036 13.2515 92.5555 16.6691 92.5555 20.753C92.5555 24.837 89.7036 28.2546 85.8828 29.1237C86.4977 29.2635 87.1375 29.3376 87.7947 29.3376C92.5359 29.3376 96.3793 25.4942 96.3793 20.753C96.3793 16.0119 92.5359 12.1685 87.7947 12.1685Z" fill="#FFD064"/>
<path id="Vector_52" d="M88.0313 24.0479L90.9942 26.0424C91.1107 26.1208 91.2394 26.1323 91.3521 26.0976C91.4568 25.9553 91.5575 25.8098 91.6539 25.6613C91.6516 25.633 91.6464 25.6041 91.638 25.5747L90.6568 22.1405C90.6095 21.9747 90.6672 21.7968 90.803 21.6906L93.0658 19.9192C93.0282 19.5091 92.9632 19.1068 92.8726 18.7144L89.8002 18.6042C89.6279 18.598 89.4766 18.488 89.4175 18.3261L88.1926 14.971C88.0572 14.5999 87.5324 14.5999 87.3969 14.971L86.1721 18.326C86.113 18.4879 85.9617 18.5979 85.7894 18.604L82.2201 18.7321C81.8253 18.7463 81.6632 19.2454 81.9742 19.4889L84.7866 21.6905C84.9223 21.7967 84.9801 21.9746 84.9328 22.1404L83.9516 25.5746C83.843 25.9544 84.2676 26.2629 84.5953 26.0423L87.5583 24.0479C87.7013 23.9517 87.8883 23.9517 88.0313 24.0479Z" fill="#E8AE4D"/>
<g id="Group_12">
<path id="Vector_53" d="M90.9941 26.0425C91.3218 26.2631 91.7464 25.9546 91.6379 25.5748L91.46 24.9521C91.269 25.2919 91.0554 25.6172 90.8215 25.9264L90.9941 26.0425Z" fill="#E5A32E"/>
<path id="Vector_54" d="M93.3693 18.7324L92.3066 18.6942C92.4364 19.2211 92.5172 19.7671 92.5446 20.3272L93.6152 19.4892C93.9262 19.2457 93.764 18.7465 93.3693 18.7324Z" fill="#E5A32E"/>
</g>
</g>
</g>
</g>
</g>
</g>
</g>
<defs>
<filter id="filter0_b_1_88" x="-4" y="60" width="56" height="56" filterUnits="userSpaceOnUse" color-interpolation-filters="sRGB">
<feFlood flood-opacity="0" result="BackgroundImageFix"/>
<feGaussianBlur in="BackgroundImageFix" stdDeviation="2"/>
<feComposite in2="SourceAlpha" operator="in" result="effect1_backgroundBlur_1_88"/>
<feBlend mode="normal" in="SourceGraphic" in2="effect1_backgroundBlur_1_88" result="shape"/>
</filter>
<filter id="filter1_b_1_88" x="60" y="60" width="56" height="56" filterUnits="userSpaceOnUse" color-interpolation-filters="sRGB">
<feFlood flood-opacity="0" result="BackgroundImageFix"/>
<feGaussianBlur in="BackgroundImageFix" stdDeviation="2"/>
<feComposite in2="SourceAlpha" operator="in" result="effect1_backgroundBlur_1_88"/>
<feBlend mode="normal" in="SourceGraphic" in2="effect1_backgroundBlur_1_88" result="shape"/>
</filter>
<filter id="filter2_b_1_88" x="-4" y="-4" width="56" height="56" filterUnits="userSpaceOnUse" color-interpolation-filters="sRGB">
<feFlood flood-opacity="0" result="BackgroundImageFix"/>
<feGaussianBlur in="BackgroundImageFix" stdDeviation="2"/>
<feComposite in2="SourceAlpha" operator="in" result="effect1_backgroundBlur_1_88"/>
<feBlend mode="normal" in="SourceGraphic" in2="effect1_backgroundBlur_1_88" result="shape"/>
</filter>
<filter id="filter3_b_1_88" x="60" y="-4" width="56" height="56" filterUnits="userSpaceOnUse" color-interpolation-filters="sRGB">
<feFlood flood-opacity="0" result="BackgroundImageFix"/>
<feGaussianBlur in="BackgroundImageFix" stdDeviation="2"/>
<feComposite in2="SourceAlpha" operator="in" result="effect1_backgroundBlur_1_88"/>
<feBlend mode="normal" in="SourceGraphic" in2="effect1_backgroundBlur_1_88" result="shape"/>
</filter>
<clipPath id="clip0_1_88">
<rect width="112" height="118" fill="white"/>
</clipPath>
</defs>
</svg>
