<svg width="48" height="48" viewBox="0 0 48 48" fill="none" xmlns="http://www.w3.org/2000/svg">
<circle cx="24" cy="24" r="24" fill="#FFF5E8"/>
<path d="M35.8891 24.89L35.7656 23.8375C35.1103 23.9444 30.6019 25.1318 24.3367 25.1318C18.0527 25.1318 13.573 23.9459 12.9087 23.8378L12.7849 24.8895C12.4121 28.0573 12.5446 31.1059 12.5421 31.4428C13.0574 31.5278 17.8047 32.7773 24.3369 32.7773C30.8891 32.7773 35.6006 31.5303 36.1319 31.4428C36.1287 30.9844 36.2702 28.1391 35.8891 24.89Z" fill="#F57F41"/>
<path d="M35.8892 24.89L35.7657 23.8375C35.1104 23.9444 30.6026 25.1318 24.3381 25.1318L24.3384 32.7773C30.8895 32.7773 35.6007 31.5303 36.1319 31.4425C36.1287 30.9844 36.2702 28.1391 35.8892 24.89Z" fill="#EA623C"/>
<path d="M35.9486 24.9509C35.604 22.0337 34.9248 19.5603 33.9849 17.7979C33.0228 15.9937 31.8023 15 30.5481 15C29.2559 15 28.3073 15.7594 27.3901 16.4935C26.4737 17.2271 25.6082 17.9202 24.3892 17.9202C23.1702 17.9202 22.3047 17.2271 21.3883 16.4935C20.4712 15.7594 19.5226 15 18.2304 15C16.9761 15 15.7556 15.9937 14.7935 17.7979C13.8536 19.5603 13.1749 22.034 12.8306 24.9511L12.7267 25.83C13.296 25.9218 17.9602 27.1251 24.3892 27.1251C30.845 27.1251 35.4652 25.9248 36.0522 25.83L35.9486 24.9509Z" fill="#FFE07F"/>
<path d="M35.9482 24.9509C35.6021 22.0337 34.9199 19.5603 33.9759 17.7979C33.0096 15.9937 31.7837 15 30.524 15C29.2261 15 28.2734 15.7594 27.3522 16.4935C26.4318 17.2271 25.5625 17.9202 24.3381 17.9202V27.1251C30.8222 27.1251 35.4626 25.9248 36.0523 25.83L35.9482 24.9509Z" fill="#FFD23A"/>
<path d="M24.3381 32.7769C18.7815 32.7769 13.2847 31.9066 8 30.1901L8.59533 28.3584C13.6873 30.0123 18.9842 30.8509 24.3381 30.8509C29.6921 30.8509 34.989 30.0123 40.0809 28.3584L40.6762 30.1901C35.3916 31.9066 29.8948 32.7769 24.3381 32.7769Z" fill="#FFE07F"/>
<path d="M40.0809 28.3584C34.989 30.0123 29.6921 30.8509 24.3381 30.8509V32.7769C29.8948 32.7769 35.3916 31.9066 40.6763 30.1901L40.0809 28.3584Z" fill="#FFD23A"/>
</svg>
