<svg width="48" height="48" viewBox="0 0 48 48" fill="none" xmlns="http://www.w3.org/2000/svg">
<circle cx="24" cy="24" r="24" fill="#FFFAEB"/>
<path d="M21.5353 37.0868H25.5696V37.4334H21.5353V37.0868Z" fill="#344D5B"/>
<path d="M21.9816 36.0746V37.6611C21.9816 37.9028 22.1776 38.0988 22.4194 38.0988H24.6855C24.9273 38.0988 25.1233 37.9028 25.1233 37.6611V36.0746H21.9816Z" fill="#293B44"/>
<path d="M28.2428 10.002C28.0974 9.9373 27.9271 10.0027 27.8623 10.1481L27.2415 11.5426C27.1768 11.6879 27.2421 11.8583 27.3875 11.923C27.5329 11.9877 27.7032 11.9223 27.7679 11.777L28.3888 10.3825C28.4535 10.2371 28.3882 10.0668 28.2428 10.002Z" fill="#64798A"/>
<path d="M32.1419 12.835C32.0354 12.7167 31.8532 12.7072 31.735 12.8136L30.6006 13.835C30.4823 13.9415 30.4728 14.1237 30.5793 14.242C30.6857 14.3602 30.8679 14.3698 30.9862 14.2633L32.1206 13.2419C32.2388 13.1354 32.2484 12.9532 32.1419 12.835Z" fill="#64798A"/>
<path d="M34.5516 17.0087C34.5024 16.8574 34.3399 16.7746 34.1885 16.8238L32.7368 17.2955C32.5854 17.3446 32.5026 17.5072 32.5518 17.6585C32.601 17.8099 32.7635 17.8927 32.9149 17.8435L34.3666 17.3718C34.5179 17.3227 34.6008 17.1601 34.5516 17.0087Z" fill="#64798A"/>
<path d="M35.0555 21.8019C35.0721 21.6437 34.9573 21.5019 34.799 21.4853L33.2809 21.3257C33.1227 21.3091 32.9809 21.4239 32.9642 21.5821C32.9476 21.7404 33.0624 21.8822 33.2207 21.8988L34.7388 22.0584C34.897 22.075 35.0388 21.9602 35.0555 21.8019Z" fill="#64798A"/>
<path d="M33.5661 26.3857C33.6457 26.2479 33.5984 26.0716 33.4606 25.9921L32.1387 25.2288C32.0009 25.1493 31.8246 25.1965 31.7451 25.3343C31.6655 25.4721 31.7127 25.6483 31.8505 25.7279L33.1725 26.4911C33.3103 26.5707 33.4865 26.5235 33.5661 26.3857Z" fill="#64798A"/>
<path d="M13.4908 26.3857C13.5704 26.5235 13.7466 26.5707 13.8844 26.4911L15.2064 25.7279C15.3442 25.6483 15.3914 25.4721 15.3118 25.3343C15.2323 25.1965 15.056 25.1493 14.9182 25.2288L13.5963 25.9921C13.4585 26.0716 13.4112 26.2479 13.4908 26.3857Z" fill="#64798A"/>
<path d="M12.0016 21.8019C12.0182 21.9602 12.16 22.075 12.3183 22.0584L13.8364 21.8988C13.9946 21.8822 14.1095 21.7404 14.0928 21.5821C14.0762 21.4239 13.9344 21.3091 13.7761 21.3257L12.258 21.4853C12.0998 21.5019 11.985 21.6437 12.0016 21.8019Z" fill="#64798A"/>
<path d="M12.5054 17.0087C12.4562 17.1601 12.5391 17.3227 12.6904 17.3718L14.1421 17.8435C14.2935 17.8927 14.456 17.8099 14.5052 17.6585C14.5544 17.5072 14.4716 17.3446 14.3202 17.2955L12.8685 16.8238C12.7171 16.7746 12.5546 16.8574 12.5054 17.0087Z" fill="#64798A"/>
<path d="M14.9151 12.835C14.8086 12.9532 14.8182 13.1354 14.9364 13.2419L16.0708 14.2633C16.189 14.3698 16.3712 14.3602 16.4777 14.242C16.5842 14.1237 16.5746 13.9415 16.4564 13.835L15.322 12.8136C15.2038 12.7072 15.0216 12.7167 14.9151 12.835Z" fill="#64798A"/>
<path d="M18.8143 10.002C18.6689 10.0668 18.6035 10.2371 18.6682 10.3825L19.2891 11.777C19.3538 11.9223 19.5241 11.9877 19.6695 11.923C19.8149 11.8583 19.8803 11.6879 19.8156 11.5426L19.1947 10.1481C19.13 10.0027 18.9596 9.9373 18.8143 10.002Z" fill="#64798A"/>
<path d="M23.5284 9C23.3693 9 23.2403 9.12902 23.2403 9.28814V10.8146C23.2403 10.9737 23.3693 11.1027 23.5284 11.1027C23.6876 11.1027 23.8166 10.9737 23.8166 10.8146V9.28814C23.8166 9.12902 23.6876 9 23.5284 9Z" fill="#64798A"/>
<path d="M21.0488 33.3973V35.9259C21.0488 36.3112 21.3612 36.6236 21.7466 36.6236H25.3583C25.7437 36.6236 26.056 36.3112 26.056 35.9259V33.3973H21.0488Z" fill="#344D5B"/>
<path d="M32.3154 19.8295C31.9544 15.5223 28.4218 12.0659 24.1082 11.7902C18.9754 11.462 14.7098 15.5281 14.7098 20.5903C14.7098 22.9406 15.6292 25.0763 17.129 26.6568C18.7598 28.3754 19.8153 30.5435 20.1181 32.8641C20.1781 33.3238 20.5633 33.6703 21.0269 33.6703H26.0332C26.4981 33.6703 26.8838 33.3221 26.9427 32.861C27.2344 30.5757 28.212 28.4125 29.8343 26.7543C31.5524 24.9981 32.5415 22.5271 32.3154 19.8295Z" fill="#F7BE56"/>
<path d="M23.5285 26.7401C26.9535 26.7401 29.73 23.9636 29.73 20.5386C29.73 17.1137 26.9535 14.3372 23.5285 14.3372C20.1035 14.3372 17.327 17.1137 17.327 20.5386C17.327 23.9636 20.1035 26.7401 23.5285 26.7401Z" fill="#FCD462"/>
</svg>
