<svg width="48" height="48" viewBox="0 0 48 48" fill="none" xmlns="http://www.w3.org/2000/svg">
<circle cx="24" cy="24" r="24" fill="#F1F8FF"/>
<path d="M12.75 24C12.628 24 12.507 23.971 12.396 23.911C12.152 23.78 12 23.526 12 23.25V15.75C12 14.785 12.785 14 13.75 14H22.25C23.767 14 25 15.233 25 16.75V19.25C25 20.767 23.767 22 22.25 22H16.36C16.113 22 15.87 22.074 15.673 22.209L13.164 23.875C13.04 23.958 12.895 24 12.75 24Z" fill="#FFC107"/>
<path d="M17.5001 24C15.8461 24 14.5001 25.346 14.5001 27C14.5001 28.654 15.8461 30 17.5001 30C19.1541 30 20.5001 28.654 20.5001 27C20.5001 25.346 19.1541 24 17.5001 24Z" fill="#2196F3"/>
<path d="M20.25 31H14.75C13.233 31 12 32.233 12 33.75V35.25C12 35.664 12.336 36 12.75 36H22.25C22.664 36 23 35.664 23 35.25V33.75C23 32.233 21.767 31 20.25 31Z" fill="#2196F3"/>
<path d="M17.5 14H13.75C12.785 14 12 14.785 12 15.75V23.25C12 23.526 12.152 23.78 12.395 23.911C12.507 23.971 12.628 24 12.75 24C12.895 24 13.04 23.958 13.165 23.875L15.674 22.209C15.87 22.074 16.113 22 16.36 22H17.5V14Z" fill="#DEA806"/>
<path d="M17.5001 24C15.8461 24 14.5001 25.346 14.5001 27C14.5001 28.654 15.8461 30 17.5001 30V24Z" fill="#1D83D4"/>
<path d="M17.5 31H14.75C13.233 31 12 32.233 12 33.75V35.25C12 35.664 12.336 36 12.75 36H17.5V31Z" fill="#1D83D4"/>
<path d="M35.25 22C35.104 22 34.96 21.957 34.834 21.874L32.338 20.21C32.132 20.072 31.893 20 31.645 20H25.75C24.785 20 24 19.215 24 18.25V13.75C24 12.785 24.785 12 25.75 12H34.25C35.215 12 36 12.785 36 13.75V21.25C36 21.526 35.848 21.781 35.603 21.911C35.493 21.971 35.371 22 35.25 22Z" fill="#2196F3"/>
<path d="M30.4999 24C28.8459 24 27.4999 25.346 27.4999 27C27.4999 28.654 28.8459 30 30.4999 30C32.1539 30 33.4999 28.654 33.4999 27C33.4999 25.346 32.1539 24 30.4999 24Z" fill="#4CAF50"/>
<path d="M33.2501 31H27.7501C26.2331 31 25.0001 32.233 25.0001 33.75V35.25C25.0001 35.664 25.3361 36 25.7501 36H35.2501C35.6641 36 36.0001 35.664 36.0001 35.25V33.75C36.0001 32.233 34.7671 31 33.2501 31Z" fill="#4CAF50"/>
<path d="M30.5 12H25.75C24.785 12 24 12.785 24 13.75V18.25C24 19.215 24.785 20 25.75 20H30.5V12Z" fill="#1D83D4"/>
<path d="M30.4999 24C28.8459 24 27.4999 25.346 27.4999 27C27.4999 28.654 28.8459 30 30.4999 30V24Z" fill="#429846"/>
<path d="M30.5 31H27.75C26.233 31 25 32.233 25 33.75V35.25C25 35.664 25.336 36 25.75 36H30.5V31Z" fill="#429846"/>
</svg>
