<svg width="48" height="48" viewBox="0 0 48 48" fill="none" xmlns="http://www.w3.org/2000/svg">
<circle cx="24" cy="24" r="24" fill="#F8FAFB"/>
<path d="M32.6723 15.1148V32.7806H27.5575C26.6883 32.7806 25.9837 33.4852 25.9837 34.3544V39.4299L25.905 39.5086H14.5738C13.7046 39.5086 13 38.804 13 37.9348V15.1148C13 14.2456 13.7046 13.541 14.5738 13.541H31.0986C31.9677 13.541 32.6723 14.2457 32.6723 15.1148Z" fill="#D4E1F4"/>
<path d="M32.633 32.8199L25.9837 39.4298V34.3937C25.9837 33.5245 26.6883 32.8199 27.5575 32.8199H32.633Z" fill="#00CEB4"/>
<path d="M17.5245 27.1149H15.9507C15.5161 27.1149 15.1638 26.7626 15.1638 26.328C15.1638 25.8934 15.5161 25.5411 15.9507 25.5411H17.5245C17.9591 25.5411 18.3114 25.8934 18.3114 26.328C18.3114 26.7626 17.959 27.1149 17.5245 27.1149Z" fill="#00ACEA"/>
<path d="M28.9346 27.1149H19.8853C19.4507 27.1149 19.0984 26.7626 19.0984 26.328C19.0984 25.8934 19.4507 25.5411 19.8853 25.5411H28.9345C29.3692 25.5411 29.7214 25.8934 29.7214 26.328C29.7215 26.7626 29.3692 27.1149 28.9346 27.1149Z" fill="#083863"/>
<path d="M17.5245 31.0494H15.9507C15.5161 31.0494 15.1638 30.6971 15.1638 30.2625C15.1638 29.8279 15.5161 29.4756 15.9507 29.4756H17.5245C17.9591 29.4756 18.3114 29.8279 18.3114 30.2625C18.3114 30.6971 17.959 31.0494 17.5245 31.0494Z" fill="#00ACEA"/>
<path d="M28.9346 31.0494H19.8853C19.4507 31.0494 19.0984 30.6971 19.0984 30.2625C19.0984 29.8279 19.4507 29.4756 19.8853 29.4756H28.9345C29.3692 29.4756 29.7214 29.8279 29.7214 30.2625C29.7214 30.6971 29.3692 31.0494 28.9346 31.0494Z" fill="#083863"/>
<path d="M17.5245 23.1805H15.9507C15.5161 23.1805 15.1638 22.8282 15.1638 22.3936C15.1638 21.959 15.5161 21.6067 15.9507 21.6067H17.5245C17.9591 21.6067 18.3114 21.959 18.3114 22.3936C18.3114 22.8282 17.959 23.1805 17.5245 23.1805Z" fill="#00ACEA"/>
<path d="M28.9346 23.1805H19.8853C19.4507 23.1805 19.0984 22.8282 19.0984 22.3936C19.0984 21.959 19.4507 21.6067 19.8853 21.6067H28.9345C29.3692 21.6067 29.7214 21.959 29.7214 22.3936C29.7214 22.8282 29.3692 23.1805 28.9346 23.1805Z" fill="#083863"/>
<path d="M17.5245 19.246H15.9507C15.5161 19.246 15.1638 18.8937 15.1638 18.4591C15.1638 18.0245 15.5161 17.6722 15.9507 17.6722H17.5245C17.9591 17.6722 18.3114 18.0245 18.3114 18.4591C18.3114 18.8937 17.959 19.246 17.5245 19.246Z" fill="#00ACEA"/>
<path d="M28.9346 19.246H19.8853C19.4507 19.246 19.0984 18.8937 19.0984 18.4591C19.0984 18.0245 19.4507 17.6722 19.8853 17.6722H28.9345C29.3692 17.6722 29.7214 18.0245 29.7214 18.4591C29.7215 18.8937 29.3692 19.246 28.9346 19.246Z" fill="#083863"/>
<path d="M35.4264 32.3871C34.9918 32.3871 34.6395 32.0348 34.6395 31.6002V13.1476C34.6395 12.2784 33.935 11.5738 33.0658 11.5738H15.7541C15.3195 11.5738 14.9672 11.2215 14.9672 10.7869C14.9672 10.3523 15.3195 10 15.7541 10H33.0658C34.8041 10 36.2133 11.4092 36.2133 13.1476V31.6003C36.2133 32.0348 35.861 32.3871 35.4264 32.3871Z" fill="#00ACEA"/>
</svg>
