<svg width="48" height="48" viewBox="0 0 48 48" fill="none" xmlns="http://www.w3.org/2000/svg">
<circle cx="24" cy="24" r="24" fill="#FFF7F1"/>
<path d="M18.5053 29.4948C17.0122 28.0172 14.6053 28.0172 13.1122 29.4948C11.6346 30.9877 11.6346 33.3949 13.1122 34.8877C14.6053 36.3656 17.0122 36.3656 18.5053 34.8877C19.9829 33.3949 19.9829 30.9879 18.5053 29.4948Z" fill="#FF9F00"/>
<path d="M28.7578 35.2383C28.7578 35.4972 28.7273 35.7409 28.712 36H24.1417C24.1722 35.7409 24.1875 35.4972 24.1875 35.2383C24.1875 32.0847 22.9079 29.236 20.8359 27.1641C18.764 25.0922 15.9153 23.8125 12.7617 23.8125C12.5029 23.8125 12.2589 23.8278 12 23.8581V19.2878C12.2589 19.2725 12.5029 19.2422 12.7617 19.2422C17.1797 19.2422 21.1712 21.0398 24.0655 23.9343C26.9602 26.8288 28.7578 30.8203 28.7578 35.2383Z" fill="#FF9F00"/>
<path d="M38 35.2383C38 35.4972 37.9695 35.7409 37.9542 36H33.2823C33.2976 35.7409 33.3281 35.4972 33.3281 35.2383C33.3281 29.571 31.0277 24.4219 27.2953 20.7047C23.5781 16.9723 18.4288 14.6719 12.7617 14.6719C12.5029 14.6719 12.2589 14.7024 12 14.7177V10.0458C12.2589 10.0305 12.5029 10 12.7617 10C19.7086 10 25.9851 12.9199 30.5401 17.4597C35.0801 22.0149 38 28.2914 38 35.2383Z" fill="#FF9F00"/>
<path d="M18.5052 29.4949C19.9828 30.9878 19.9828 33.3949 18.5052 34.8878C17.0121 36.3656 14.6051 36.3656 13.1121 34.8878L18.5052 29.4949Z" fill="#FF7816"/>
<path d="M24.0655 23.9343C26.9602 26.8289 28.7578 30.8203 28.7578 35.2383C28.7578 35.4972 28.7273 35.741 28.712 36H24.1417C24.1722 35.741 24.1875 35.4972 24.1875 35.2383C24.1875 32.0847 22.9079 29.236 20.8359 27.1641L24.0655 23.9343Z" fill="#FF7816"/>
<path d="M38.0002 35.2383C38.0002 35.4972 37.9697 35.741 37.9544 36H33.2825C33.2978 35.741 33.3283 35.4972 33.3283 35.2383C33.3283 29.5711 31.0279 24.4219 27.2955 20.7048L30.5403 17.4597C35.0803 22.015 38.0002 28.2914 38.0002 35.2383Z" fill="#FF7816"/>
</svg>
