<svg width="48" height="48" viewBox="0 0 48 48" fill="none" xmlns="http://www.w3.org/2000/svg">
<circle cx="24" cy="24" r="24" fill="#E1EFFF"/>
<path d="M38 24.3236C38 26.0374 38 26.3867 37.8627 29.2271C37.746 29.2271 37.0392 29.2265 36.922 29.2252C36.6074 29.2221 36.531 29.1396 36.5298 28.7876C36.5264 27.0461 36.527 25.3046 36.5235 23.5638C36.523 23.101 36.3573 22.914 35.9635 22.9159C35.5714 22.9177 35.4018 23.1098 35.4012 23.565C35.4001 25.2763 35.4012 26.987 35.4018 28.6976C35.4018 29.1818 35.3305 29.2573 34.8797 29.2542C34.5727 29.2523 34.2662 29.2542 33.9592 29.2523C33.6125 29.2505 33.5291 29.1547 33.5286 28.7505C33.5263 27.0298 33.5262 25.3084 33.5239 23.5877C33.5234 23.1337 33.3629 22.9316 33.0065 22.9203C32.5839 22.9077 32.3987 23.1079 32.3987 23.5845C32.3976 25.3059 32.3982 27.0267 32.3982 28.7474C32.3982 29.1617 32.3435 29.2215 31.9612 29.224C31.6082 29.2259 31.2546 29.2228 30.9016 29.2266C30.6613 29.2291 30.5434 29.1183 30.544 28.8425C30.5463 26.3372 30.5463 23.8326 30.5423 21.3274C30.5417 21.0573 30.6555 20.927 30.8907 20.9232C31.2811 20.9169 31.6715 20.9251 32.0619 20.9207C32.308 20.9176 32.3902 21.0919 32.4218 21.3431C33.0342 20.8565 33.6747 20.7444 34.3669 21.0063C34.5733 21.0844 34.7533 21.2091 34.9126 21.3639C35.0247 21.4729 35.0948 21.4722 35.2167 21.3683C36.0487 20.6613 37.071 20.7255 37.746 21.3904C37.9126 22.3397 38 23.3207 38 24.3236Z" fill="#00B8F8"/>
<path d="M19.174 25.3324H19.1704C19.1704 24.5127 19.1704 23.6929 19.1698 22.8731C19.1693 22.8065 19.1598 22.7399 19.1539 22.6738C19.0731 21.742 18.5754 21.1787 17.6553 21.0313C16.842 20.9015 16.0193 20.993 15.2007 20.9782C14.9895 20.9741 14.907 21.121 14.9088 21.3226C14.9117 21.6565 14.9093 21.9903 14.9099 22.3235C14.9111 22.6974 14.9878 22.7776 15.3605 22.78C15.8559 22.7836 16.3519 22.7759 16.8473 22.7817C17.1257 22.7847 17.2484 22.908 17.2389 23.1557C17.2301 23.4034 17.0998 23.5107 16.852 23.503C16.576 23.4942 16.2988 23.4954 16.0228 23.5025C14.9453 23.5302 14.1839 24.2544 14.1492 25.2977C14.1326 25.802 14.1385 26.308 14.1433 26.8128C14.1539 28.0248 14.8321 28.7013 16.047 28.7095C16.7907 28.7148 17.5339 28.7125 18.2775 28.7095C18.8903 28.7071 19.1681 28.4347 19.1728 27.8202C19.1787 26.9908 19.174 26.1616 19.174 25.3324ZM16.8951 26.995C16.0948 27.0321 16.0771 27.018 16.0771 26.2188C16.0771 26.0472 16.0759 25.8756 16.0776 25.7039C16.0788 25.6379 16.0682 25.5618 16.0959 25.507C16.2894 25.1219 16.6479 25.3117 16.9369 25.2899C17.1498 25.2734 17.2566 25.4268 17.2531 25.645C17.2507 25.8066 17.2525 25.9687 17.2525 26.1309C17.2531 26.2931 17.2507 26.4553 17.2537 26.6169C17.2578 26.8623 17.1452 26.9832 16.8951 26.995Z" fill="#002875"/>
<path d="M24.8683 24.1621C24.868 25.0205 24.8731 25.879 24.8668 26.7373C24.8578 27.9799 24.0825 28.7467 22.8377 28.7516C22.1891 28.7541 21.5405 28.7538 20.892 28.7517C20.5382 28.7506 20.4586 28.6685 20.4572 28.3112C20.4558 27.9488 20.4641 27.5861 20.4555 27.2239C20.4492 26.9565 20.5735 26.8386 20.8326 26.8378C21.4049 26.836 21.977 26.8295 22.5493 26.8298C22.7704 26.8299 22.9707 26.7878 22.9704 26.5218C22.97 26.2549 22.7675 26.2174 22.5475 26.2142C22.1292 26.208 21.7076 26.2487 21.2949 26.1439C20.487 25.9386 19.9183 25.3018 19.8907 24.4721C19.8554 23.4146 19.8746 22.3552 19.8731 21.2965C19.8728 21.0755 19.9889 20.9664 20.2132 20.9679C20.6042 20.9706 20.9953 20.9659 21.3863 20.9695C21.6911 20.9723 21.7783 21.0577 21.7796 21.3619C21.783 22.1726 21.781 22.9833 21.7822 23.7941C21.7829 24.2218 21.8574 24.2976 22.2722 24.3002C22.9478 24.3042 22.962 24.2897 22.9617 23.6198C22.9613 22.8759 22.9601 22.1319 22.9631 21.388C22.9645 21.0381 23.0333 20.9719 23.3844 20.9693C23.7278 20.9667 24.0711 20.9672 24.4145 20.9685C24.7985 20.9699 24.868 21.0374 24.8685 21.4151C24.8695 22.3308 24.8686 23.2465 24.8683 24.1621Z" fill="#002875"/>
<path d="M13.6709 22.7895C13.6526 21.6465 12.9602 20.9754 11.8096 20.9695C11.0223 20.9659 9.88816 20.9678 9.10141 20.969C8.87491 21.9857 9.10134 23.0425 9.10134 24.1271C9.10134 25.7419 9.1013 26.4242 9 28.7443C9.10143 28.7443 10.0567 28.7438 10.1576 28.7432C10.5144 28.7414 10.6041 28.6571 10.6058 28.3126C10.6088 27.7595 10.6147 27.2063 10.6058 26.6531C10.6029 26.4809 10.6483 26.4213 10.8281 26.4266C11.2186 26.439 11.6102 26.439 12.0006 26.4242C12.9171 26.3889 13.5965 25.759 13.6508 24.8484C13.6921 24.1642 13.6815 23.476 13.6709 22.7895ZM11.7565 24.1784C11.7529 24.3942 11.635 24.5128 11.4185 24.5187C11.2098 24.5246 10.9998 24.5104 10.7916 24.524C10.6277 24.5346 10.6023 24.458 10.6076 24.3211C10.6153 24.1124 10.6094 23.903 10.6094 23.6942C10.6099 23.4943 10.6217 23.2938 10.6064 23.0956C10.5929 22.9133 10.666 22.8638 10.8359 22.875C11.0252 22.888 11.2157 22.8738 11.4056 22.8798C11.6327 22.8868 11.7571 23.0054 11.7577 23.2378C11.7594 23.5515 11.7618 23.8652 11.7565 24.1784Z" fill="#002875"/>
<path d="M28.6491 25.9339C28.6491 26.8901 28.6504 27.8463 28.6484 28.8025C28.6476 29.1785 28.589 29.2479 28.2774 29.2511C27.9413 29.2545 27.605 29.2563 27.2689 29.2509C26.9661 29.2459 26.8981 29.1631 26.8977 28.7981C26.8955 26.9172 26.8952 25.0363 26.8952 23.1555C26.8952 22.743 26.8972 22.743 26.5634 22.7425C25.8823 22.7415 25.8823 22.7415 25.8822 21.9288C25.8822 21.6451 25.8853 21.3613 25.8813 21.0777C25.8775 20.7975 25.9721 20.65 26.2242 20.6437C26.8519 20.6281 27.3433 20.3205 27.6805 19.6736C27.8102 19.4248 27.9669 19.1916 28.2022 19.0626C28.4714 18.9152 28.6356 19.0312 28.6401 19.3781C28.6447 19.7353 28.6457 20.0927 28.6396 20.4498C28.6371 20.5974 28.676 20.6572 28.8056 20.6487C28.9732 20.6377 29.1417 20.6478 29.3098 20.6469C29.5052 20.6458 29.606 20.7613 29.6072 20.9919C29.6098 21.4542 29.6112 21.9165 29.609 22.3789C29.6078 22.6194 29.5092 22.7521 29.297 22.7423C29.2793 22.7414 29.2616 22.7421 29.2439 22.7424C28.6491 22.7534 28.6491 22.7534 28.649 23.4751C28.6491 24.2947 28.6491 25.1143 28.6491 25.9339Z" fill="#00B8F8"/>
</svg>
