<svg width="1440" height="117" viewBox="0 0 1440 117" fill="none" xmlns="http://www.w3.org/2000/svg">
<path fill-rule="evenodd" clip-rule="evenodd" d="M1468 87.1458L1443.73 82.2288C1419.47 77.3118 1370.93 67.4778 1322.4 67.4778C1273.87 67.4778 1225.33 77.3118 1176.8 83.4156C1128.27 89.5195 1079.73 91.8932 1031.2 88.3326C982.667 84.6025 934.133 74.938 885.6 71.2079C837.067 67.4778 788.533 70.0211 740 74.938C691.467 79.6855 642.933 87.1457 594.4 87.1457C545.867 87.1457 497.333 79.6854 448.8 76.1249C400.267 72.3947 351.733 72.3947 303.2 67.4777C254.667 62.7303 206.133 52.8964 157.6 49.1662C109.067 45.6056 60.5335 47.9794 36.2667 49.1662L12 50.5226L12 2.00332e-06L36.2667 3.75013e-06C60.5335 5.49693e-06 109.067 8.99053e-06 157.6 1.24841e-05C206.133 1.59777e-05 254.667 1.94714e-05 303.2 2.2965e-05C351.733 2.64586e-05 400.267 2.99522e-05 448.8 3.34458e-05C497.333 3.69394e-05 545.867 4.0433e-05 594.4 4.39266e-05C642.933 4.74202e-05 691.467 5.09138e-05 740 5.44074e-05C788.533 5.7901e-05 837.067 6.13946e-05 885.6 6.48882e-05C934.133 6.83819e-05 982.667 7.18755e-05 1031.2 7.53691e-05C1079.73 7.88627e-05 1128.27 8.23563e-05 1176.8 8.58499e-05C1225.33 8.93435e-05 1273.87 9.28371e-05 1322.4 9.63307e-05C1370.93 9.98243e-05 1419.47 0.000103318 1443.73 0.000105065L1468 0.000106812L1468 87.1458Z" fill="white"/>
<path fill-rule="evenodd" clip-rule="evenodd" d="M-7 114.336L17.8333 109.747C42.6667 105.158 92.3333 95.9794 142 95.9794C191.667 95.9794 241.333 105.158 291 110.855C340.667 116.552 390.333 118.767 440 115.444C489.667 111.962 539.333 102.942 589 99.4609C638.667 95.9794 688.333 98.3532 738 102.942C787.667 107.373 837.333 114.336 887 114.336C936.667 114.336 986.333 107.373 1036 104.05C1085.67 100.569 1135.33 100.569 1185 95.9795C1234.67 91.5485 1284.33 82.3701 1334 78.8887C1383.67 75.5655 1433.33 77.781 1458.17 78.8887L1483 80.1547L1483 33.0001L1458.17 33.0001C1433.33 33.0001 1383.67 33.0001 1334 33.0001C1284.33 33.0001 1234.67 33.0001 1185 33.0001C1135.33 33.0001 1085.67 33.0001 1036 33.0001C986.333 33.0001 936.667 33.0001 887 33.0001C837.333 33.0001 787.667 33.0001 738 33.0001C688.333 33.0001 638.667 33 589 33C539.333 33 489.667 33 440 33C390.333 33 340.667 33 291 33C241.333 33 191.667 33 142 33C92.3333 33 42.6667 33 17.8333 33L-6.99999 33L-7 114.336Z" fill="white" fill-opacity="0.1"/>
</svg>
