<svg width="1440" height="931" viewBox="0 0 1440 931" fill="none" xmlns="http://www.w3.org/2000/svg">
<path fill-rule="evenodd" clip-rule="evenodd" d="M1448 931L1407.85 927.377C1366.48 923.754 1286.18 916.509 1204.67 912.886C1123.15 909.263 1042.85 909.263 961.333 891.149C879.817 873.035 799.517 836.808 718 836.808C636.483 836.808 556.183 873.035 474.667 865.79C393.15 858.544 312.85 807.825 231.333 793.334C149.817 778.843 69.5167 800.58 28.15 811.448L-12 822.316V757.106H28.15C69.5167 757.106 149.817 757.106 231.333 757.106C312.85 757.106 393.15 757.106 474.667 757.106C556.183 757.106 636.483 757.106 718 757.106C799.517 757.106 879.817 757.106 961.333 757.106C1042.85 757.106 1123.15 757.106 1204.67 757.106C1286.18 757.106 1366.48 757.106 1407.85 757.106H1448V931Z" fill="url(#paint0_linear_229_21)"/>
<path d="M-11.9999 0H1444.96V764.24H-11.9999V0Z" fill="url(#paint1_linear_229_21)"/>
<g style="mix-blend-mode:overlay" opacity="0.3">
<path d="M1493 -101H-149V856H1493V-101Z" fill="url(#paint2_linear_229_21)"/>
<path d="M-71.9109 186.838L-38.0764 200.259V313.388H-25.6991V227.912H2.92062V84.3535L39.2551 76.2246L100.513 103.096V252.498H114.194V187.191L132.691 181.639L161.142 197.483V323.955H183.458V272.836L210.498 262.851L256.495 291.225L255.375 335.857L275.421 345.412V406.931H289.854V383.281H306.28V325.336L317.676 312.069L360.13 316.67V384.431H373.581L375.636 348.787L399.869 341.747L429.333 351.409V395.259V549.937H-104.948V207.958L-71.9109 186.838Z" fill="url(#paint3_linear_229_21)"/>
<path d="M-121.512 560.934V422.958L-60.7449 413.342L38.2584 444.845V480.182L61.6633 480.919V453.004L168.274 435.366L210.023 444.845V564.186L-121.512 560.934Z" fill="url(#paint4_linear_229_21)"/>
<path d="M1449.18 578.174L1483 919.5L739.5 849L53.9178 529.723L180.022 517.867L442.385 540.582L696.143 497.514L698.199 495.367L697.6 493.495L556.296 487.437L557.999 485.167L571.02 480.167L571.619 476.364L667 392L814.273 335H1161.16H1383L1490 476.364H1291.5L1066.19 497.115H841.174L815.147 561.732L814.273 566.364L1140.61 584.447L1449.18 578.174Z" fill="url(#paint5_linear_229_21)"/>
<path d="M496.434 739.508H51.5712L-76.3739 533.266L46.5712 525.382L53.9178 529.723L496.434 739.508Z" fill="#F5DFB8"/>
<path d="M-76.3738 533.266L51.5714 739.508H-105.055V535.106L-76.3738 533.266Z" fill="url(#paint6_linear_229_21)"/>
<path d="M1449.18 569.953V578.174L1140.61 584.447L814.272 566.364L815.147 561.732L1141.57 578.174L1449.18 569.953Z" fill="#505969"/>
<path d="M369.133 697.039L402.492 694.969L398.183 692.929L365.146 694.969L278.949 650.444L303.842 648.205L299.747 646.257L275.13 648.465L222.952 621.517L246.173 620.858L241.587 618.68L218.719 619.324L161.495 589.769L177.108 588.112L173.121 586.226L157.783 587.852L121.525 569.125L134.102 567.729L130.145 565.858L117.844 567.223L92.3688 554.063L103.197 553.082L99.102 551.134L88.5498 552.085L59.9301 537.299L67.4148 536.118L63.7338 534.37L56.4792 535.52L44.9761 529.585L52.1847 528.71L48.9332 526.793L41.3411 527.713L37.8902 525.934L33.427 526.226L37.2767 528.22L-62.2788 540.29L-67.5856 532.698L-70.2696 532.867L-64.8708 540.597L-71.3739 541.379L-70.0395 543.526L-63.3678 542.714L-55.9291 553.358L-63.2144 554.508L-61.8953 556.625L-54.4567 555.444L-48.2143 564.385L-56.6193 565.137L-55.2542 567.33L-46.6959 566.563L-34.472 584.063L-44.2113 585.137L-42.8616 587.3L-32.9689 586.211L-18.7971 606.487L-30.2235 607.698L-28.8738 609.876L-17.294 608.649L-5.42281 625.628L-18.8584 626.011L-17.4474 628.281L-3.84306 627.898L26.1877 670.873L9.88396 672.346L11.249 674.539L27.7214 673.051L56.4178 714.11L36.5711 715.337L37.9515 717.561L57.9669 716.318L74.1633 739.493H76.97L60.651 716.15L364.655 697.3L446.327 739.493H451.342L369.133 697.039ZM-60.745 542.422L40.9423 530.091L52.6755 536.149L-53.3677 552.99L-60.745 542.422ZM-51.8953 555.076L56.1264 537.928L84.3167 552.483L-45.5303 564.186L-51.8953 555.076ZM-44.0272 566.364L88.105 554.462L113.734 567.698L-31.8339 583.818L-44.0272 566.364ZM-30.3309 585.95L117.415 569.6L153.627 588.312L-16.159 606.241L-30.3309 585.95ZM-14.6406 608.404L157.369 590.229L213.995 619.477L-2.63139 625.566L-14.6406 608.404ZM-1.06698 627.836L218.213 621.671L270.866 648.879L28.8411 670.659L-1.06698 627.836ZM59.1172 713.956L30.3748 672.821L274.685 650.843L360.682 695.26L59.1172 713.956Z" fill="#DEC4A0"/>
<path d="M1028.81 513.02L1027.59 512.99L1041.47 553.128L1042.71 553.204L1028.81 513.02Z" fill="#DEC4A0"/>
<path d="M984.073 511.901L982.892 511.87L973.567 549.707L974.748 549.769L984.073 511.901Z" fill="#DEC4A0"/>
<path d="M898.061 545.904L941.527 510.842L939.748 510.796L896.328 545.827L898.061 545.904Z" fill="#DEC4A0"/>
<path d="M1099.23 514.768L1098.06 514.738L1093.34 555.75L1094.49 555.812L1099.23 514.768Z" fill="#DEC4A0"/>
<path d="M1167.4 557.483L1136.21 515.673L1134.73 515.643L1165.99 557.529L1167.4 557.483Z" fill="#DEC4A0"/>
<path d="M898.567 498.526L831.174 501.947L830.699 503.112L898.337 499.677L898.567 498.526Z" fill="#DEC4A0"/>
<path d="M1188.66 514.4L1187 514.446L1232.02 555.765L1233.67 555.719L1188.66 514.4Z" fill="#DEC4A0"/>
<path d="M897.585 503.557L823.843 520.152L823.321 521.44L897.34 504.799L897.585 503.557Z" fill="#DEC4A0"/>
<path d="M878.536 477.115L910.039 488.311L913.337 488.265L881.972 477.115H878.536Z" fill="#DEC4A0"/>
<path d="M838.321 484.216L899.625 493.158L899.84 492.023L838.751 483.112L838.321 484.216Z" fill="#DEC4A0"/>
<path d="M898.966 509.784L896.374 509.723L896.404 509.523L815.791 540.137L815.208 541.578L898.966 509.784Z" fill="#DEC4A0"/>
<path d="M447.231 486.225L445.943 486.164L429.593 514.768L430.851 514.876L447.231 486.225Z" fill="#DEC4A0"/>
<path d="M483.259 509.125L470.959 487.437L469.609 487.376L482.048 509.309L483.259 509.125Z" fill="#DEC4A0"/>
<path d="M546.695 482.1L542.83 482.529L592.523 491.916L595.913 491.379L546.695 482.1Z" fill="#DEC4A0"/>
<path d="M1249.3 512.744L1247.59 512.79L1296.36 554.033L1298.09 553.987L1249.3 512.744Z" fill="#DEC4A0"/>
<path d="M404.915 484.063L402.691 483.94L356.388 508.542L358.489 508.71L404.915 484.063Z" fill="#DEC4A0"/>
<path d="M540.959 500.029L543.167 499.692L510.1 486.271L507.707 486.548L540.959 500.029Z" fill="#DEC4A0"/>
<path d="M584.394 477.79L578.428 478.465L644.625 483.71L649.502 482.943L584.394 477.79Z" fill="#DEC4A0"/>
<path d="M1305.45 511.21L1303.34 511.256L1370.1 552.069L1372.22 552.008L1305.45 511.21Z" fill="#DEC4A0"/>
<path d="M1449.18 547.591V546.318L1371.33 509.4L1368.8 509.477L1449.18 547.591Z" fill="#DEC4A0"/>
<path d="M356.971 481.594L354.271 481.456L299.701 503.71L302.216 503.925L356.971 481.594Z" fill="#DEC4A0"/>
<path d="M230.559 497.821L234.424 498.158L318.949 479.646L314.593 479.416L230.559 497.821Z" fill="#DEC4A0"/>
<path d="M604.379 475.505L689.226 476.686L694.839 475.796V475.612L613.351 474.477L604.379 475.505Z" fill="#DEC4A0"/>
<path d="M1060.02 484.416L1298.17 493.143L1449.18 507.698V498.68L1292.54 482.621L1133.64 476.364L1133.46 484.416H1060.02Z" fill="#C191C7"/>
</g>
<defs>
<linearGradient id="paint0_linear_229_21" x1="403.694" y1="17" x2="515.791" y2="941.747" gradientUnits="userSpaceOnUse">
<stop stop-color="#7906D2"/>
<stop offset="0.145833" stop-color="#4020D2"/>
<stop offset="1" stop-color="#08D2D2"/>
</linearGradient>
<linearGradient id="paint1_linear_229_21" x1="403.694" y1="17" x2="515.791" y2="941.747" gradientUnits="userSpaceOnUse">
<stop stop-color="#7906D2"/>
<stop offset="0.145833" stop-color="#4020D2"/>
<stop offset="1" stop-color="#08D2D2"/>
</linearGradient>
<linearGradient id="paint2_linear_229_21" x1="672.007" y1="-118.254" x2="672.007" y2="843.778" gradientUnits="userSpaceOnUse">
<stop stop-color="#32D7CD"/>
<stop offset="0.00751482" stop-color="#34D7CD"/>
<stop offset="0.2077" stop-color="#70E3CE"/>
<stop offset="0.4004" stop-color="#A2EDCE"/>
<stop offset="0.5808" stop-color="#C8F5CE"/>
<stop offset="0.7461" stop-color="#E4FACF"/>
<stop offset="0.8911" stop-color="#F5FECF"/>
<stop offset="1" stop-color="#FBFFCF"/>
</linearGradient>
<linearGradient id="paint3_linear_229_21" x1="162.194" y1="69.6447" x2="162.194" y2="537.579" gradientUnits="userSpaceOnUse">
<stop stop-color="#48D1BA"/>
<stop offset="0.2037" stop-color="#64D5B7"/>
<stop offset="0.64" stop-color="#AAE0AE"/>
<stop offset="1" stop-color="#E9EAA7"/>
</linearGradient>
<linearGradient id="paint4_linear_229_21" x1="49.348" y1="361.69" x2="40.7329" y2="584.899" gradientUnits="userSpaceOnUse">
<stop stop-color="#48D1BA"/>
<stop offset="0.2037" stop-color="#64D5B7"/>
<stop offset="0.64" stop-color="#AAE0AE"/>
<stop offset="1" stop-color="#E9EAA7"/>
</linearGradient>
<linearGradient id="paint5_linear_229_21" x1="733.507" y1="383.565" x2="765.226" y2="683.135" gradientUnits="userSpaceOnUse">
<stop offset="0.0548" stop-color="#E8E2C3"/>
<stop offset="0.2617" stop-color="#E8CFA5"/>
<stop offset="0.2785" stop-color="#E8CDA2"/>
<stop offset="0.3737" stop-color="#C7B599"/>
<stop offset="0.503" stop-color="#A2998E"/>
<stop offset="0.632" stop-color="#848385"/>
<stop offset="0.7589" stop-color="#6F747F"/>
<stop offset="0.8827" stop-color="#626A7B"/>
<stop offset="1" stop-color="#5E677A"/>
</linearGradient>
<linearGradient id="paint6_linear_229_21" x1="-32.1874" y1="424.913" x2="-24.3553" y2="877.597" gradientUnits="userSpaceOnUse">
<stop offset="0.1006" stop-color="#BBC63F"/>
<stop offset="0.2654" stop-color="#A3B540"/>
<stop offset="0.5894" stop-color="#7B9743"/>
<stop offset="0.8455" stop-color="#618444"/>
<stop offset="1" stop-color="#587D45"/>
</linearGradient>
</defs>
</svg>
