<svg width="48" height="48" viewBox="0 0 48 48" fill="none" xmlns="http://www.w3.org/2000/svg">
<g filter="url(#filter0_b_1_1585)">
<circle cx="24" cy="24" r="24" fill="#FED8FF" fill-opacity="0.2"/>
</g>
<path d="M19.5538 27.4579V32.1933C19.5538 33.5034 18.487 34.561 17.1654 34.561C15.8437 34.561 14.7769 33.5034 14.7769 32.1933V27.4579C14.7769 27.0159 15.1272 26.6687 15.5731 26.6687H18.7577C19.2036 26.6687 19.5538 27.0159 19.5538 27.4579Z" fill="#57555C"/>
<path d="M13.9808 20.231H13.1846C11.4331 20.231 10 21.6796 10 23.4502C10 25.2207 11.4331 26.6694 13.1846 26.6694H13.9808C14.4267 26.6694 14.7769 26.3152 14.7769 25.8646V21.0358C14.7769 20.585 14.4267 20.231 13.9808 20.231Z" fill="#7A7780"/>
<path d="M14.7769 23.5542V25.8907C14.7769 26.3268 14.4267 26.6696 13.9808 26.6696H13.1846C11.4331 26.6696 10 25.2676 10 23.5542H14.7769Z" fill="#57555C"/>
<path d="M36.2108 25.008H33.8431C33.4069 25.008 33.0539 24.6829 33.0539 24.2811C33.0539 23.8793 33.4069 23.5542 33.8431 23.5542H36.2108C36.647 23.5542 37 23.8793 37 24.2811C37 24.6829 36.647 25.008 36.2108 25.008Z" fill="#1DE8F1"/>
<path d="M34.009 29.5559L32.4512 27.9982C32.147 27.694 32.147 27.2011 32.4512 26.8969C32.7555 26.5926 33.2484 26.5926 33.5526 26.8969L35.1103 28.4545C35.4145 28.7588 35.4145 29.2517 35.1103 29.5559C34.806 29.8601 34.3132 29.8601 34.009 29.5559Z" fill="#1BD9DE"/>
<path d="M32.4512 21.664C32.147 21.3598 32.147 20.8669 32.4512 20.5627L34.009 19.005C34.3132 18.7008 34.8061 18.7008 35.1103 19.005C35.4145 19.3092 35.4145 19.8021 35.1103 20.1064L33.5526 21.664C33.2483 21.9683 32.7555 21.9683 32.4512 21.664Z" fill="#1DE8F1"/>
<path d="M21.0077 19.573V26.9772L19.4292 28.3307H15.4831C14.457 28.3307 13.5731 27.6619 13.2575 26.7384C13.1628 26.4836 13.1154 26.2288 13.1154 25.9422V21.1653C13.1154 19.8436 14.1729 18.7769 15.4831 18.7769H19.4292L21.0077 19.573Z" fill="#FF507E"/>
<path d="M21.0077 23.5542V26.9776L19.4292 28.3311H15.4831C14.457 28.3311 13.5731 27.6623 13.2575 26.7388C13.1628 26.484 13.1154 26.2293 13.1154 25.9427V23.5542H21.0077Z" fill="#F40F78"/>
<path d="M29.1076 15.6242V31.4832C29.1076 31.8004 28.9187 32.0858 28.6195 32.2126C28.336 32.3396 27.9895 32.2761 27.7691 32.0382L26.8399 31.1184C25.5486 29.818 22.1679 28.3114 20.3412 28.3114H19.5538V18.796H20.3412C22.1679 18.796 25.5486 17.2894 26.8399 15.9889L27.7691 15.069C27.9895 14.8312 28.3202 14.7677 28.6195 14.8946C28.9187 15.0215 29.1076 15.307 29.1076 15.6242Z" fill="#E1E4FB"/>
<path d="M29.1076 23.5542V31.4837C29.1076 31.8009 28.9187 32.0864 28.6195 32.2132C28.336 32.3401 27.9895 32.2767 27.7691 32.0387L26.8399 31.1189C25.5486 29.8185 22.1679 28.3119 20.3412 28.3119H19.5538V23.5542H29.1076Z" fill="#C5C9F7"/>
<path d="M30.7692 15.575V31.325C30.7692 32.1912 30.0215 32.9 29.1077 32.9C28.1939 32.9 27.4462 32.1912 27.4462 31.325V15.575C27.4462 14.7087 28.1939 14 29.1077 14C30.0215 14 30.7692 14.7087 30.7692 15.575Z" fill="#FF507E"/>
<path d="M30.7692 23.5542V31.3427C30.7692 32.1994 30.0215 32.9003 29.1077 32.9003C28.1939 32.9003 27.4462 32.1994 27.4462 31.3427V23.5542H30.7692Z" fill="#F40F78"/>
<path d="M33.8431 25.0078H36.2108C36.647 25.0078 37 24.7292 37 24.3848H33.0539C33.0539 24.7292 33.4069 25.0078 33.8431 25.0078Z" fill="#1BD9DE"/>
<defs>
<filter id="filter0_b_1_1585" x="-4" y="-4" width="56" height="56" filterUnits="userSpaceOnUse" color-interpolation-filters="sRGB">
<feFlood flood-opacity="0" result="BackgroundImageFix"/>
<feGaussianBlur in="BackgroundImageFix" stdDeviation="2"/>
<feComposite in2="SourceAlpha" operator="in" result="effect1_backgroundBlur_1_1585"/>
<feBlend mode="normal" in="SourceGraphic" in2="effect1_backgroundBlur_1_1585" result="shape"/>
</filter>
</defs>
</svg>
