<svg width="331" height="28" viewBox="0 0 331 28" fill="none" xmlns="http://www.w3.org/2000/svg">
<path d="M0 27.7017V2.0506H12.9225C14.6152 2.0506 15.9795 2.23702 17.0153 2.60985C18.0764 2.95783 18.8722 3.49223 19.4027 4.21305C19.9585 4.90901 20.3249 5.77896 20.5017 6.8229C20.7038 7.84199 20.8049 9.01021 20.8049 10.3276C20.8049 11.2969 20.7291 12.2787 20.5775 13.273C20.4259 14.2423 20.0975 15.1371 19.5922 15.9574C19.1122 16.7528 18.3669 17.3617 17.3563 17.7843L21.2975 27.7017H14.4384L10.7624 17.4487L12.4299 18.3435C12.2025 18.4678 11.9625 18.5424 11.7098 18.5672C11.4825 18.5921 11.1919 18.6045 10.8382 18.6045H6.59389V27.7017H0ZM6.59389 13.7949H10.3835C11.2425 13.7949 11.9246 13.7577 12.4299 13.6831C12.9604 13.5837 13.352 13.4097 13.6046 13.1611C13.8573 12.9126 14.0215 12.5646 14.0973 12.1172C14.1731 11.6698 14.211 11.0981 14.211 10.4021C14.211 9.68131 14.1731 9.0972 14.0973 8.6498C14.0468 8.2024 13.8952 7.86684 13.6425 7.64314C13.4152 7.39458 13.0362 7.22059 12.5057 7.12117C12.0004 7.02175 11.293 6.97204 10.3835 6.97204H6.59389V13.7949Z" fill="#D6C2FF"/>
<path d="M34.1395 28C32.3205 28 30.8173 27.8881 29.6299 27.6644C28.4425 27.4407 27.4951 27.0928 26.7877 26.6205C26.1056 26.1234 25.5877 25.4896 25.234 24.719C24.9055 23.9485 24.6908 23.0288 24.5897 21.9601C24.5139 20.8913 24.476 19.6485 24.476 18.2317C24.476 16.5166 24.5518 15.0377 24.7034 13.7949C24.8803 12.5522 25.2592 11.5331 25.8403 10.7377C26.4214 9.9423 27.3182 9.35819 28.5309 8.98535C29.7688 8.58766 31.4363 8.38881 33.5332 8.38881C35.2259 8.38881 36.6027 8.51309 37.6638 8.76165C38.7249 8.98535 39.5586 9.34576 40.165 9.84287C40.7966 10.3151 41.2387 10.9365 41.4913 11.7071C41.7692 12.4776 41.9461 13.4097 42.0219 14.5033C42.0976 15.5721 42.1355 16.8149 42.1355 18.2317V19.6858H30.5015C30.5015 20.5308 30.5394 21.2144 30.6152 21.7363C30.691 22.2335 30.8931 22.6063 31.2215 22.8549C31.5499 23.1034 32.0552 23.2774 32.7374 23.3768C33.4195 23.4514 34.3669 23.4887 35.5795 23.4887C36.0596 23.4887 36.628 23.4763 37.2849 23.4514C37.9417 23.4265 38.6239 23.3893 39.3312 23.3395C40.0639 23.2898 40.746 23.2401 41.3776 23.1904V27.3662C40.8218 27.4905 40.1397 27.6023 39.3312 27.7017C38.5481 27.8012 37.7017 27.8757 36.7922 27.9254C35.8827 27.9751 34.9985 28 34.1395 28ZM36.4133 17.1877V16.5912C36.4133 15.6964 36.3627 14.988 36.2617 14.466C36.1859 13.9441 36.0343 13.5588 35.8069 13.3103C35.6048 13.0368 35.3143 12.8628 34.9353 12.7883C34.5564 12.7137 34.0763 12.6764 33.4953 12.6764C32.8384 12.6764 32.3079 12.7261 31.9036 12.8256C31.5247 12.9001 31.2341 13.0741 31.032 13.3475C30.8299 13.6209 30.691 14.0186 30.6152 14.5406C30.5394 15.0626 30.5015 15.7461 30.5015 16.5912H37.0575L36.4133 17.1877Z" fill="#D6C2FF"/>
<path d="M49.4737 27.7017L44.5473 8.68708H50.6106L53.377 21.6991H53.7181L57.0908 8.68708H62.6994L66.1101 21.6991H66.489L69.1796 8.68708H75.0914L70.1649 27.7017H62.6994L60.0088 17.747H59.6298L56.9771 27.7017H49.4737Z" fill="#D6C2FF"/>
<path d="M82.4814 28C81.2687 28 80.2455 27.8136 79.4118 27.4407C78.5781 27.0679 77.9465 26.4589 77.517 25.6138C77.1128 24.7688 76.9107 23.6627 76.9107 22.2956C76.9107 20.854 77.0749 19.7106 77.4033 18.8655C77.757 17.9956 78.376 17.3742 79.2602 17.0013C80.1445 16.6285 81.395 16.4421 83.0119 16.4421C83.2393 16.4421 83.5551 16.4545 83.9593 16.4794C84.3888 16.4794 84.8688 16.4918 85.3994 16.5166C85.9299 16.5166 86.4605 16.5291 86.991 16.5539C87.5215 16.5539 88.0016 16.5664 88.4311 16.5912V15.8828C88.4311 15.162 88.3679 14.6027 88.2416 14.2051C88.1405 13.8074 87.9258 13.5215 87.5973 13.3475C87.2942 13.1487 86.8268 13.0368 86.1952 13.012C85.5636 12.9623 84.7299 12.9374 83.6941 12.9374C83.113 12.9374 82.4688 12.9498 81.7614 12.9747C81.0792 12.9996 80.3971 13.0368 79.715 13.0865C79.0581 13.1114 78.5023 13.1487 78.0476 13.1984V8.98535C79.0834 8.81136 80.2455 8.67466 81.534 8.57523C82.8477 8.45095 84.2246 8.38881 85.6646 8.38881C87.2815 8.38881 88.6205 8.48824 89.6816 8.68708C90.768 8.88593 91.6396 9.19663 92.2964 9.61917C92.9533 10.0169 93.4333 10.5264 93.7365 11.1478C94.0649 11.7692 94.2797 12.5024 94.3807 13.3475C94.4818 14.1926 94.5323 15.1496 94.5323 16.2184V27.7017H88.6963L88.5447 25.4647H88.2416C87.7616 26.2104 87.2057 26.7696 86.5742 27.1425C85.9426 27.5153 85.2731 27.7514 84.5657 27.8509C83.8583 27.9503 83.1635 28 82.4814 28ZM85.3615 23.7497C85.8162 23.7497 86.2078 23.7248 86.5363 23.6751C86.89 23.6005 87.1805 23.4887 87.4079 23.3395C87.6605 23.1656 87.8626 22.9543 88.0142 22.7057C88.1405 22.4323 88.2416 22.0968 88.3174 21.6991C88.3932 21.3014 88.4311 20.8291 88.4311 20.2823V19.5739H84.9067C84.2751 19.5739 83.7951 19.6236 83.4667 19.723C83.1383 19.7976 82.9109 19.9964 82.7846 20.3196C82.6835 20.6178 82.633 21.0901 82.633 21.7363C82.633 22.2832 82.6961 22.7057 82.8225 23.004C82.9488 23.3023 83.2014 23.5011 83.5804 23.6005C83.9846 23.7 84.5783 23.7497 85.3615 23.7497Z" fill="#D6C2FF"/>
<path d="M99.2468 27.7017V8.68708H105.007L105.159 11.9308H105.5C105.853 11.0111 106.295 10.2903 106.826 9.76831C107.382 9.24634 108.051 8.88593 108.834 8.68708C109.618 8.48824 110.527 8.38881 111.563 8.38881V13.8695C109.971 13.8695 108.721 14.0684 107.811 14.466C106.902 14.8637 106.258 15.5473 105.879 16.5166C105.5 17.4612 105.31 18.7909 105.31 20.506V27.7017H99.2468Z" fill="#D6C2FF"/>
<path d="M120.289 28C119.178 28 118.218 27.8509 117.409 27.5526C116.601 27.2543 115.944 26.7448 115.439 26.024C114.933 25.2783 114.554 24.2716 114.302 23.004C114.074 21.7364 113.961 20.1456 113.961 18.2317C113.961 16.3427 114.074 14.7643 114.302 13.4967C114.529 12.2042 114.896 11.1975 115.401 10.4767C115.906 9.73102 116.55 9.19663 117.334 8.8735C118.142 8.55038 119.115 8.38881 120.252 8.38881C121.009 8.38881 121.717 8.45095 122.374 8.57523C123.056 8.69951 123.675 8.92321 124.231 9.24634C124.786 9.56946 125.266 10.0541 125.671 10.7004H125.974V0H132.075V27.7017H126.277L126.125 25.4274H125.822C125.443 26.1482 124.951 26.6951 124.344 27.0679C123.763 27.4159 123.119 27.652 122.412 27.7763C121.729 27.9254 121.022 28 120.289 28ZM123.018 23.0786C123.801 23.0786 124.382 22.9916 124.761 22.8176C125.165 22.6187 125.456 22.2707 125.633 21.7736C125.784 21.3262 125.873 20.8167 125.898 20.245C125.949 19.6485 125.974 18.9649 125.974 18.1944C125.974 17.4239 125.949 16.7528 125.898 16.1811C125.873 15.6094 125.784 15.1247 125.633 14.727C125.481 14.1802 125.203 13.8074 124.799 13.6085C124.395 13.4097 123.801 13.3103 123.018 13.3103C122.336 13.3103 121.793 13.36 121.388 13.4594C120.984 13.5588 120.681 13.7701 120.479 14.0932C120.302 14.3915 120.188 14.8637 120.138 15.51C120.087 16.1562 120.062 17.051 120.062 18.1944C120.062 19.3378 120.087 20.245 120.138 20.9161C120.188 21.5624 120.302 22.047 120.479 22.3702C120.681 22.6684 120.984 22.8673 121.388 22.9667C121.793 23.0413 122.336 23.0786 123.018 23.0786Z" fill="#D6C2FF"/>
<path d="M144.276 28C143.468 28 142.583 27.9751 141.623 27.9254C140.689 27.8757 139.766 27.8136 138.857 27.739C137.973 27.6644 137.177 27.5774 136.469 27.478V23.265C136.874 23.2898 137.328 23.3271 137.834 23.3768C138.364 23.4265 138.907 23.4638 139.463 23.4887C140.019 23.5135 140.55 23.5384 141.055 23.5632C141.585 23.5632 142.065 23.5632 142.495 23.5632C143.682 23.5632 144.529 23.526 145.034 23.4514C145.565 23.3768 145.893 23.2277 146.019 23.004C146.171 22.7554 146.247 22.4323 146.247 22.0346C146.247 21.6369 146.196 21.3511 146.095 21.1771C146.019 21.0031 145.842 20.8788 145.565 20.8043C145.312 20.7297 144.87 20.6551 144.238 20.5806L139.729 20.0213C138.642 19.8722 137.821 19.5615 137.265 19.0892C136.71 18.5921 136.331 17.9334 136.128 17.1132C135.952 16.2681 135.863 15.2863 135.863 14.1678C135.863 12.8504 136.065 11.8189 136.469 11.0732C136.874 10.3027 137.43 9.73102 138.137 9.35819C138.87 8.9605 139.729 8.69951 140.714 8.57523C141.724 8.45095 142.798 8.38881 143.935 8.38881C144.743 8.38881 145.577 8.41367 146.436 8.46338C147.295 8.51309 148.116 8.58766 148.899 8.68708C149.683 8.76165 150.327 8.84865 150.832 8.94807V13.1238C150.2 13.0741 149.531 13.0244 148.824 12.9747C148.141 12.925 147.485 12.8877 146.853 12.8628C146.221 12.838 145.691 12.8256 145.261 12.8256C144.251 12.8256 143.468 12.8504 142.912 12.9001C142.381 12.9498 142.015 13.0741 141.813 13.273C141.636 13.4718 141.548 13.7949 141.548 14.2423C141.548 14.5903 141.573 14.8637 141.623 15.0626C141.699 15.2366 141.863 15.3609 142.116 15.4354C142.369 15.51 142.76 15.5846 143.291 15.6591L147.838 16.2184C148.697 16.3178 149.43 16.5166 150.036 16.8149C150.643 17.1132 151.097 17.6476 151.4 18.4181C151.729 19.1886 151.893 20.3444 151.893 21.8855C151.893 23.2774 151.704 24.3835 151.325 25.2037C150.971 25.9991 150.453 26.6081 149.771 27.0306C149.089 27.4283 148.28 27.6893 147.346 27.8136C146.436 27.9379 145.413 28 144.276 28Z" fill="#D6C2FF"/>
<path d="M176.637 28C174.565 28 172.822 27.8881 171.407 27.6644C169.992 27.4159 168.843 27.0803 167.958 26.6578C167.074 26.2104 166.392 25.6884 165.912 25.0919C165.457 24.4953 165.141 23.8367 164.965 23.1158C164.813 22.395 164.737 21.6369 164.737 20.8415C164.737 19.4496 164.914 18.356 165.268 17.5606C165.647 16.7403 166.19 16.119 166.897 15.6964C167.605 15.249 168.464 14.9134 169.474 14.6897V14.5406C167.958 14.1926 166.821 13.5712 166.064 12.6764C165.331 11.7568 164.965 10.3648 164.965 8.50066C164.965 7.55615 165.129 6.67377 165.457 5.85353C165.786 5.03329 166.367 4.3249 167.2 3.72836C168.059 3.10697 169.247 2.62228 170.763 2.2743C172.278 1.92632 174.224 1.75233 176.599 1.75233C177.508 1.75233 178.519 1.78961 179.63 1.86418C180.742 1.93875 181.841 2.03817 182.927 2.16245C184.014 2.28673 184.986 2.43586 185.845 2.60985V6.93475C185.037 6.83533 184.14 6.74833 183.155 6.67377C182.195 6.5992 181.235 6.53706 180.275 6.48735C179.34 6.43764 178.481 6.41278 177.698 6.41278C176.283 6.41278 175.146 6.46249 174.287 6.56192C173.428 6.63648 172.771 6.78562 172.316 7.00932C171.887 7.23302 171.596 7.55615 171.445 7.97869C171.318 8.37639 171.255 8.88593 171.255 9.50732C171.255 10.0293 171.293 10.4891 171.369 10.8868C171.445 11.2597 171.596 11.5703 171.824 11.8189C172.076 12.0426 172.43 12.2166 172.885 12.3409C173.365 12.4403 174.009 12.49 174.818 12.49H176.978V17.0386H174.818C174.009 17.0386 173.352 17.0883 172.847 17.1877C172.367 17.2623 171.988 17.4239 171.71 17.6724C171.457 17.8961 171.281 18.2193 171.18 18.6418C171.078 19.0395 171.028 19.5615 171.028 20.2077C171.028 21.1274 171.192 21.8109 171.521 22.2583C171.874 22.7057 172.455 23.004 173.264 23.1531C174.097 23.3023 175.222 23.3768 176.637 23.3768C177.167 23.3768 177.672 23.3768 178.152 23.3768C178.658 23.352 179.163 23.3271 179.668 23.3023C180.173 23.2526 180.679 23.2028 181.184 23.1531L179.858 25.1292V12.49H190.014V17.0386H185.997V27.1798C185.113 27.3289 184.115 27.4656 183.003 27.5899C181.891 27.7142 180.78 27.8136 179.668 27.8881C178.582 27.9627 177.571 28 176.637 28Z" fill="#D6C2FF"/>
<path d="M203.136 27.7017V2.0506H216.058C217.751 2.0506 219.115 2.23702 220.151 2.60985C221.212 2.95783 222.008 3.49223 222.538 4.21305C223.094 4.90901 223.46 5.77896 223.637 6.8229C223.839 7.84199 223.94 9.01021 223.94 10.3276C223.94 11.2969 223.865 12.2787 223.713 13.273C223.561 14.2423 223.233 15.1371 222.728 15.9574C222.248 16.7528 221.502 17.3617 220.492 17.7843L224.433 27.7017H217.574L213.898 17.4487L215.565 18.3435C215.338 18.4678 215.098 18.5424 214.845 18.5672C214.618 18.5921 214.327 18.6045 213.974 18.6045H209.729V27.7017H203.136ZM209.729 13.7949H213.519C214.378 13.7949 215.06 13.7577 215.565 13.6831C216.096 13.5837 216.488 13.4097 216.74 13.1611C216.993 12.9126 217.157 12.5646 217.233 12.1172C217.309 11.6698 217.347 11.0981 217.347 10.4021C217.347 9.68131 217.309 9.0972 217.233 8.6498C217.182 8.2024 217.031 7.86684 216.778 7.64314C216.551 7.39458 216.172 7.22059 215.641 7.12117C215.136 7.02175 214.429 6.97204 213.519 6.97204H209.729V13.7949Z" fill="#D6C2FF"/>
<path d="M237.275 28C235.456 28 233.953 27.8881 232.765 27.6644C231.578 27.4407 230.631 27.0928 229.923 26.6205C229.241 26.1234 228.723 25.4896 228.369 24.719C228.041 23.9485 227.826 23.0288 227.725 21.9601C227.649 20.8913 227.612 19.6485 227.612 18.2317C227.612 16.5166 227.687 15.0377 227.839 13.7949C228.016 12.5522 228.395 11.5331 228.976 10.7377C229.557 9.9423 230.454 9.35819 231.666 8.98535C232.904 8.58766 234.572 8.38881 236.669 8.38881C238.361 8.38881 239.738 8.51309 240.799 8.76165C241.86 8.98535 242.694 9.34576 243.301 9.84287C243.932 10.3151 244.374 10.9365 244.627 11.7071C244.905 12.4776 245.082 13.4097 245.157 14.5033C245.233 15.5721 245.271 16.8149 245.271 18.2317V19.6858H233.637C233.637 20.5308 233.675 21.2144 233.751 21.7363C233.827 22.2335 234.029 22.6063 234.357 22.8549C234.686 23.1034 235.191 23.2774 235.873 23.3768C236.555 23.4514 237.502 23.4887 238.715 23.4887C239.195 23.4887 239.764 23.4763 240.42 23.4514C241.077 23.4265 241.759 23.3893 242.467 23.3395C243.199 23.2898 243.882 23.2401 244.513 23.1904V27.3662C243.957 27.4905 243.275 27.6023 242.467 27.7017C241.684 27.8012 240.837 27.8757 239.928 27.9254C239.018 27.9751 238.134 28 237.275 28ZM239.549 17.1877V16.5912C239.549 15.6964 239.498 14.988 239.397 14.466C239.321 13.9441 239.17 13.5588 238.942 13.3103C238.74 13.0368 238.45 12.8628 238.071 12.7883C237.692 12.7137 237.212 12.6764 236.631 12.6764C235.974 12.6764 235.443 12.7261 235.039 12.8256C234.66 12.9001 234.37 13.0741 234.168 13.3475C233.965 13.6209 233.827 14.0186 233.751 14.5406C233.675 15.0626 233.637 15.7461 233.637 16.5912H240.193L239.549 17.1877Z" fill="#D6C2FF"/>
<path d="M253.329 27.7017L247.493 8.68708H253.708L257.308 22.3702H257.687L261.174 8.68708H267.313L261.515 27.7017H253.329Z" fill="#D6C2FF"/>
<path d="M270.11 4.80959V0H276.363V4.80959H270.11ZM270.186 27.7017V8.68708H276.325V27.7017H270.186Z" fill="#D6C2FF"/>
<path d="M290.048 28C288.229 28 286.726 27.8881 285.538 27.6644C284.351 27.4407 283.404 27.0928 282.696 26.6205C282.014 26.1234 281.496 25.4896 281.143 24.719C280.814 23.9485 280.599 23.0288 280.498 21.9601C280.423 20.8913 280.385 19.6485 280.385 18.2317C280.385 16.5166 280.46 15.0377 280.612 13.7949C280.789 12.5522 281.168 11.5331 281.749 10.7377C282.33 9.9423 283.227 9.35819 284.439 8.98535C285.677 8.58766 287.345 8.38881 289.442 8.38881C291.134 8.38881 292.511 8.51309 293.572 8.76165C294.633 8.98535 295.467 9.34576 296.074 9.84287C296.705 10.3151 297.147 10.9365 297.4 11.7071C297.678 12.4776 297.855 13.4097 297.93 14.5033C298.006 15.5721 298.044 16.8149 298.044 18.2317V19.6858H286.41C286.41 20.5308 286.448 21.2144 286.524 21.7363C286.6 22.2335 286.802 22.6063 287.13 22.8549C287.459 23.1034 287.964 23.2774 288.646 23.3768C289.328 23.4514 290.275 23.4887 291.488 23.4887C291.968 23.4887 292.537 23.4763 293.193 23.4514C293.85 23.4265 294.532 23.3893 295.24 23.3395C295.973 23.2898 296.655 23.2401 297.286 23.1904V27.3662C296.73 27.4905 296.048 27.6023 295.24 27.7017C294.457 27.8012 293.61 27.8757 292.701 27.9254C291.791 27.9751 290.907 28 290.048 28ZM292.322 17.1877V16.5912C292.322 15.6964 292.271 14.988 292.17 14.466C292.094 13.9441 291.943 13.5588 291.716 13.3103C291.513 13.0368 291.223 12.8628 290.844 12.7883C290.465 12.7137 289.985 12.6764 289.404 12.6764C288.747 12.6764 288.216 12.7261 287.812 12.8256C287.433 12.9001 287.143 13.0741 286.941 13.3475C286.739 13.6209 286.6 14.0186 286.524 14.5406C286.448 15.0626 286.41 15.7461 286.41 16.5912H292.966L292.322 17.1877Z" fill="#D6C2FF"/>
<path d="M305.382 27.7017L300.456 8.68708H306.519L309.286 21.6991H309.627L312.999 8.68708H318.608L322.019 21.6991H322.398L325.088 8.68708H331L326.074 27.7017H318.608L315.917 17.747H315.538L312.886 27.7017H305.382Z" fill="#D6C2FF"/>
</svg>
