<svg width="72" height="72" viewBox="0 0 72 72" fill="none" xmlns="http://www.w3.org/2000/svg">
<g id="Group 98" filter="url(#filter0_d_1_3210)">
<path id="Vector" d="M56 64H16C9.372 64 4 58.628 4 52V12C4 5.372 9.372 0 16 0H56C62.628 0 68 5.372 68 12V52C68 58.628 62.628 64 56 64Z" fill="#FFE6E2"/>
<path id="Vector_2" d="M36 26.666C33.06 26.666 30.666 24.274 30.666 21.332C30.666 18.39 33.06 16 36 16C38.94 16 41.334 18.392 41.334 21.334C41.334 24.276 38.94 26.666 36 26.666Z" fill="#FC573B"/>
<path id="Vector_3" d="M40.666 28H31.332C27.946 28 25.186 30.666 25.012 34H46.986C46.814 30.666 44.054 28 40.666 28Z" fill="#FC573B"/>
<g id="Group">
<path id="Vector_4" d="M41.6661 48H30.3321C29.8381 48 29.4181 47.64 29.3441 47.152L28.0101 38.486C27.9661 38.196 28.0501 37.904 28.2401 37.682C28.4301 37.46 28.7081 37.334 29.0001 37.334H43.0001C43.2921 37.334 43.5701 37.462 43.7601 37.682C43.9501 37.904 44.0341 38.196 43.9901 38.486L42.6561 47.152C42.5801 47.64 42.1601 48 41.6661 48Z" fill="#FD907E"/>
<path id="Vector_5" d="M51.82 33.76C51.634 33.494 51.328 33.334 51 33.334H50.956C50.744 30.378 49.154 27.642 46.666 25.988C46.658 24.888 45.766 24 44.666 24C43.562 24 42.666 24.896 42.666 26C42.666 27.104 43.562 28 44.666 28C45.032 28 45.37 27.894 45.664 27.724C47.54 29.016 48.752 31.088 48.956 33.334H21C20.674 33.334 20.368 33.492 20.18 33.76C19.992 34.028 19.948 34.37 20.058 34.676L22.724 42.01C22.868 42.406 23.244 42.668 23.664 42.668H25.954L25.374 38.892C25.212 37.832 25.518 36.758 26.216 35.946C26.914 35.134 27.928 34.668 28.998 34.668H42.998C44.068 34.668 45.082 35.134 45.78 35.946C46.478 36.758 46.784 37.832 46.622 38.89L46.04 42.668H48.33C48.75 42.668 49.126 42.404 49.27 42.01L51.936 34.676C52.052 34.368 52.006 34.028 51.82 33.76Z" fill="#FD907E"/>
</g>
</g>
<defs>
<filter id="filter0_d_1_3210" x="0" y="0" width="72" height="72" filterUnits="userSpaceOnUse" color-interpolation-filters="sRGB">
<feFlood flood-opacity="0" result="BackgroundImageFix"/>
<feColorMatrix in="SourceAlpha" type="matrix" values="0 0 0 0 0 0 0 0 0 0 0 0 0 0 0 0 0 0 127 0" result="hardAlpha"/>
<feOffset dy="4"/>
<feGaussianBlur stdDeviation="2"/>
<feColorMatrix type="matrix" values="0 0 0 0 1 0 0 0 0 0.901961 0 0 0 0 0.886275 0 0 0 0.2 0"/>
<feBlend mode="normal" in2="BackgroundImageFix" result="effect1_dropShadow_1_3210"/>
<feBlend mode="normal" in="SourceGraphic" in2="effect1_dropShadow_1_3210" result="shape"/>
</filter>
</defs>
</svg>
