<svg width="64" height="64" viewBox="0 0 64 64" fill="none" xmlns="http://www.w3.org/2000/svg">
<g id="Group 106">
<rect id="Rectangle 88" width="64" height="64" rx="12" fill="white"/>
<g id="Group">
<path id="Vector" d="M42.4601 16.2374V46.954C42.4601 48.7599 40.9906 50.2295 39.1847 50.2295H17.8577C16.0519 50.2295 14.5823 48.7599 14.5823 46.954V16.2374C14.5823 14.4315 16.0519 12.9619 17.8577 12.9619H39.1847C40.9906 12.9619 42.4601 14.4315 42.4601 16.2374Z" fill="#EEF4FF"/>
<path id="Vector_2" d="M42.4601 16.2374V46.954C42.4601 48.7599 40.9905 50.2295 39.1846 50.2295H28.5576V12.9619H39.1846C40.9905 12.9619 42.4601 14.4315 42.4601 16.2374Z" fill="#D9E6FC"/>
<path id="Vector_3" d="M37.8017 21.1143C37.8017 21.717 37.3125 22.2061 36.7099 22.2061H20.4053C19.8026 22.2061 19.3135 21.717 19.3135 21.1143C19.3135 20.5116 19.8026 20.0225 20.4053 20.0225H36.7099C37.3125 20.0225 37.8017 20.5116 37.8017 21.1143Z" fill="#425796"/>
<path id="Vector_4" d="M37.8016 21.1143C37.8016 21.717 37.3125 22.2061 36.7098 22.2061H28.4847V20.0225H36.7098C37.3125 20.0225 37.8016 20.5116 37.8016 21.1143Z" fill="#283758"/>
<path id="Vector_5" d="M34.3078 26.9373C34.3078 27.54 33.8187 28.0291 33.216 28.0291H20.4053C19.8026 28.0291 19.3135 27.54 19.3135 26.9373C19.3135 26.3346 19.8026 25.8455 20.4053 25.8455H33.216C33.8187 25.8455 34.3078 26.3346 34.3078 26.9373Z" fill="#425796"/>
<path id="Vector_6" d="M34.3078 26.9373C34.3078 27.54 33.8187 28.0291 33.216 28.0291H28.4847V25.8455H33.216C33.8187 25.8455 34.3078 26.3346 34.3078 26.9373Z" fill="#283758"/>
<path id="Vector_7" d="M30.814 32.7603C30.814 33.363 30.3249 33.8521 29.7222 33.8521H20.4053C19.8026 33.8521 19.3135 33.363 19.3135 32.7603C19.3135 32.1576 19.8026 31.6685 20.4053 31.6685H29.7222C30.3249 31.6685 30.814 32.1576 30.814 32.7603Z" fill="#425796"/>
<path id="Vector_8" d="M30.814 32.7603C30.814 33.363 30.3248 33.8521 29.7221 33.8521H28.4847V31.6685H29.7221C30.3248 31.6685 30.814 32.1576 30.814 32.7603Z" fill="#283758"/>
<path id="Vector_9" d="M51.547 29.2147C51.4109 29.4447 50.956 29.912 47.9076 32.9204C46.141 34.6637 43.5032 37.2615 39.5522 41.1615C39.3623 41.35 39.7917 41.12 33.0705 44.2564C32.1424 44.691 31.1918 43.7207 31.6191 42.805C34.7606 36.0743 34.5248 36.511 34.7191 36.3189C38.6569 32.381 41.273 29.7636 43.0119 28.0246C46.3914 24.6436 46.4577 24.5796 46.4657 24.5883C47.3413 23.8808 48.5998 23.9507 49.3874 24.7383C51.3599 26.7108 51.2646 26.6082 51.3599 26.7268C51.919 27.4081 52.0216 28.4046 51.547 29.2147Z" fill="#FFE278"/>
<path id="Vector_10" d="M51.547 29.2147C51.3323 29.5779 50.3205 30.5329 39.5522 41.1614C39.3623 41.3499 39.7917 41.1199 33.0705 44.2564C32.9227 44.3255 32.7647 44.359 32.609 44.359C32.3069 44.359 32.0434 44.2404 31.8513 44.0533L50.2776 25.6277C51.3301 26.6795 51.2813 26.6293 51.3599 26.7268C51.919 27.4081 52.0216 28.4046 51.547 29.2147Z" fill="#FFB454"/>
<path id="Vector_11" d="M51.547 29.2147C51.4109 29.4447 50.9559 29.912 47.9076 32.9204L47.9018 32.9153L45.4459 30.4594L43.0118 28.0261V28.0246C46.3914 24.6436 46.4576 24.5796 46.4656 24.5883C47.3413 23.8808 48.5998 23.9507 49.3874 24.7383C49.7491 25.1 50.041 25.3919 50.2776 25.6277C51.3315 26.681 51.282 26.63 51.3599 26.7268C51.9189 27.4081 52.0216 28.4046 51.547 29.2147Z" fill="#DD5958"/>
<path id="Vector_12" d="M51.547 29.2147C51.4109 29.4447 50.956 29.912 47.9076 32.9203L47.9018 32.9152L45.4459 30.4594L50.2776 25.6277C51.3316 26.6809 51.2821 26.63 51.36 26.7268C51.919 27.4081 52.0216 28.4046 51.547 29.2147Z" fill="#D8225B"/>
</g>
</g>
</svg>
