<svg width="1440" height="945" viewBox="0 0 1440 945" fill="none" xmlns="http://www.w3.org/2000/svg">
<path d="M1416 5.9684L1440 2.19211V945H0V30.3189L24 31.3606C48 32.2721 96 34.0952 144 31.3606C170.182 29.798 196.364 26.8407 222.545 23.8834C244.364 21.4189 266.182 18.9545 288 17.2972C315.294 15.1499 342.588 14.2236 369.882 13.2973C390.588 12.5946 411.294 11.8919 432 10.6561C448.478 9.71741 464.955 8.42574 481.433 7.13408C512.955 4.66306 544.478 2.19205 576 2.19205C611.2 2.19205 646.4 5.27328 681.6 8.3545C694.4 9.47495 707.2 10.5954 720 11.5677C768 15.344 816 17.2972 864 14.4325C888 13.0001 912 10.4283 936 7.85651C960 5.28473 984 2.71295 1008 1.28056C1056 -1.45399 1104 0.369051 1152 5.05686C1165.2 6.34601 1178.4 7.85181 1191.6 9.35761C1226.4 13.3274 1261.2 17.2973 1296 17.2973C1344 17.2973 1392 9.74469 1416 5.9684Z" fill="url(#paint0_linear_1_3231)"/>
<defs>
<linearGradient id="paint0_linear_1_3231" x1="875.5" y1="719.68" x2="875.5" y2="-10.6824" gradientUnits="userSpaceOnUse">
<stop stop-color="#FEF9F7"/>
<stop offset="1" stop-color="#EFF4F9"/>
</linearGradient>
</defs>
</svg>
