<svg width="544" height="432" viewBox="0 0 544 432" fill="none" xmlns="http://www.w3.org/2000/svg">
<g clip-path="url(#clip0_1_1779)">
<path d="M134.654 203.305V236.998C134.654 241.104 138.554 244.782 144.943 247.553C151.746 250.488 161.375 252.319 172.06 252.319C192.714 252.319 209.43 245.458 209.43 237.014V203.322H134.654V203.305Z" fill="#945915"/>
<path d="M134.654 203.305V236.998C134.654 241.104 138.554 244.782 144.943 247.553V213.86L142.908 204.921L141.136 203.322H134.654V203.305Z" fill="#874C12"/>
<path d="M134.654 203.305C134.654 207.412 138.554 211.089 144.943 213.86C151.746 216.796 161.375 218.626 172.06 218.626C192.714 218.626 209.43 211.766 209.43 203.322C209.43 202.53 209.279 201.739 208.996 200.963L204.775 189.254L196.408 191.712C189.869 189.403 181.351 188.001 172.042 188.001C164.315 188.001 157.117 188.957 151.162 190.623C149.956 190.936 148.787 191.299 147.675 191.695L139.12 189.733L135.106 200.947C134.804 201.706 134.654 202.481 134.654 203.305Z" fill="#FFCB24"/>
<path d="M134.654 203.305C134.654 207.412 138.554 211.089 144.943 213.86L150.973 192.751C150.973 192.751 151.086 191.86 151.162 190.64C149.956 190.953 148.787 191.316 147.675 191.712L139.12 189.749L135.106 200.963C134.804 201.706 134.654 202.481 134.654 203.305Z" fill="#F9B800"/>
<path d="M172.042 205.317C153.672 205.317 138.781 199.218 138.781 191.695C138.781 184.172 153.672 178.073 172.042 178.073C190.411 178.073 205.303 184.172 205.303 191.695C205.303 199.218 190.411 205.317 172.042 205.317Z" fill="#FFD357"/>
<path d="M172.173 190.458C177.375 190.458 181.615 186.764 181.615 182.196V147.662H162.751V182.196C162.751 186.764 166.972 190.458 172.173 190.458Z" fill="#FBC006"/>
<path d="M162.732 147.662V182.196C162.732 186.517 166.558 190.079 171.401 190.425C169.479 188.957 168.291 186.764 168.291 184.34V149.806H181.615V147.662H162.732Z" fill="#F7A500"/>
<path d="M116.016 64.1313V120.352C116.016 147.415 141.099 169.382 172.042 169.382C175.17 169.382 178.261 169.151 181.238 168.706C191.245 167.287 200.347 163.527 207.809 158.101C220.19 149.08 228.067 135.524 228.067 120.352V64.1313H116.016Z" fill="#FFCB24"/>
<path d="M181.257 168.705C191.263 167.287 200.365 163.527 207.828 158.101C215.592 149.707 220.209 139.004 220.209 127.361V71.1567H207.206V127.377C207.187 144.759 196.841 160.031 181.257 168.705Z" fill="#FFD96E"/>
<path d="M116.016 64.1313V120.352C116.016 144.05 135.219 163.824 160.754 168.392C146.488 159.52 137.216 144.941 137.216 128.449V72.2288H228.086V64.1313H116.016Z" fill="#F9B800"/>
<path d="M172.042 79.5346C141.089 79.5346 115.997 72.6383 115.997 64.1313C115.997 55.6243 141.089 48.728 172.042 48.728C202.994 48.728 228.086 55.6243 228.086 64.1313C228.086 72.6383 202.994 79.5346 172.042 79.5346Z" fill="#FFD96E"/>
<path d="M172.117 77.7534C143.444 77.7534 120.2 71.6545 120.2 64.1312C120.2 56.6079 143.444 50.509 172.117 50.509C200.79 50.509 224.034 56.6079 224.034 64.1312C224.034 71.6545 200.79 77.7534 172.117 77.7534Z" fill="#C5A600"/>
<path d="M172.042 223.244C171.571 223.244 171.099 223.244 170.609 223.227V239.092C171.081 239.109 171.552 239.109 172.042 239.109C186.477 239.109 199.009 235.761 205.227 230.846V214.981C199.009 219.896 186.477 223.244 172.042 223.244Z" fill="#FFCB24"/>
<path d="M260.537 125.794C260.518 126.932 262.855 127.855 265.738 127.872C268.621 127.888 270.958 126.998 270.977 125.86C270.996 124.738 268.659 123.798 265.776 123.782C262.892 123.765 260.555 124.656 260.537 125.794Z" fill="#ED8406"/>
<path d="M260.713 106.994L271.153 107.075L270.961 125.892L260.521 125.811L260.713 106.994Z" fill="#ED8406"/>
<path d="M260.725 106.977C260.706 108.098 263.043 109.038 265.926 109.055C268.809 109.071 271.146 108.181 271.165 107.043C271.184 105.921 268.847 104.981 265.964 104.965C263.081 104.948 260.744 105.855 260.725 106.977Z" fill="#FBC006"/>
<path d="M243.897 72.5422C243.897 72.5422 233.721 88.3743 230.762 92.959C227.803 97.5602 199.027 108.247 162.77 83.9875C146.3 73.1689 139.968 54.962 143.586 49.3218C147.204 43.6981 159.039 25.3098 159.039 25.3098L243.897 72.5422Z" fill="#205CE1"/>
<path d="M274.425 77.4565L176.527 80.458L130.319 7.61394L228.501 4.59595L274.425 77.4565Z" fill="#0A2982"/>
<path d="M132.75 3.8374L130.319 7.61402L135.709 10.2692L139.271 8.98283L132.75 3.8374Z" fill="#0A2982"/>
<path d="M276.838 73.6801L274.425 77.4567L267.038 71.3218L276.838 73.6801Z" fill="#0A2982"/>
<path d="M276.838 73.68L178.958 76.6815L132.75 3.83744L230.932 0.835938L276.838 73.68Z" fill="#205CE1"/>
<path d="M265.832 107.802C266.36 107.802 266.812 107.422 266.812 106.944L266.831 73.6307C266.831 73.3503 266.68 73.1029 266.416 72.938L206.339 35.5677C205.906 35.3038 205.303 35.3863 204.982 35.7656C204.681 36.1449 204.775 36.6727 205.208 36.953L264.89 74.076L264.871 106.944C264.871 107.422 265.304 107.802 265.832 107.802Z" fill="#FBC006"/>
<path d="M200.309 36.4582C200.629 39.1629 203.38 41.1089 206.471 40.8285C209.562 40.5482 211.785 38.1404 211.465 35.4357C211.145 32.7311 208.393 30.7851 205.303 31.0654C202.231 31.3458 199.988 33.7536 200.309 36.4582Z" fill="#0A2982"/>
<path d="M338.498 166.891C338.498 175.533 352.594 182.542 369.987 182.542C387.381 182.542 401.477 175.533 401.477 166.891C401.477 158.25 387.381 151.257 369.987 151.257C352.594 151.241 338.498 158.25 338.498 166.891Z" fill="url(#paint0_linear_1_1779)"/>
<path d="M413.406 78.1328L401.477 161.07H401.345C400.082 169.134 386.533 175.484 369.968 175.484C352.575 175.484 338.479 168.475 338.479 159.849L326.55 78.1493H413.406V78.1328Z" fill="#347EE7"/>
<path d="M326.588 78.1492L338.517 159.849C338.517 166.182 346.073 171.624 356.966 174.082C355.288 172.169 354.346 170.058 354.346 167.848L342.436 86.1477H412.256L413.406 78.1492H326.588V78.1492Z" fill="#206FCE"/>
<path d="M369.987 99.7039C346.008 99.7039 326.569 90.0462 326.569 78.1327C326.569 66.2193 346.008 56.5615 369.987 56.5615C393.967 56.5615 413.406 66.2193 413.406 78.1327C413.406 90.0462 393.967 99.7039 369.987 99.7039Z" fill="#D0DCFE"/>
<path d="M369.987 94.7728C349.12 94.7728 332.203 87.3228 332.203 78.1326C332.203 68.9425 349.12 61.4924 369.987 61.4924C390.855 61.4924 407.771 68.9425 407.771 78.1326C407.771 87.3228 390.855 94.7728 369.987 94.7728Z" fill="#272C91"/>
<path d="M369.987 94.7728C349.12 94.7728 332.203 87.3228 332.203 78.1326C332.203 68.9425 349.12 61.4924 369.987 61.4924C390.855 61.4924 407.771 68.9425 407.771 78.1326C407.771 87.3228 390.855 94.7728 369.987 94.7728Z" fill="#272C91"/>
<path d="M353.894 70.662L354.855 70.4971C355.364 70.4146 355.703 69.9693 355.609 69.5241L352.801 56.8419C352.707 56.3966 352.198 56.0998 351.689 56.1822L350.728 56.3471C350.219 56.4296 349.88 56.8749 349.974 57.3201L352.782 70.0023C352.895 70.4476 353.385 70.7444 353.894 70.662Z" fill="#FD9220"/>
<path d="M357.832 132.984C358.077 134.122 360.376 134.304 362.958 133.364C365.54 132.424 367.443 130.742 367.198 129.604C366.953 128.466 364.654 128.284 362.072 129.224C359.491 130.148 357.587 131.83 357.832 132.984Z" fill="#9A98ED"/>
<path d="M347.75 39.7729L367.198 129.604L357.832 132.984L338.384 43.1373L347.75 39.7729Z" fill="#FBC006"/>
<path d="M338.385 43.1373C338.63 44.2752 340.929 44.4566 343.51 43.5166C346.092 42.5766 347.995 40.8944 347.75 39.7565C347.505 38.6185 345.206 38.4371 342.625 39.3772C340.024 40.3172 338.121 41.9993 338.385 43.1373Z" fill="#205CE1"/>
<path d="M362.186 20.2962L362.261 23.1493L362.299 24.3202L362.412 28.2618L362.431 29.4327L362.544 33.3742L362.581 34.5451L362.676 38.3712L362.713 39.5421L362.826 43.4012L362.864 44.5721L362.958 48.5136L362.996 49.6516L363.109 53.5931L363.165 54.731L363.26 58.5901L363.297 59.728L363.41 63.6201L363.429 64.791L363.542 68.6831L363.58 69.821L363.674 73.779L363.712 74.9499L363.825 78.8915L363.863 80.0294L363.957 83.9379L363.995 85.0759L364.108 89.0339L364.145 90.1718L364.24 94.0639L364.277 95.2348L364.39 99.1763L364.409 100.314L364.862 116.394C364.956 120.071 367.971 122.644 370.93 121.539L380.672 117.878C382.689 117.103 384.027 114.827 383.914 112.32L380.616 18.0204C380.503 14.6725 377.959 12.2153 375.207 12.7595L366.068 14.5736C363.769 15.0684 362.11 17.4926 362.186 20.2962Z" fill="#205CE1"/>
<path d="M362.261 23.1659L362.299 24.3368C362.317 24.3368 362.336 24.3368 362.374 24.3203L366.52 23.3803C366.765 23.3143 366.934 23.0175 366.897 22.6876C366.84 22.3908 366.595 22.1599 366.331 22.2588L362.261 23.1659Z" fill="white"/>
<path d="M362.412 28.2618L362.431 29.4327C362.468 29.4327 362.487 29.4327 362.525 29.4162L366.671 28.4597C366.934 28.4102 367.104 28.1133 367.048 27.8C366.991 27.5032 366.746 27.2723 366.501 27.3382L362.412 28.2618Z" fill="white"/>
<path d="M362.544 33.3742L362.581 34.5452C362.619 34.5452 362.638 34.5287 362.676 34.5287L366.821 33.5721C367.085 33.5226 367.255 33.2093 367.198 32.9124C367.142 32.5991 366.916 32.3847 366.652 32.4507L362.544 33.3742Z" fill="white"/>
<path d="M362.676 38.3547L362.713 39.5256C362.751 39.5256 362.77 39.5256 362.789 39.5091L366.934 38.5526C367.198 38.5031 367.368 38.2063 367.311 37.8929C367.255 37.5796 367.029 37.3652 366.765 37.4311L362.676 38.3547Z" fill="white"/>
<path d="M362.845 43.3846L362.883 44.5555C362.902 44.5555 362.921 44.5555 362.958 44.539L367.104 43.5825C367.349 43.533 367.519 43.2362 367.481 42.9228C367.424 42.626 367.18 42.3951 366.916 42.461L362.845 43.3846Z" fill="white"/>
<path d="M362.977 48.4972L363.015 49.6351H363.109L367.255 48.6786C367.5 48.6127 367.669 48.3158 367.632 47.986C367.575 47.6891 367.33 47.4582 367.066 47.5572L362.977 48.4972Z" fill="white"/>
<path d="M363.128 53.5766L363.165 54.731C363.184 54.731 363.203 54.731 363.222 54.7145L367.368 53.758C367.613 53.7085 367.782 53.4117 367.745 53.0983C367.688 52.8015 367.443 52.5706 367.179 52.6366L363.128 53.5766Z" fill="white"/>
<path d="M363.26 58.6065L363.297 59.7445H363.392L367.538 58.7879C367.801 58.722 367.971 58.4251 367.914 58.1283C367.858 57.8149 367.613 57.584 367.368 57.6665L363.26 58.6065Z" fill="white"/>
<path d="M363.41 63.6367L363.429 64.8076C363.448 64.8076 363.467 64.8076 363.505 64.7911L367.651 63.8346C367.914 63.7851 368.084 63.4882 368.027 63.1749C367.971 62.8616 367.745 62.6472 367.481 62.7131L363.41 63.6367Z" fill="white"/>
<path d="M363.542 68.6996L363.58 69.8375H363.656L367.801 68.881C368.065 68.815 368.235 68.5181 368.178 68.2213C368.122 67.9079 367.877 67.6771 367.632 67.7595L363.542 68.6996Z" fill="white"/>
<path d="M363.674 73.7955L363.712 74.9664C363.75 74.9664 363.769 74.9664 363.806 74.9499L367.952 73.9934C368.197 73.9439 368.367 73.6471 368.329 73.3337C368.272 73.0368 368.046 72.806 367.764 72.8719L363.674 73.7955Z" fill="white"/>
<path d="M363.825 78.9079L363.863 80.0459H363.882C363.9 80.0459 363.938 80.0294 363.957 80.0294L368.103 79.0728C368.367 79.0234 368.536 78.71 368.48 78.4132C368.442 78.0998 368.197 77.8854 367.933 77.9514L363.825 78.9079Z" fill="white"/>
<path d="M363.957 83.9544L363.995 85.0924C364.014 85.0924 364.014 85.0924 364.032 85.0924C364.07 85.0924 364.089 85.0924 364.127 85.0759L368.272 84.1194C368.536 84.0699 368.687 83.773 368.649 83.4597C368.593 83.1628 368.348 82.9319 368.103 82.9979L363.957 83.9544Z" fill="white"/>
<path d="M364.127 89.067L364.164 90.2049H364.221L368.367 89.2484C368.612 89.1824 368.781 88.8856 368.744 88.5887C368.687 88.2754 368.461 88.061 368.178 88.1269L364.127 89.067Z" fill="white"/>
<path d="M364.258 94.0967L364.296 95.2676C364.315 95.2676 364.334 95.2676 364.353 95.2512L368.499 94.2946C368.762 94.2452 368.932 93.9483 368.875 93.635C368.838 93.3381 368.593 93.1072 368.329 93.1732L364.258 94.0967Z" fill="white"/>
<path d="M364.409 99.1927L364.428 100.331H364.522L368.668 99.3741C368.932 99.3082 369.102 99.0113 369.045 98.7144C369.007 98.4011 368.744 98.1867 368.499 98.2527L364.409 99.1927Z" fill="white"/>
<path d="M543.812 240.544L513.415 255.864L441.013 219.385L471.184 203.965L543.812 240.544Z" fill="url(#paint1_linear_1_1779)"/>
<path d="M468.715 95.2347L536.368 129.34L513.415 140.9L464.909 106.317V97.1642C464.909 95.4491 467.019 94.3771 468.715 95.2347Z" fill="#2875DF"/>
<path d="M536.368 132.506L469.111 98.5825L444.895 110.819L512.134 144.726L536.368 132.506Z" fill="#75BCFC"/>
<path d="M443.048 107.142C443.914 106.664 444.97 106.383 445.968 106.894L513.395 140.884L536.348 129.323L468.695 95.2182C467.979 94.8554 467.169 94.8554 466.49 95.0863V95.0698C466.49 95.0698 468.846 94.0638 469.769 93.5691C470.617 93.1403 471.635 92.9094 472.615 93.3877L543.792 129.274V233.93L517.126 220.49V247.404L444.348 210.71C442.991 210.017 442.143 208.748 442.143 207.379L439.863 108.659C439.9 108.692 442.011 107.719 443.048 107.142Z" fill="#4594F4"/>
<path d="M513.415 144.644L543.812 129.323V233.98L513.415 249.301V144.644Z" fill="#347EE8"/>
<path d="M517.542 150.301L540.985 138.493V146.491L517.542 158.299V150.301Z" fill="#FCC106"/>
<path d="M517.542 160.872L540.985 149.047V151.818L517.542 163.643V160.872Z" fill="#FCC106"/>
<path d="M517.542 166.017L540.985 154.209V156.98L517.542 168.788V166.017Z" fill="#FCC106"/>
<path d="M517.542 235.695L540.985 223.87V226.641L517.542 238.466V235.695Z" fill="#FCC106"/>
<path d="M442.238 108.774L513.415 144.661V249.317L440.637 212.623C439.28 211.93 438.432 210.661 438.432 209.292V110.704C438.432 108.989 440.542 107.917 442.238 108.774Z" fill="#205CE2"/>
<path d="M489.369 249.087L458.972 264.407L386.571 227.928L416.741 212.508L489.369 249.087Z" fill="url(#paint2_linear_1_1779)"/>
<path d="M414.273 102.92L481.925 137.025L458.972 148.586L410.466 114.002V104.85C410.466 103.134 412.577 102.062 414.273 102.92Z" fill="#B4BBE1"/>
<path d="M481.944 140.191L414.668 106.284L390.453 118.505L457.71 152.412L481.944 140.191Z" fill="#DAE3F2"/>
<path d="M388.606 114.827C389.473 114.349 390.528 114.068 391.527 114.58L458.972 148.569L481.925 137.009L414.273 102.904C413.557 102.541 412.746 102.541 412.068 102.772V102.755C412.068 102.755 414.423 101.749 415.347 101.254C416.195 100.826 417.212 100.595 418.192 101.073L489.369 136.959V241.616L462.704 228.175V255.09L389.925 218.395C388.568 217.703 387.72 216.433 387.72 215.064L385.44 116.344C385.459 116.377 387.57 115.404 388.606 114.827Z" fill="#CED2EF"/>
<path d="M458.972 152.346L489.369 137.009V241.665L458.972 256.986V152.346Z" fill="#C5C8E8"/>
<path d="M463.099 157.986L486.542 146.178V154.176L463.099 166.001V157.986Z" fill="white"/>
<path d="M463.099 168.557L486.542 156.749V159.52L463.099 171.328V168.557Z" fill="white"/>
<path d="M463.099 173.719L486.542 161.895V164.665L463.099 176.49V173.719Z" fill="white"/>
<path d="M463.099 243.38L486.542 231.556V234.326L463.099 246.151V243.38Z" fill="white"/>
<path d="M387.796 116.46L458.972 152.346V257.002L386.194 220.308C384.837 219.616 383.989 218.346 383.989 216.977V118.389C383.989 116.674 386.1 115.602 387.796 116.46Z" fill="#B4BBE1"/>
<path d="M22.9794 114.002V160.987L26.6164 162.719L76.6306 129.802L84.4324 86.5766L80.8142 84.845L22.9794 114.002Z" fill="#FF9906"/>
<path d="M22.9795 114.002V160.987L26.6165 162.719L76.6306 129.802L26.6165 115.734L22.9795 114.002Z" fill="#EF770A"/>
<path d="M26.6166 115.734V162.719L84.4324 133.562V86.5767L26.6166 115.734Z" fill="#FCC106"/>
<path d="M77.2523 102.046V105.971L56.3534 126.47L35.4168 126.915V123.007L77.2523 102.046Z" fill="white"/>
<path d="M56.3534 128.746L77.2523 108.247V128.284L35.4168 149.245V129.191L56.3534 128.746Z" fill="white"/>
<path d="M254.469 151.01V184.092L258.502 186.038L293.723 162.867L299.225 132.424L295.192 130.478L254.469 151.01Z" fill="#FF9906"/>
<path d="M254.469 151.01V184.092L258.502 186.038L293.723 162.867L258.502 152.956L254.469 151.01Z" fill="#EF770A"/>
<path d="M258.502 152.956V186.038L299.225 165.522V132.424L258.502 152.956Z" fill="#FCC106"/>
<path d="M288.992 155.693L283.471 165.242L267.604 155.067" stroke="white" stroke-width="3.1599" stroke-miterlimit="10" stroke-linecap="round" stroke-linejoin="round"/>
<path d="M0.59198 230.335V263.434L4.62474 265.38L39.8457 242.193L45.3484 211.766L41.3344 209.803L0.59198 230.335Z" fill="#347EE8"/>
<path d="M0.592072 230.335V263.434L4.62481 265.38L39.8456 242.193L4.62481 232.298L0.592072 230.335Z" fill="#266FC6"/>
<path d="M4.62482 232.298V265.38L45.3484 244.848V211.765L4.62482 232.298Z" fill="#4C96ED"/>
<path d="M25.9192 228.62L28.9909 232.479C29.1794 232.71 29.5185 232.793 29.8201 232.661L36.4723 230.071C37.113 229.824 37.6783 230.418 37.3014 230.946L31.9872 238.202C31.893 238.334 31.8553 238.499 31.8742 238.664L33.2498 244.947C33.3252 245.31 33.0049 245.689 32.5714 245.706L25.4481 246.101C25.2597 246.118 25.0712 246.184 24.9393 246.316L18.4379 252.649C17.9668 253.11 17.1376 252.797 17.2318 252.187L18.3813 245.772C18.4379 245.491 18.2683 245.244 17.9668 245.145L12.9352 243.446C12.4264 243.281 12.3698 242.671 12.8221 242.391L20.8311 237.245C20.9442 237.163 21.0385 237.064 21.095 236.949L24.6566 228.802C24.8827 228.323 25.5989 228.224 25.9192 228.62Z" fill="white"/>
<path d="M476.008 286.077L220.058 414.647L61.8562 334.662L317.806 206.076L476.008 286.077Z" fill="url(#paint3_linear_1_1779)"/>
<path d="M317.806 193.79L61.8562 322.359V327.356L220.058 407.358L476.008 278.772V273.775L317.806 193.79Z" fill="#80B4FF"/>
<path d="M476.008 273.775L220.058 402.361L61.8562 322.359L317.806 193.79L476.008 273.775Z" fill="#4588FF"/>
<path d="M315.846 179.541C315.846 179.541 269.205 184.356 191.094 244.699C191.094 244.699 123.573 256.013 70.9393 302.602V319.671L220.209 394.676L465.116 271.631V254.545L315.846 179.541Z" fill="white"/>
<path d="M465.116 254.545C465.116 254.545 418.475 259.361 340.363 319.704C340.363 319.704 272.842 331.017 220.209 377.607V394.676L465.116 271.631V254.545Z" fill="#F5F5F5"/>
<path d="M70.9393 302.602L220.209 377.607V394.692L70.9393 319.688V302.602Z" fill="#E2E2E2"/>
<path d="M81.304 269.981L230.592 344.969C238.262 340.665 245.951 337.07 253.527 334.085C259.557 331.71 265.493 329.698 271.278 328.016C309.345 316.933 340.363 319.721 340.363 319.721L191.075 244.716C191.075 244.7 135.144 239.686 81.304 269.981Z" fill="#F5F5F5"/>
<path d="M98.9804 273.247L102.523 275.028C142.154 254.776 181.992 252.896 197.821 253.077L191.753 250.026C172.475 250.472 135.445 254.116 98.9804 273.247Z" fill="url(#paint4_linear_1_1779)"/>
<path d="M115.074 281.344L118.598 283.109C158.209 262.857 198.047 260.977 213.877 261.158L207.828 258.107C188.568 258.553 151.557 262.181 115.074 281.344Z" fill="url(#paint5_linear_1_1779)"/>
<path d="M131.13 289.409L134.654 291.173C174.228 270.938 214.084 269.025 229.933 269.223L223.846 266.155C204.587 266.601 167.575 270.278 131.13 289.409Z" fill="url(#paint6_linear_1_1779)"/>
<path d="M147.034 297.391L150.577 299.172C190.133 278.936 229.952 277.023 245.819 277.205L239.77 274.154C220.473 274.599 183.48 278.26 147.034 297.391Z" fill="url(#paint7_linear_1_1779)"/>
<path d="M163.147 305.488L166.671 307.269C206.245 287.034 246.026 285.121 261.912 285.302L255.863 282.251C236.585 282.68 199.611 286.341 163.147 305.488Z" fill="url(#paint8_linear_1_1779)"/>
<path d="M180.164 314.031L183.688 315.812C223.243 295.56 263.081 293.647 278.929 293.845L272.842 290.778C253.545 291.239 216.572 294.917 180.164 314.031Z" fill="url(#paint9_linear_1_1779)"/>
<path d="M196.427 322.194L199.951 323.975C239.487 303.756 279.25 301.81 295.155 301.992L289.105 298.941C269.79 299.403 232.816 303.08 196.427 322.194Z" fill="url(#paint10_linear_1_1779)"/>
<path d="M212.596 330.341L216.12 332.106C255.675 311.887 295.494 309.974 311.361 310.155L305.274 307.088C285.977 307.55 249.004 311.211 212.596 330.341Z" fill="url(#paint11_linear_1_1779)"/>
<path d="M321.877 190.013C305.802 194.103 267.434 207.296 212.991 248.113L209.675 246.448C262.025 206.999 299.319 192.8 317.467 187.786L321.877 190.013Z" fill="url(#paint12_linear_1_1779)"/>
<path d="M337.781 198.011C321.632 202.134 283.301 215.394 228.953 256.145L225.636 254.479C277.893 215.08 315.168 200.848 333.372 195.802L337.781 198.011Z" fill="url(#paint13_linear_1_1779)"/>
<path d="M354.026 206.175C337.97 210.248 299.602 223.441 245.122 264.275L241.805 262.609C294.175 223.145 331.487 208.962 349.616 203.948L354.026 206.175Z" fill="url(#paint14_linear_1_1779)"/>
<path d="M370.044 214.223C353.932 218.329 315.582 231.555 261.196 272.34L257.88 270.674C310.174 231.242 347.468 217.026 365.634 212.013L370.044 214.223Z" fill="url(#paint15_linear_1_1779)"/>
<path d="M386.194 222.337C370.081 226.427 331.732 239.653 277.327 280.454L274.011 278.788C326.324 239.356 363.599 225.157 381.765 220.127L386.194 222.337Z" fill="url(#paint16_linear_1_1779)"/>
<path d="M402.212 230.385C386.081 234.508 347.75 247.734 293.383 288.518L290.048 286.836C342.323 247.421 379.617 233.205 397.802 228.158L402.212 230.385Z" fill="url(#paint17_linear_1_1779)"/>
<path d="M418.305 238.482C402.212 242.589 363.844 255.799 309.458 296.599L306.122 294.917C358.435 255.485 395.729 241.286 413.896 236.256L418.305 238.482Z" fill="url(#paint18_linear_1_1779)"/>
<path d="M434.436 246.596C418.305 250.702 379.975 263.945 325.608 304.713L322.291 303.047C374.567 263.632 411.86 249.416 430.046 244.37L434.436 246.596Z" fill="url(#paint19_linear_1_1779)"/>
<path d="M317.731 263.616L311.757 264.143L311.06 268.596L220.209 222.947L227.502 218.28L317.731 263.616Z" fill="#6CE3FF"/>
<path opacity="0.5" d="M372.268 268.415C374.529 270.641 390.905 277.551 400.12 279.975C401.194 279.415 402.25 278.87 403.286 278.343L373.907 264.704C373.907 264.688 369.987 266.188 372.268 268.415Z" fill="#898989"/>
<path d="M402.438 172.202C402.438 172.202 405.83 175.78 403.701 181.668C402.381 185.313 401.194 185.659 400.874 187.572C400.554 189.485 403.701 193.097 401.006 198.555C399.63 201.343 391.15 198.094 391.15 198.094L386.835 193.097L391.15 182.74L402.438 172.202Z" fill="#2A3049"/>
<path d="M391.357 190.392L390.867 195.455C390.867 195.455 401.326 199.017 401.552 197.352C401.778 195.686 399.366 194.697 398.914 193.559C398.462 192.421 398.914 191.448 398.914 191.448C398.914 191.448 400.252 189.205 400.026 186.517" fill="#22293F"/>
<path d="M445.404 323.464C445.404 323.464 445.083 323.744 445.14 324.091C445.196 324.437 445.762 325.031 446.93 325.575C448.098 326.119 448.984 326.35 450.209 327.224C451.415 328.098 453.695 329.962 454.977 330.885C456.277 331.809 458.086 332.304 459.066 332.436C460.065 332.568 462.628 332.963 464.588 332.864C466.34 332.766 467.565 331.924 467.753 331.281C467.942 330.655 467.867 329.583 467.867 329.583" fill="#3A3D51"/>
<path d="M453.941 312.678V318.912V321.617H447.929L445.988 312.678H453.941Z" fill="#FFE1BD"/>
<path d="M397.727 254.71C397.727 254.71 404.04 269.866 416.779 273.758C418.852 274.401 420.868 274.896 422.79 275.308C432.646 277.386 439.977 276.776 439.977 276.776C438.827 287.974 444.556 308.968 445.97 313.915C446.177 314.657 446.855 315.202 447.684 315.367C447.835 315.4 448.005 315.416 448.156 315.433C449.757 315.647 451.246 315.466 452.339 315.218C453.394 314.971 454.148 314.163 454.186 313.206C454.525 305.62 456.108 269.569 451.397 266.716C439.77 259.641 411.257 251.23 405.453 249.317C404.775 249.103 404.247 248.641 403.965 248.047L402.061 243.99L397.727 254.71Z" fill="#3A3D51"/>
<path d="M419.38 266.699L422.79 275.308C432.646 277.386 439.977 276.776 439.977 276.776C438.827 287.974 444.556 308.968 445.969 313.915C446.177 314.658 446.855 315.202 447.684 315.367C447.835 315.4 448.005 315.416 448.155 315.433H448.174C442.709 298.726 443.614 272.686 443.614 272.686C431.911 273.329 419.756 266.897 419.38 266.699Z" fill="#333647"/>
<path d="M413.425 317.148L410.711 322.211C410.711 322.211 402.513 328.692 404.323 320.71L407.677 311.508" fill="#FFE1BD"/>
<path d="M370.063 257.002C370.553 261.686 372.192 266.914 379.428 270.476C385.798 273.626 399.253 279.316 415.46 282.944C414.857 284.181 414.197 285.583 413.481 287.166C410.617 293.383 407.3 309.331 406.113 314.575C405.924 315.4 406.169 316.241 406.735 316.9C406.866 317.049 406.998 317.181 407.149 317.296C408.167 318.071 409.637 318.912 411.238 318.912C412.331 318.912 413.293 318.319 413.783 317.478C417.08 311.772 432.967 284.577 434.323 278.772C434.474 278.095 434.681 276.99 434.361 276.199C434.267 275.885 434.154 275.655 434.022 275.506C426.823 268.86 402.438 259.278 402.438 259.278L402.061 244.007L375.283 246.613L371.118 247.008C371.118 247.008 369.648 253.094 370.063 257.002Z" fill="#3A3D51"/>
<path d="M370.063 257.002C370.553 261.686 372.192 266.914 379.429 270.476C385.798 273.626 399.253 279.316 415.46 282.944C414.857 284.181 414.197 285.583 413.481 287.166C410.617 293.383 407.3 309.331 406.113 314.575C405.924 315.4 406.169 316.241 406.735 316.9C408.412 311.755 412.124 301.068 413.406 295.197C414.894 288.37 421.32 280.256 421.32 280.256C421.32 280.256 413.462 278.425 402.25 275.176C391.037 271.927 378.939 267.062 375.415 261.208C371.891 255.353 375.415 246.761 375.415 246.761C375.415 246.761 375.358 246.711 375.283 246.613L371.118 247.008C371.118 247.008 369.648 253.094 370.063 257.002Z" fill="#333647"/>
<path d="M445.574 324.107C446.591 324.932 447.27 325.047 449.983 326.4C452.697 327.735 455.411 330.935 457.616 331.529C459.82 332.122 464.192 332.848 466.322 331.957C467.471 331.479 467.905 330.704 467.961 329.929C467.999 329.286 467.792 328.643 467.509 328.164C466.925 327.125 465.097 326.334 462.892 325.443C460.687 324.553 458.351 322.211 456.824 320.957C455.298 319.688 454.827 318.286 454.299 317.593C454.035 317.247 451.793 317.676 451.058 318.715C450.7 319.242 450.794 319.457 450.945 319.655C451.076 319.852 451.058 320.083 450.907 320.265C450.794 320.397 450.605 320.479 450.398 320.496C447.458 320.595 447.119 317.923 447.119 317.923C445.027 318.682 444.556 323.283 445.574 324.107Z" fill="#FBC006"/>
<path d="M400.931 324.437C400.931 324.437 400.196 325.097 400.196 325.691C400.196 326.152 401.383 328.313 402.287 328.94C402.287 328.94 402.532 329.269 402.834 329.781C403.135 330.292 404.624 333.095 405.943 334.563C407.262 336.031 410.296 336.889 411.653 337.235C412.991 337.581 414.518 337.829 416.779 337.103C419.059 336.394 419.172 334.91 419.172 334.91L413.048 331.941" fill="#3A3D51"/>
<path d="M400.535 325.196C400.478 325.658 401.27 327.29 402.777 328.758C404.511 331.76 406.226 334.266 407.187 334.877C408.318 335.602 410.447 336.361 412.69 336.938C415.441 337.647 419.21 336.311 419.38 334.299C419.38 334.2 419.38 334.101 419.38 334.003C419.191 331.842 415.743 330.193 414.329 329.583C412.746 328.89 412.068 324.569 411.766 322.805C411.71 322.425 411.352 321.716 410.466 321.749C409.58 321.782 408.657 322.03 408.129 322.442C407.583 322.854 407.733 323.068 407.733 323.481C407.733 323.778 407.489 323.943 407.168 323.959C407.036 323.959 406.904 323.943 406.772 323.893C406.282 323.712 404.04 321.98 404.323 320.727C404.323 320.727 403.757 320.545 403.305 321.073C402.872 321.584 400.686 323.811 400.535 325.196Z" fill="#FBC006"/>
<path d="M393.958 208.896C393.958 208.896 397.293 217.735 400.064 223.705C400.817 225.355 401.534 226.789 402.137 227.746C402.325 228.059 402.551 228.389 402.777 228.719C407.338 235.25 419.323 244.831 423.959 248.707C423.959 248.707 423.959 248.723 423.978 248.723C424.392 249.07 424.92 249.251 425.466 249.301C426.446 249.4 427.502 249.02 428.067 248.229C428.255 247.965 428.35 247.717 428.368 247.503C428.425 247.091 428.255 246.761 428.18 246.612C428.18 246.612 428.161 246.596 428.161 246.579C428.124 246.547 428.124 246.514 428.124 246.514C426.503 244.37 417.42 232.364 413.839 227.729C412.124 225.536 410.862 224.085 409.976 223.145C409.618 219.747 408.45 209.308 406.659 203.223C406.64 203.14 406.603 203.058 406.584 202.975C405.83 200.584 404.643 198.819 403.399 197.55C402.834 196.972 402.268 196.494 401.722 196.115C401.609 196.049 401.515 195.999 401.383 195.933C400.271 195.373 398.801 194.96 397.143 194.68C396.163 194.713 395.202 194.96 394.354 195.455C392.94 196.28 391.96 197.632 391.659 199.677C391.338 201.573 392.62 205.202 393.958 208.896Z" fill="#2EED89"/>
<path d="M406.565 202.992C406.697 203.85 408.695 216.96 408.808 223.491C408.808 223.491 426.691 244.898 428.368 247.503C428.425 247.091 428.255 246.761 428.18 246.613C428.18 246.613 428.161 246.596 428.161 246.58C428.124 246.547 428.124 246.514 428.124 246.514C426.503 244.37 417.42 232.364 413.839 227.73C412.124 225.536 410.862 224.085 409.976 223.145C409.618 219.748 408.45 209.308 406.659 203.223C406.622 203.173 406.584 203.074 406.565 202.992Z" fill="#41F28D"/>
<path d="M400.064 223.706C400.817 225.355 401.534 226.789 402.137 227.746C406.113 234.26 419.078 244.65 423.978 248.707C423.978 248.707 423.978 248.724 423.997 248.724C424.411 249.07 424.939 249.251 425.485 249.301C423.073 247.074 409.203 234.326 407.432 232.248C405.472 229.972 404.454 228.274 404.737 226.855C405.02 225.437 405.434 224.942 406.791 222.386C408.808 218.626 408.638 217.026 408.638 217.026C408.638 217.026 403.399 218.494 402.928 218.527C402.664 218.56 401.289 221.199 400.064 223.706Z" fill="#27E076"/>
<path d="M404.021 201.244C404.021 201.244 403.701 205.103 405.189 207.692C406.678 210.298 408.073 212.771 408.619 216.581L402.457 210.248L404.021 201.244Z" fill="#27E076"/>
<path d="M393.958 208.896C393.958 208.896 397.293 217.735 400.064 223.705C400.817 225.355 401.534 226.789 402.137 227.746C402.325 228.059 402.551 228.389 402.777 228.719C407.338 235.25 419.323 244.831 423.959 248.707C423.959 248.707 423.959 248.723 423.978 248.723C424.392 249.07 424.92 249.251 425.466 249.301C426.446 249.4 427.502 249.02 428.067 248.229C428.255 247.965 428.35 247.717 428.368 247.503C428.425 247.091 428.255 246.761 428.18 246.612C428.18 246.612 428.161 246.596 428.161 246.579C428.124 246.547 428.124 246.514 428.124 246.514C426.503 244.37 417.42 232.364 413.839 227.729C412.124 225.536 410.862 224.085 409.976 223.145C409.618 219.747 408.45 209.308 406.659 203.223C406.64 203.14 406.603 203.058 406.584 202.975C405.83 200.584 404.643 198.819 403.399 197.55C402.834 196.972 402.268 196.494 401.722 196.115C401.609 196.049 401.515 195.999 401.383 195.933C400.271 195.373 398.801 194.96 397.143 194.68C396.163 194.713 395.202 194.96 394.354 195.455C392.94 196.28 391.96 197.632 391.659 199.677C391.338 201.573 392.62 205.202 393.958 208.896Z" fill="#FBC006"/>
<path d="M371.024 245.277C370.666 245.969 370.44 246.448 371.137 246.992C371.137 246.992 373.53 249.598 381.03 249.845C381.144 249.845 381.238 249.845 381.351 249.845C381.935 249.845 382.613 249.796 383.348 249.713C388.851 249.07 397.934 246.283 401.138 244.601C401.138 244.601 401.176 244.584 401.232 244.551C401.251 244.551 401.251 244.535 401.27 244.535C401.665 244.32 402.834 243.644 402.702 243.215C402.155 241.533 402.061 239.422 402.061 239.406C402.099 235.877 402.231 231.193 402.815 228.719C402.853 228.571 402.89 228.406 402.928 228.274C402.985 228.059 403.06 227.845 403.135 227.647C403.946 225.371 405.679 223.029 406.98 221.034L406.999 221.001C407.847 219.715 408.506 218.56 408.6 217.686C409.166 213.134 404.021 210.001 404.285 206.026C404.492 202.926 405.058 199.776 403.399 197.583C403.003 197.038 402.457 196.544 401.722 196.148C401.609 196.082 401.515 196.032 401.383 195.967C400.271 195.406 398.801 194.994 397.143 194.713C392.677 193.955 386.778 194.169 382.142 195.34C382.142 195.34 366.935 200.799 365.408 205.73C363.882 210.661 368.706 219.863 370.722 224.464C370.948 224.992 371.175 225.569 371.382 226.179C373.003 231.011 373.832 238.317 372.908 241.302C372.908 241.286 371.552 244.238 371.024 245.277Z" fill="#FBC006"/>
<path d="M371.137 247.008C371.137 247.008 373.53 249.614 381.03 249.862C381.143 249.862 381.238 249.862 381.351 249.862C381.935 249.862 382.613 249.812 383.348 249.73C382.048 249.581 380.672 249.235 379.881 248.559C378.147 247.041 379.692 239.406 380.126 237.196C380.522 235.118 379.768 230.797 381.445 230.302L381.841 227.977C381.841 227.977 383.197 229.445 386.326 228.917C390.095 228.274 391.734 227.631 393.091 227.301C394.844 226.856 396.879 226.641 400.478 225.883C404.398 225.041 404.869 224.266 404.869 224.266C405.566 223.145 406.32 222.056 406.961 221.067L406.98 221.034C406.98 221.034 405.133 223.029 402.457 223.524C399.8 224.019 388.342 226.608 385.873 226.278C383.386 225.948 380.729 222.865 380.729 222.865L371.382 226.196C373.002 231.028 373.832 238.334 372.908 241.319C372.908 241.319 371.57 244.271 371.024 245.326C370.666 245.969 370.44 246.448 371.137 247.008Z" fill="#F9A208"/>
<path d="M377.883 200.188C378.128 202.134 386.552 206.802 393.11 208.748C393.11 208.748 395.88 202.217 395.22 198.424C395.107 197.748 394.636 197.121 393.939 196.808C393.581 196.643 393.279 196.445 392.997 196.214C392.262 195.587 391.81 194.697 391.81 193.74C391.81 193.278 391.847 192.817 391.866 192.404C391.979 191.2 392.186 190.326 392.186 190.326L379.994 184.472C379.994 184.472 381.614 194.416 380.22 195.95C380.201 195.917 377.638 198.358 377.883 200.188Z" fill="#FFE1BD"/>
<path opacity="0.25" d="M380.936 194.548L383.688 191.827L384.611 191.365C383.574 190.607 382.651 189.683 382.086 188.562L391.847 192.388C391.81 192.8 391.791 193.245 391.791 193.723C391.791 194.68 392.224 195.554 392.978 196.197C392.978 196.197 391.828 196.098 391.037 194.993C390.547 194.317 387.871 193.014 385.629 192.058C385.591 193.08 385.026 195.307 383.141 196.379C380.182 198.061 376.847 197.698 376.847 197.698L380.936 194.548Z" fill="#EDA38C"/>
<path d="M401.722 172.927C401.722 172.927 402.928 179.755 400.893 185.758C398.858 191.761 396.069 193.476 394.486 193.558C392.903 193.641 383.537 192.421 380.842 186.648C378.147 180.876 378.712 174.313 379.919 170.899C381.125 167.485 387.89 164.566 392.639 165.292C397.369 166.017 401.27 168.953 401.722 172.927Z" fill="#FFE1BD"/>
<path d="M385.044 261.884V263.352L421.603 250.637L444.349 258.916L444.104 258.503H447.251V259.691C447.251 259.856 447.138 260.004 446.968 260.054L408.506 273.428C408.242 273.527 407.941 273.511 407.677 273.428L383.48 264.622C383.273 264.556 383.141 264.374 383.141 264.193V262.775L385.044 261.884Z" fill="#4B9CB5"/>
<path d="M384.14 264.275C384.14 264.473 384.272 264.638 384.423 264.638C384.573 264.638 384.705 264.473 384.705 264.275C384.705 264.077 384.573 263.912 384.423 263.912C384.253 263.912 384.14 264.077 384.14 264.275Z" fill="#48C8EF"/>
<path d="M385.553 265.017C385.397 265.017 385.27 264.855 385.27 264.655C385.27 264.454 385.397 264.292 385.553 264.292C385.709 264.292 385.836 264.454 385.836 264.655C385.836 264.855 385.709 265.017 385.553 265.017Z" fill="#48C8EF"/>
<path d="M386.477 265.067C386.477 265.265 386.608 265.43 386.759 265.43C386.91 265.43 387.042 265.265 387.042 265.067C387.042 264.869 386.91 264.704 386.759 264.704C386.608 264.688 386.477 264.852 386.477 265.067Z" fill="#48C8EF"/>
<path d="M421.603 249.169L447.251 258.503L408.091 272.125L383.424 263.137C383.066 263.005 383.066 262.577 383.424 262.445L421.603 249.169Z" fill="#48C8EF"/>
<path d="M421.773 250.834L443.915 258.899C444.085 258.965 444.085 259.179 443.915 259.245L409.825 271.103C409.769 271.119 409.712 271.119 409.674 271.103L387.532 263.038C387.362 262.972 387.362 262.758 387.532 262.692L421.622 250.834C421.66 250.818 421.716 250.818 421.773 250.834Z" fill="#6CE3FF"/>
<path d="M412.313 253.44L418.965 255.865C419.059 255.898 419.059 256.029 418.965 256.062L408.45 259.724C408.205 259.806 407.903 259.806 407.658 259.724L401.044 257.316C400.93 257.266 400.93 257.134 401.044 257.085L411.521 253.44C411.766 253.341 412.049 253.358 412.313 253.44Z" fill="#85EEFF"/>
<path d="M408.845 272.703C408.75 272.686 408.637 272.637 408.524 272.538C408.505 272.505 408.468 272.488 408.449 272.472L408.091 272.142L418.7 248.905C418.832 248.608 419.096 248.394 419.417 248.278L457.615 234.986C457.728 234.953 457.841 234.969 457.916 235.052L458.576 235.646L458.595 235.662L457.295 236.503L447.25 258.503L409.58 271.614L409.712 271.713L408.882 272.703H408.845Z" fill="#B3E8F4"/>
<path d="M408.845 272.703L419.304 249.796C419.511 249.35 419.907 248.988 420.416 248.823L458.407 235.613C458.482 235.596 458.539 235.613 458.595 235.646L458.614 235.662C458.652 235.695 458.652 235.745 458.633 235.794L448.08 258.932C448.005 259.08 447.873 259.196 447.722 259.245L409.203 272.653C409.203 272.653 409.166 272.67 409.109 272.686C409.053 272.686 408.996 272.703 408.883 272.686H408.845V272.703Z" fill="#5AAFD1"/>
<path opacity="0.17" d="M433.136 255.056C433.513 256.062 435.209 256.458 436.924 255.963C438.639 255.469 439.713 254.248 439.336 253.242C438.959 252.236 437.263 251.84 435.548 252.335C433.833 252.83 432.759 254.05 433.136 255.056Z" fill="white"/>
<path d="M400.478 253.803L401.929 255.403C402.645 256.194 403.908 256.425 405.039 256.623L407.187 257.052C407.243 257.052 407.319 257.068 407.375 257.101C407.432 257.134 407.507 257.184 407.564 257.233L409.938 259.014C410.033 259.097 410.127 259.179 410.183 259.278C410.183 259.278 411.446 261.109 411.71 261.736C411.785 261.884 411.333 262.049 410.956 261.834C410.579 261.62 409.166 259.872 409.166 259.872C409.166 259.872 410.315 262.065 410.598 262.807C410.673 262.989 410.24 263.104 409.75 262.791C409.26 262.478 407.978 260.202 407.978 260.202C407.978 260.202 408.676 261.966 408.808 262.527C408.845 262.692 408.6 262.807 408.073 262.626C407.545 262.445 406.603 260.482 406.603 260.482L405.868 259.954L406.509 260.697C406.509 260.697 407.149 261.917 407.3 262.28C407.375 262.494 406.829 262.527 406.32 262.049C405.811 261.571 404.926 260.499 404.53 260.449C404.134 260.4 403.889 260.779 402.193 260.664C400.704 260.565 399.649 258.272 399.649 258.272L395.993 255.073L400.478 253.803Z" fill="#FFE1BD"/>
<path d="M367.123 216.614C367.123 216.614 372.569 231.028 375.283 235.464C379.259 241.978 392.224 252.368 397.124 256.425L397.143 256.442C397.633 256.837 398.273 257.035 398.895 257.052C399.8 257.052 400.704 256.673 401.213 255.963C401.383 255.733 401.458 255.518 401.496 255.32C401.59 254.858 401.402 254.496 401.307 254.347C401.307 254.347 401.288 254.331 401.288 254.314C401.251 254.281 401.251 254.248 401.251 254.248C399.63 252.104 390.547 240.098 386.966 235.464C385.252 233.271 383.989 231.819 383.103 230.879C382.783 227.73 381.746 218.527 380.163 212.359C380.163 212.326 380.163 212.31 380.163 212.31C380.05 211.831 379.918 211.386 379.787 210.957C378.637 206.999 376.281 204.756 374.378 203.52C372.343 202.2 369.573 201.953 367.462 203.173C367.066 203.404 366.708 203.668 366.388 203.998C365.559 204.806 364.993 205.927 364.767 207.395C364.503 209.292 365.785 212.92 367.123 216.614Z" fill="#2EED89"/>
<path d="M367.123 216.614C367.123 216.614 372.569 231.028 375.283 235.464C379.259 241.978 392.224 252.368 397.124 256.425L397.143 256.442C397.633 256.837 398.273 257.035 398.895 257.052C396.408 254.891 387.249 246.876 385.12 244.93C382.632 242.654 377.506 237.13 375.584 233.403C373.662 229.659 368.97 216.944 367.179 211.798C365.446 206.818 366.331 204.196 366.407 204.031C365.578 204.839 365.012 205.96 364.786 207.428C364.503 209.292 365.785 212.92 367.123 216.614Z" fill="#27E076"/>
<path d="M380.182 212.376C380.276 213.266 381.859 227.812 381.822 231.11C381.822 231.11 399.781 252.764 401.515 255.304C401.609 254.842 401.42 254.479 401.326 254.331C401.326 254.331 401.307 254.314 401.307 254.298C401.27 254.265 401.27 254.232 401.27 254.232C399.649 252.088 390.566 240.082 386.985 235.448C385.27 233.254 384.008 231.803 383.122 230.863C382.783 227.73 381.746 218.544 380.182 212.376Z" fill="#41F28D"/>
<path d="M367.123 216.614C367.123 216.614 372.569 231.028 375.283 235.464C379.259 241.978 392.224 252.368 397.124 256.425L397.143 256.442C397.633 256.837 398.273 257.035 398.895 257.052C399.8 257.052 400.704 256.673 401.213 255.963C401.383 255.733 401.458 255.518 401.496 255.32C401.59 254.858 401.402 254.496 401.307 254.347C401.307 254.347 401.288 254.331 401.288 254.314C401.251 254.281 401.251 254.248 401.251 254.248C399.63 252.104 390.547 240.098 386.966 235.464C385.252 233.271 383.989 231.819 383.103 230.879C382.783 227.73 381.746 218.527 380.163 212.359C380.163 212.326 380.163 212.31 380.163 212.31C380.05 211.831 379.918 211.386 379.787 210.957C378.637 206.999 376.281 204.756 374.378 203.52C372.343 202.2 369.573 201.953 367.462 203.173C367.066 203.404 366.708 203.668 366.388 203.998C365.559 204.806 364.993 205.927 364.767 207.395C364.503 209.292 365.785 212.92 367.123 216.614Z" fill="#FBC006"/>
<path d="M374.171 198.737C376.583 197.583 379.372 197.747 381.878 196.313L381.897 196.296C382.067 196.197 382.255 196.082 382.425 195.966C382.594 195.851 382.783 195.719 382.952 195.571C386.137 192.998 384.554 187.094 384.554 184.076V183.894C384.649 179.673 384.441 176.506 390.49 177.644C393.148 178.139 395.56 177.974 397.425 177.644C401.364 176.935 403.663 173.158 401.797 170.041C401.703 169.893 401.609 169.761 401.515 169.613C397.369 163.807 387.928 164.484 382.915 167.106C378.675 169.332 377.129 172.449 377.205 178.056C377.28 182.855 375.151 182.641 374.171 186.962C374.095 187.275 374.02 187.605 373.982 187.968C373.926 188.364 373.869 188.776 373.832 189.172C373.304 194.284 374.171 198.737 374.171 198.737Z" fill="#2A3049"/>
<path d="M374.171 198.737C376.583 197.583 379.372 197.747 381.878 196.313L381.897 196.296C382.067 196.197 382.255 196.082 382.425 195.966C382.594 195.851 382.783 195.719 382.952 195.57C386.137 192.998 384.554 187.094 384.554 184.076L381.803 182.509C381.803 182.509 381.501 184.142 381.803 185.56C382.104 186.995 382.651 187.061 383.197 188.71C383.744 190.359 383.556 193.46 381.671 194.663C379.787 195.867 376.847 195.587 375.961 196.032C375.961 196.032 374.001 192.717 374.171 186.929C374.095 187.242 374.02 187.572 373.982 187.935C373.926 188.331 373.869 188.743 373.832 189.139C373.304 194.284 374.171 198.737 374.171 198.737Z" fill="#22293F"/>
<path d="M385.327 181.833C385.327 181.833 384.366 180.448 382.858 180.662C381.351 180.876 381.539 182.822 381.954 184.439C382.519 186.533 385.044 186.302 385.044 186.302" fill="#FFE1BD"/>
<path d="M445.575 324.107C446.592 324.932 447.271 325.047 449.984 326.4C452.698 327.736 455.412 330.935 457.616 331.529C459.821 332.122 464.193 332.848 466.323 331.957C467.472 331.479 467.906 330.704 467.962 329.929C467.001 330.869 466.134 331.38 462.968 331.298C459.802 331.199 456.636 330.308 454.695 328.197C452.736 326.086 451.492 325.031 449.381 324.305C447.271 323.58 446.291 322.656 446.573 321.799C446.875 320.941 447.629 320.397 449.155 320.71C450.681 321.023 450.889 320.281 450.889 320.281C450.776 320.413 450.587 320.496 450.38 320.512C447.44 320.611 447.101 317.939 447.101 317.939C445.028 318.682 444.557 323.283 445.575 324.107Z" fill="#F9A208"/>
<path d="M400.535 325.196C400.478 325.658 401.27 327.29 402.777 328.758C404.511 331.76 406.226 334.266 407.187 334.876C408.318 335.602 410.447 336.361 412.69 336.938C415.441 337.647 419.21 336.311 419.38 334.299C416.364 336.625 409.712 334.431 408.582 333.442C407.451 332.452 407.168 330.984 405.491 329.467C403.814 327.933 401.91 326.136 402.834 324.701C403.493 323.695 405.585 323.893 406.169 324.091C406.754 324.289 407.149 323.942 407.149 323.942C407.017 323.942 406.885 323.926 406.754 323.876C406.264 323.695 404.021 321.963 404.304 320.71C404.304 320.71 403.738 320.529 403.286 321.056C402.872 321.584 400.686 323.81 400.535 325.196Z" fill="#F9A208"/>
<path d="M60.2167 360.587L181.615 421.887L191.716 416.824L70.3175 355.491L51.3785 351.104C51.0581 351.022 50.8131 351.368 51.0393 351.583L60.2167 360.587Z" fill="url(#paint20_linear_1_1779)"/>
<path d="M70.129 345.464L53.7528 342.051C53.1875 341.935 52.7729 342.529 53.1687 342.908L64.306 353.628L70.129 345.464Z" fill="#B4BBE1"/>
<path d="M53.1686 342.908L57.5406 347.13C57.616 346.536 57.8045 345.926 58.1437 345.332C58.4263 344.788 58.8221 344.31 59.2367 343.898C59.4439 343.7 59.6701 343.518 59.915 343.353L53.7339 342.084C53.1686 341.919 52.7728 342.545 53.1686 342.908Z" fill="#4588FF"/>
<path d="M183.952 403.581L182.406 405.973L178.411 412.124L65.5496 354.469C65.3046 354.37 65.0785 354.238 64.8712 354.106C64.287 353.71 63.8535 353.182 63.5709 352.539C63.0432 351.319 63.0998 349.752 63.8913 348.301C64.1928 347.757 64.5696 347.262 64.9842 346.866C66.1526 345.728 67.7167 345.134 69.1866 345.266C69.6012 345.299 70.0158 345.398 70.3927 345.563C70.4681 345.58 70.5246 345.613 70.6 345.646L70.845 345.778C70.8827 345.794 70.9015 345.811 70.9392 345.827C70.958 345.844 70.9769 345.86 71.0146 345.877L183.952 403.581Z" fill="#4588FF"/>
<path d="M183.952 403.581L182.406 405.973L178.487 404.95L64.9843 346.883C64.9843 346.883 64.9843 346.883 64.9843 346.866C66.1527 345.728 67.7168 345.134 69.1867 345.266C69.6013 345.299 70.0159 345.398 70.3928 345.563C70.4682 345.58 70.5247 345.613 70.6001 345.646L70.845 345.778C70.8827 345.794 70.9016 345.811 70.9392 345.827C70.9581 345.844 70.977 345.86 71.0146 345.877L183.952 403.581Z" fill="#80B4FF"/>
<path d="M185.591 409.749C184.234 412.206 181.332 413.443 179.089 412.503C178.845 412.404 178.618 412.272 178.411 412.14C177.827 411.745 177.393 411.2 177.13 410.574C176.602 409.353 176.658 407.787 177.45 406.335C178.562 404.29 180.767 403.103 182.764 403.284C183.179 403.317 183.593 403.416 183.97 403.581C184.046 403.614 184.102 403.647 184.178 403.664L184.423 403.812C184.46 403.829 184.479 403.845 184.517 403.862C186.307 404.999 186.835 407.506 185.591 409.749Z" fill="#3081E2"/>
<path d="M102.75 423.767C105.765 425.383 107.122 424.723 110.759 425.927C114.415 427.115 121.387 430.941 124.308 431.205C127.229 431.485 130.866 430.083 131.903 427.906C132.939 425.713 130.037 424.047 126.815 422.596C123.573 421.128 115.96 416.214 115.96 416.214L105.445 415.356C106.085 415.933 106.538 416.378 106.538 416.378L107.555 421.31L102.675 422.167C102.693 422.151 101.977 422.926 102.75 423.767Z" fill="#595959"/>
<path d="M115.978 415.34C115.978 415.34 123.592 420.271 126.833 421.722C130.055 423.173 132.958 424.839 131.921 427.032C130.885 429.226 127.248 430.611 124.327 430.33C121.406 430.05 114.433 426.224 110.777 425.037C107.121 423.849 105.783 424.492 102.749 422.893C101.638 422.299 101.204 417.764 103.409 414.301" fill="#347EE8"/>
<path d="M68.1693 391.987C68.1693 392.152 68.2071 392.284 68.2636 392.4C68.7724 393.505 69.6204 394.131 72.2209 395.5C74.8404 396.869 76.6306 400.563 78.8166 402.278C81.0026 404.01 83.7728 405.61 86.3922 405.708C88.9928 405.791 92.2153 404.241 92.5356 402.509C92.856 400.777 91.5934 400.233 90.3496 399.508C89.1059 398.782 85.2427 395.681 84.5266 394.857C83.7917 394.032 82.1333 391.575 82.1333 391.575L73.3894 385.275C72.1268 385.852 71.1091 386.644 70.3177 387.502C70.7134 387.452 71.0715 387.436 71.1468 387.502C71.3164 387.65 72.1267 389.53 72.1267 389.53C72.1267 389.53 71.4483 390.503 71.2222 390.586C70.9772 390.651 69.0739 390.767 69.0739 390.767C69.0739 390.767 68.2824 391.262 68.1693 391.987Z" fill="#595959"/>
<path d="M82.4537 390.882C82.4537 390.882 84.112 393.34 84.847 394.164C85.5819 394.989 89.4263 398.089 90.6889 398.815C91.9326 399.54 93.1952 400.085 92.8749 401.816C92.5545 403.548 89.332 405.098 86.7314 405.016C84.1309 404.917 81.3419 403.334 79.1559 401.602C76.9699 399.87 75.1796 396.176 72.5602 394.807C69.9596 393.438 69.1304 392.828 68.6028 391.723C68.0751 390.618 69.6392 386.429 73.7097 384.599" fill="#347EE8"/>
<path d="M72.7487 384.335C74.9158 391.443 83.5844 391.08 83.5844 391.08C83.5844 391.08 90.9338 384.335 98.566 376.535C103.937 371.076 109.439 365.089 112.643 360.571C113.359 359.548 113.962 358.608 114.433 357.767C115.093 356.563 115.677 354.947 116.224 353.034C120.219 339.082 121.519 309.38 121.519 309.38L98.811 319.226L99.0182 350.461C99.0182 350.461 96.8511 352.226 94.1752 354.93C92.5545 356.58 90.7454 358.559 89.1247 360.702C84.7527 366.475 72.7487 384.335 72.7487 384.335Z" fill="#3A3D51"/>
<path d="M72.7485 384.335C74.9157 391.443 83.5843 391.08 83.5843 391.08C83.5843 391.08 90.9338 384.335 98.5659 376.535L97.228 363.688L95.0231 354.93H94.1562C92.5356 356.58 90.7265 358.559 89.1058 360.703C84.7527 366.475 72.7485 384.335 72.7485 384.335Z" fill="#242733"/>
<path d="M104.031 328.791C104.031 328.791 107.197 342.875 107.668 342.957C108.026 343.007 111.135 354.798 112.624 360.571C113.34 359.548 113.943 358.608 114.414 357.767C115.074 356.563 115.658 354.947 116.205 353.034C114.772 343.452 110.306 322.211 110.306 322.211H106.217L104.031 328.791Z" fill="#333647"/>
<path d="M79.608 323.381C80.5879 327.686 87.2778 343.386 92.1586 355.013C95.2303 362.351 97.0771 369.987 97.7178 377.771C98.8297 391.377 101.166 411.893 101.958 415.867C101.958 415.867 102.731 416.411 104.012 416.956C106.745 418.094 111.795 419.182 116.732 414.96C116.732 414.96 116.902 371.372 116.676 363.72C116.468 356.068 108.139 324.882 108.139 324.882C108.139 324.882 121.048 321.238 121.462 309.396L85.7137 313.437L79.5703 314.13C79.608 314.13 78.1758 316.95 79.608 323.381Z" fill="#3A3D51"/>
<path d="M79.6081 323.382C80.5881 327.686 87.278 343.386 92.1587 355.013C95.2304 362.352 97.0772 369.987 97.718 377.771C98.8298 391.377 101.167 411.893 101.958 415.867C101.958 415.867 102.731 416.412 104.012 416.956C103.202 406.253 100.695 373.038 100.205 366.854C99.6589 359.449 93.8359 347.328 90.2931 336.575C86.7503 325.822 87.3722 314.872 87.3722 314.872L85.7138 313.421L79.5705 314.113C79.6082 314.13 78.1759 316.95 79.6081 323.382Z" fill="#333647"/>
<path d="M77.7612 314.196C77.7612 314.196 77.5163 314.921 77.3467 315.927C77.2901 316.257 77.4409 316.571 77.7612 316.752C78.4773 317.164 80.098 317.989 83.2451 319.044C86.8067 320.232 91.5368 320.413 94.9477 320.133C96.3799 320.017 110.438 317.296 118.843 312.646C120.972 311.458 122.065 309.265 121.651 307.088V307.038C121.368 305.587 77.7612 314.196 77.7612 314.196Z" fill="#2268BC"/>
<path d="M71.1844 267.409C72.2586 271.268 73.5589 275.094 74.8969 278.903C75.5187 280.701 76.2725 282.482 77.0263 284.247C79.7211 290.613 82.5479 296.995 80.9272 303.938C80.2865 306.659 78.6847 310.073 79.0427 312.86C79.2689 314.526 79.5327 315.944 82.887 317.824C83.5655 318.22 84.3381 318.517 85.1108 318.731L85.563 318.847L85.7703 318.896C86.4864 319.077 87.2025 319.209 87.9186 319.308C89.6712 319.572 91.4426 319.622 93.214 319.49C94.0432 319.44 94.8723 319.341 95.6827 319.209C100.79 318.368 110.325 316.323 118.56 311.854C118.579 311.838 118.617 311.838 118.617 311.838C121.18 310.485 122.574 307.22 121.764 302.718C121.368 300.458 120.746 297.308 120.219 294.752C119.616 291.751 119.352 288.683 119.465 285.632C119.521 284.263 119.559 282.878 119.597 281.526C121.104 273.065 126.532 255.914 123.893 251.296C122.197 248.377 119.163 243.413 119.163 243.413C119.163 243.413 112.53 241.797 109.081 241.599C108.591 241.583 108.12 241.566 107.63 241.566C104.841 242.044 101.92 242.44 99.037 242.984C97.1714 243.331 95.3246 243.71 93.5155 244.205C92.969 244.353 92.4602 244.502 91.9326 244.667C91.4991 244.815 91.0657 244.947 90.6511 245.095C88.0129 245.986 86.1661 246.745 84.6962 247.371C82.8871 248.163 81.6621 248.823 80.3618 249.565C80.2865 249.598 80.23 249.631 80.1546 249.68C78.6847 250.505 76.4798 251.89 74.5011 253.44C72.579 254.941 70.8829 256.574 70.3176 257.975C70.1668 258.355 69.9972 258.932 69.8465 259.724C69.8276 259.773 69.8276 259.823 69.8276 259.872C69.5638 262.329 70.5249 265.034 71.1844 267.409Z" fill="#347EE8"/>
<path d="M69.8842 259.707L72.9182 260.037C73.7285 254.628 91.6311 246.431 91.6311 246.431L91.9514 244.65C91.518 244.799 91.0846 244.93 90.67 245.079C88.0317 245.969 86.1849 246.728 84.715 247.355C82.9059 248.146 81.681 248.806 80.3807 249.548C80.3054 249.581 80.2488 249.614 80.1734 249.664C78.7035 250.488 76.4987 251.873 74.52 253.424C72.5978 254.924 70.9018 256.557 70.3364 257.959C70.1857 258.338 70.0349 258.915 69.8842 259.707Z" fill="#266FC6"/>
<path d="M92.0644 236.008V242.786C92.0644 242.786 99.9979 247.8 104.2 247.074C106.009 246.761 106.971 244.732 106.594 241.863L102.768 241.187L92.0644 236.008Z" fill="#F2BA88"/>
<path d="M105.161 246.678L109.665 251.313C109.665 251.313 109.835 245.755 106.82 242.918C103.88 240.148 103.767 242.539 103.767 242.539C103.767 242.539 106.537 245.343 105.161 246.678Z" fill="white"/>
<path d="M113.962 226.987C113.962 226.987 114.603 232.66 113.265 237.855C111.927 243.05 111.512 244.221 109.119 245.145C106.726 246.068 104.577 246.167 100.563 243.908C96.5495 241.648 94.3447 237.954 94.3447 237.954C94.3447 237.954 93.7793 238.284 92.3283 236.866C90.0857 234.639 89.6523 233.535 89.6523 230.517C89.6523 227.499 90.5192 223.705 93.1951 219.78C95.8711 215.839 104.106 217.109 107.838 218.774C111.569 220.457 113.246 223.607 113.962 226.987Z" fill="#FFD1A4"/>
<path d="M117.222 227.235C113.114 233.584 102.881 229.412 102.881 229.412C102.128 232.166 99.9227 232.43 98.8485 232.941C97.7932 233.452 97.5671 236.124 97.5671 236.124H96.606C96.606 236.124 96.5683 233.452 96.0783 232.1C95.5884 230.764 92.724 229.725 91.2918 231.688C89.9915 233.452 91.4802 235.415 92.3471 236.866C92.6298 239.175 92.0832 240.148 92.0832 240.148C92.0832 240.148 90.5191 238.795 89.4826 236.041C88.4273 233.287 87.6547 227.499 89.4826 221.298C89.6711 220.655 89.9538 220.061 90.3307 219.517C93.4778 214.866 102.429 213.975 105.953 215.014C108.987 215.921 116.506 218.906 117.901 223.161C118.296 224.398 118.146 225.783 117.222 227.235Z" fill="#2A3049"/>
<path d="M117.524 353.958C117.467 354.287 117.411 354.617 117.354 354.931C117.411 354.551 117.467 354.238 117.524 353.958Z" fill="#3A3A3A"/>
<path d="M92.0832 242.094C92.0832 242.094 91.5933 242.654 91.2164 243.496C90.896 244.188 90.6699 245.062 90.6699 245.062C90.6699 245.062 93.9112 250.9 102.825 253.407L103.843 247.091C103.824 247.124 96.0218 246.184 92.0832 242.094Z" fill="white"/>
<path d="M117.222 227.235C113.114 233.584 102.881 229.412 102.881 229.412C102.128 232.166 99.9227 232.43 98.8485 232.941C97.7932 233.452 97.5671 236.124 97.5671 236.124H96.606C96.606 236.124 96.5683 233.452 96.0783 232.1C95.5884 230.764 92.724 229.725 91.2918 231.688C89.9915 233.452 91.4802 235.415 92.3471 236.866C92.6298 239.175 92.0832 240.148 92.0832 240.148C92.0832 240.148 90.5191 238.795 89.4826 236.041C88.4273 233.287 87.6547 227.499 89.4826 221.298C89.6711 220.655 89.9538 220.061 90.3307 219.517C92.0456 220.803 97.0018 224.316 102.184 226.229C108.629 228.587 114.132 228.208 115.79 227.037C118.183 225.338 117.901 223.161 117.901 223.161C118.296 224.398 118.146 225.783 117.222 227.235Z" fill="#1C2235"/>
<path d="M82.152 323.695C82.152 323.695 82.397 327.092 82.7551 327.851C82.9058 328.28 83.2638 328.676 83.5276 329.055C83.9799 329.731 86.0152 332.914 86.3167 334.778C86.5052 335.948 85.6571 339.395 85.2425 340.071C85.2048 340.154 85.1484 340.22 85.0541 340.269C84.9599 340.319 84.8468 340.319 84.7337 340.302C83.4523 340.137 83.3769 338.752 83.49 337.878C83.5465 337.383 83.5654 335.866 83.1885 335.899C81.7186 336.691 81.549 340.038 81.304 341.358C80.9648 343.139 82.1143 346.701 81.1155 346.652C80.7198 346.635 77.5915 345.464 76.932 344.293C75.839 343.122 75.2171 341.787 75.0098 340.253C74.746 338.406 75.2736 336.757 75.594 335.058C75.8013 333.887 76.1405 332.65 76.3101 331.05C76.4232 330.061 75.9897 326.136 75.9897 326.136L82.152 323.695Z" fill="#FFD1A4"/>
<path d="M80.9272 303.938C80.2864 306.659 78.6846 310.073 79.0427 312.86C79.2688 314.526 79.5326 315.944 82.887 317.824C83.5654 318.22 84.3381 318.517 85.1107 318.731L85.5629 318.846C85.9964 308.589 84.4699 291.718 84.4699 291.718C86.9763 284.065 86.3167 266.832 86.3167 266.832C86.3167 266.832 77.912 275.407 77.912 276.133C77.912 276.545 77.4409 280.751 77.0263 284.247C79.7211 290.613 82.5478 296.995 80.9272 303.938Z" fill="#266FC6"/>
<path d="M66.492 292.839L74.991 327.554C74.991 327.554 75.3679 327.752 76.1217 327.9C77.4596 328.181 79.9849 328.28 83.6784 326.713C83.6784 326.713 82.8681 299.584 81.8316 291.619C81.8316 291.619 87.5039 272.158 86.0906 263.401C85.186 257.761 79.6833 255.815 75.2548 256.458C72.8238 256.821 70.6943 257.959 69.8652 259.707C69.884 259.707 64.8336 287.825 66.492 292.839Z" fill="#347EE8"/>
<path d="M125.118 279.645C125.137 279.629 125.156 279.629 125.175 279.612C125.175 279.612 119.559 269.717 118.108 265.792L119.408 243.496C119.408 243.496 124.44 244.304 128.906 252.5C133.391 260.713 142.964 280.948 141.833 284.329C141.833 284.329 135.125 279.596 125.175 279.645C125.156 279.645 125.137 279.645 125.118 279.645Z" fill="#347EE8"/>
<path d="M94.0431 274.385V300.903C94.0431 300.903 94.0431 300.92 94.0431 300.936C94.0431 301.052 94.0619 301.481 94.3069 301.613L94.3258 301.629C94.3635 301.646 94.3823 301.662 94.4012 301.679L94.8723 301.959L94.9288 301.843L117.316 290.415V262.164L117.806 261.307L117.316 261.059L95.4753 272.191C94.5896 272.653 94.0431 273.494 94.0431 274.385Z" fill="#97A2CE"/>
<path d="M117.806 261.323L95.9653 272.472C95.0796 272.917 94.5331 273.758 94.5331 274.665V301.431C94.5331 301.942 95.1738 302.256 95.6638 302.008L117.806 290.712V261.323V261.323Z" fill="#B4BBE1"/>
<path d="M124.685 264.786L117.806 261.323L117.222 261.62L117.486 268.464L124.685 264.786Z" fill="#97A2CE"/>
<path d="M117.222 261.62L124.044 265.116V269.866L117.222 265.562V261.62Z" fill="#8792B2"/>
<path d="M117.222 262.428L123.234 265.529L124.044 293.878L103.088 304.812L96.3043 301.233C95.7013 300.92 95.3432 300.343 95.3432 299.733V274.616C95.3432 273.972 95.7389 273.362 96.3797 273.049L117.222 262.428Z" fill="white"/>
<path d="M101.411 278.112V304.631C101.411 304.631 101.411 304.647 101.411 304.663C101.411 304.779 101.43 305.208 101.675 305.34L101.694 305.356C101.732 305.373 101.751 305.389 101.769 305.406L102.241 305.686L102.297 305.571L124.685 294.142V265.891L125.175 265.034L124.685 264.786L102.844 275.918C101.958 276.38 101.411 277.221 101.411 278.112Z" fill="#97A2CE"/>
<path d="M125.175 265.034L103.333 276.182C102.448 276.644 101.901 277.468 101.901 278.376V305.142C101.901 305.653 102.542 305.966 103.032 305.719L125.175 294.422V265.034V265.034Z" fill="#B4BBE1"/>
<path d="M93.0067 291.173C93.1386 290.365 93.8923 290.101 93.8923 290.101L97.3786 291.503C97.1337 291.256 96.3987 290.761 96.1161 290.514C95.3623 289.854 95.758 289.178 96.1161 289.112C96.4741 289.046 99.64 290.299 100.507 290.745C100.846 290.926 101.317 291.421 101.581 291.751C102.259 292.361 102.938 292.443 103.334 292.427L106.424 291.454L109.703 293.647L108.912 296.929C108.912 296.929 103.032 299.799 101.261 299.403C95.3057 298.1 93.5909 295.527 93.5909 295.527C93.1009 294.851 92.8748 291.981 93.0067 291.173Z" fill="#FFD1A4"/>
<path d="M107.988 297.754C107.988 297.754 108.252 297.325 108.346 296.764C108.629 294.851 107.554 291.586 104.539 291.701C104.539 291.701 115.771 284.313 125.137 279.629C125.702 279.431 131.091 279.497 135.2 280.734C139.176 281.938 141.852 284.313 141.852 284.313C140.683 287.71 107.988 297.754 107.988 297.754Z" fill="#347EE8"/>
<path d="M66.492 292.839L74.991 327.554C74.991 327.554 75.3679 327.752 76.1217 327.9C75.5752 325.41 69.036 295.214 68.7533 290.085C68.433 284.741 75.2737 256.475 75.2737 256.475C72.8427 256.837 70.7132 257.975 69.884 259.723C69.884 259.707 64.8336 287.825 66.492 292.839Z" fill="#266FC6"/>
<path opacity="0.55" d="M147.053 288.601C147.053 288.601 147.053 288.601 147.053 288.584L147.261 282.73C147.261 282.73 147.261 282.713 147.261 282.68V282.433L147.279 282.466C147.864 271.631 165.314 263.352 186.458 263.896C207.734 264.424 224.694 273.742 224.317 284.659L224.129 290.58C223.978 294.736 221.377 298.496 217.043 301.563L225.184 305.999C226.22 305.571 227.313 305.356 228.406 305.455C228.972 305.505 229.499 305.637 230.046 305.851C230.14 305.884 230.215 305.933 230.31 305.983L230.63 306.148C230.687 306.164 230.724 306.197 230.762 306.23C230.818 306.263 230.818 306.28 230.875 306.313L271.259 328.032C265.474 329.715 259.538 331.727 253.508 334.101L223.431 317.956C223.092 317.808 222.791 317.643 222.527 317.428C221.735 316.917 221.151 316.175 220.755 315.334C220.36 314.443 220.265 313.437 220.341 312.382L209.562 306.511C209.373 306.428 209.203 306.329 209.015 306.23C208.864 306.115 208.714 305.966 208.6 305.835C201.986 308.275 193.788 309.628 184.913 309.413C164.221 308.869 147.638 300.079 147.016 289.541L146.997 289.557L147.053 288.601Z" fill="#B4BBE1"/>
<path d="M228.651 268.019C228.614 269.058 228.425 270.097 228.105 271.086C224.882 280.932 207.941 288.106 187.796 287.595C167.651 287.083 151.237 279.035 148.674 269.041C148.41 268.035 148.335 259.658 148.335 259.658C148.335 259.658 158.888 241.286 189.19 241.649C207.526 241.879 228.651 261.719 228.651 261.719C228.651 261.719 228.708 266.04 228.651 268.019ZM222.263 267.854C222.338 265.364 221.396 262.972 219.625 260.779C214.593 254.562 202.872 250.01 189.059 249.647C175.264 249.284 163.26 253.226 157.814 259.179C155.892 261.274 154.799 263.616 154.704 266.106C154.384 275.671 169.234 279.398 187.89 279.877C206.565 280.371 221.943 277.436 222.263 267.854Z" fill="#4588FF"/>
<path opacity="0.2" d="M223.808 261.719C223.488 271.482 207.47 279.002 188.022 278.508C168.593 278.013 153.103 269.685 153.442 259.905C153.762 250.142 169.78 242.622 189.228 243.116C208.657 243.628 224.147 251.956 223.808 261.719Z" fill="url(#paint21_linear_1_1779)"/>
<path opacity="0.2" d="M208.864 246.547C173.813 247.223 163.279 262.313 160.358 270.855C155.892 267.755 153.31 263.962 153.442 259.905C153.781 250.142 169.686 242.968 189.134 243.463C196.276 243.66 203.399 244.584 208.864 246.547Z" fill="white"/>
<path opacity="0.6" d="M220.341 262.098C220.058 270.74 205.868 277.403 188.663 276.957C171.457 276.512 157.757 269.157 158.059 260.499C158.078 260.251 158.078 260.004 158.115 259.757C159.076 267.871 172.268 274.566 188.663 274.995C205.34 275.44 219.191 269.19 220.265 260.927C220.341 261.307 220.36 261.703 220.341 262.098Z" fill="white"/>
<path d="M225.108 255.634L215.988 247.338L189.699 241.649L163.071 245.97L153.423 253.77L150.917 258.635L154.723 259.806C154.723 259.806 159.208 243.974 189.605 244.766C219.983 245.541 223.412 261.587 223.412 261.587L227.294 260.614L225.108 255.634Z" fill="#4588FF"/>
<path d="M228.651 261.719C228.614 262.758 228.425 263.797 228.105 264.787C224.882 274.632 207.941 281.806 187.796 281.295C167.651 280.784 151.237 272.736 148.674 262.742C148.41 261.736 148.297 260.697 148.335 259.658C148.712 248.278 167.01 239.505 189.19 240.082C211.371 240.643 229.028 250.34 228.651 261.719ZM222.263 261.571C222.338 259.08 221.396 256.689 219.625 254.496C214.593 248.278 202.872 243.727 189.058 243.364C175.264 243.001 163.26 246.942 157.814 252.896C155.892 254.99 154.799 257.332 154.704 259.823C154.384 269.388 169.234 277.551 187.89 278.029C206.565 278.508 221.943 271.136 222.263 261.571Z" fill="#81C5E8"/>
<path d="M228.651 261.719C228.614 262.758 228.425 263.797 228.105 264.787C224.882 274.632 207.941 281.806 187.796 281.295C167.651 280.784 151.237 272.736 148.674 262.742C148.41 261.736 148.297 260.697 148.335 259.658C148.712 248.278 167.01 239.505 189.19 240.082C211.371 240.643 229.028 250.34 228.651 261.719ZM222.263 261.571C222.338 259.08 221.396 256.689 219.625 254.496C214.593 248.278 202.872 243.727 189.058 243.364C175.264 243.001 163.26 246.942 157.814 252.896C155.892 254.99 154.799 257.332 154.704 259.823C154.384 269.388 169.234 277.551 187.89 278.029C206.565 278.508 221.943 271.136 222.263 261.571Z" fill="#80B4FF"/>
<path d="M233.457 286.094L232.684 287.083H232.665L229.217 291.536L228.331 292.674L213.236 284.428C213.029 284.346 212.859 284.247 212.69 284.131C212.219 283.818 211.861 283.373 211.653 282.861C211.54 282.614 211.465 282.334 211.427 282.053C211.295 281.229 211.446 280.322 211.917 279.431C212.501 278.359 213.462 277.568 214.499 277.188C215.064 276.99 215.648 276.908 216.214 276.957C216.553 276.99 216.873 277.056 217.194 277.188C217.25 277.205 217.307 277.238 217.363 277.254L217.571 277.37C217.589 277.386 217.627 277.403 217.646 277.419L233.457 286.094Z" fill="#CDD5F7"/>
<path d="M233.457 286.094L232.684 287.083H232.665L214.499 277.221C215.064 277.023 215.648 276.941 216.214 276.99C216.553 277.023 216.873 277.089 217.194 277.221C217.25 277.238 217.307 277.271 217.363 277.287L217.571 277.403C217.589 277.419 217.627 277.436 217.646 277.452L233.457 286.094Z" fill="white"/>
<path d="M229.254 291.553L228.369 292.69L213.274 284.445C213.067 284.362 212.897 284.263 212.728 284.148C212.256 283.834 211.898 283.389 211.691 282.878C211.578 282.631 211.503 282.35 211.465 282.07L229.254 291.553Z" fill="#B4BBE1"/>
<path d="M281.511 309.166L279.325 312.547L273.69 321.238L227.766 296.401H227.747C227.389 296.253 227.087 296.088 226.805 295.874C225.975 295.313 225.354 294.554 224.977 293.664C224.223 291.932 224.317 289.739 225.429 287.677C225.843 286.902 226.371 286.226 226.974 285.649C226.974 285.649 226.974 285.649 226.974 285.632C228.633 284.032 230.837 283.175 232.91 283.373C233.494 283.422 234.079 283.554 234.606 283.785C234.701 283.818 234.795 283.868 234.889 283.917L235.247 284.115C235.304 284.131 235.341 284.164 235.379 284.181C235.417 284.197 235.435 284.23 235.473 284.247L281.511 309.166Z" fill="#4588FF"/>
<path d="M281.511 309.166L279.325 312.547L273.804 311.095L226.974 285.665C226.974 285.665 226.974 285.665 226.974 285.649C226.974 285.649 226.974 285.649 226.974 285.632C228.632 284.032 230.837 283.175 232.91 283.373C233.494 283.422 234.079 283.554 234.606 283.785C234.701 283.818 234.795 283.868 234.889 283.917L235.247 284.115C235.304 284.131 235.341 284.164 235.379 284.181C235.417 284.197 235.435 284.23 235.473 284.247L281.511 309.166Z" fill="#80B4FF"/>
<path d="M283.829 317.874C281.926 321.353 277.817 323.085 274.652 321.766H274.633C274.293 321.617 273.973 321.452 273.672 321.238C272.861 320.677 272.239 319.919 271.844 319.028C271.09 317.296 271.184 315.103 272.296 313.058C273.879 310.172 276.969 308.49 279.777 308.754C280.361 308.803 280.946 308.935 281.473 309.166C281.568 309.199 281.662 309.248 281.756 309.298L282.114 309.496C282.171 309.512 282.208 309.545 282.246 309.562C284.828 311.161 285.563 314.691 283.829 317.874Z" fill="#3081E2"/>
<path d="M331.959 411.629V413.361C331.959 413.707 332.015 414.037 332.128 414.367C332.128 414.367 332.128 414.367 332.128 414.383C332.147 414.466 332.185 414.515 332.223 414.598C332.26 414.647 332.279 414.713 332.336 414.812C332.373 414.862 332.43 414.928 332.468 415.027C332.581 415.142 332.675 415.291 332.807 415.439C332.863 415.521 332.92 415.587 332.976 415.67C333.033 415.719 333.108 415.785 333.165 415.818C333.259 415.901 333.353 415.983 333.447 416.082C333.937 416.478 334.635 416.94 335.577 417.335C338.592 418.655 341.777 419.628 344.001 420.782C344.717 421.162 346.695 422.316 346.695 422.316C346.695 422.316 348.297 423.454 349.56 424.13C350.86 424.806 353.649 425.977 356.4 425.73C359.114 425.466 360.414 423.949 360.546 423.025L360.509 421.574L350.427 418.292L331.959 411.629Z" fill="#3A3A3A"/>
<path d="M349.616 411.217C349.616 411.217 346.526 411.102 341.475 410.343C336.425 409.584 332.957 409.37 332.298 410.755C331.657 412.091 331.525 413.526 336.029 416.214C340.533 418.919 344.019 419.199 347.637 421.739C350.313 423.619 352.726 424.064 355.402 424.229C358.096 424.394 359.905 423.487 360.49 422.53C361.846 420.304 360.433 416.082 360.433 416.082L349.616 411.217Z" fill="#347EE8"/>
<path d="M313.717 422.25V423.85C313.698 424.592 314.169 425.252 314.904 425.614C316.638 426.422 320.162 427.775 325.363 428.336C330.413 428.88 332.128 429.061 332.128 429.061C332.128 429.061 334.333 429.21 335.916 429.375C337.518 429.556 340.137 429.49 341.287 428.616C341.569 428.385 341.758 428.22 341.927 428.072C341.927 428.072 341.927 428.055 341.946 428.039C341.946 428.039 341.965 428.006 341.984 427.989C342.078 427.907 342.135 427.824 342.191 427.725C342.361 427.429 342.399 427.049 342.436 426.901C342.436 426.851 342.436 426.818 342.436 426.818L342.417 426.159V425.862L338.705 425.631C338.686 425.631 338.686 425.631 338.686 425.631L336.858 425.515L335.143 425.416L333.56 425.317L313.717 422.25Z" fill="#3A3A3A"/>
<path d="M328.51 418.16C328.51 418.16 326.305 419.974 323.705 419.974C321.104 419.974 316.035 419.925 314.734 420.716C314.094 421.112 313.754 421.59 313.717 422.134C313.679 422.679 313.924 423.272 314.414 423.899C315.394 425.152 321.952 427.032 326.889 427.362C331.827 427.709 332.091 427.643 334.427 427.989C336.764 428.335 339.195 428.484 340.665 427.857C343.209 426.752 343.379 423.388 341.833 421.161C340.269 418.952 328.51 418.16 328.51 418.16Z" fill="#347EE8"/>
<path d="M355.458 257.299L355.854 258.124L355.232 260.829L345.357 265.182L344.773 265.116L343.19 264.951L340.703 264.671V261.67C340.703 260.136 339.742 258.635 338.14 258.025C338.083 257.992 338.027 257.975 338.027 257.975C337.48 257.794 336.915 257.481 336.35 256.986L336.199 256.854C334.295 255.089 332.599 251.115 333.089 242.44C333.184 240.923 333.579 238.301 334.371 236.965C335.803 234.557 338.856 232.957 345.15 234.458C355.647 236.998 360.226 241.17 360.753 244.766C361.3 248.361 355.458 257.299 355.458 257.299Z" fill="#FFD1A4"/>
<path d="M340.722 264.655V261.653C340.722 260.12 339.76 258.619 338.159 258.009C338.667 258.206 340.269 258.883 342.38 259.872C343.228 260.268 343.209 262.659 343.209 264.935L340.722 264.655Z" fill="#F2BA88"/>
<path d="M332.468 275.985L317.448 268.25L318.428 275.111L327.266 283.422L332.468 275.985Z" fill="#FFD1A4"/>
<path d="M323.893 280.536L305.048 289.013C304.445 289.293 303.691 289.013 303.503 288.436L294.344 262.775C294.024 261.835 294.495 260.829 295.456 260.4L312.963 252.533C313.886 252.121 314.998 252.55 315.319 253.457L324.534 279.25C324.684 279.745 324.421 280.289 323.893 280.536Z" fill="#0A2982"/>
<path d="M322.819 279.827L305.651 287.595C305.199 287.809 304.634 287.595 304.483 287.166L295.89 263.154C295.551 262.016 295.607 261.521 296.907 260.961L313.246 253.572C313.66 253.391 314.15 253.572 314.282 253.985L323.215 278.986C323.365 279.3 323.177 279.662 322.819 279.827Z" fill="#205CE1"/>
<g opacity="0.5">
<path opacity="0.5" d="M297.812 262.395L298.151 263.319L313.265 256.491L312.963 255.617C312.963 255.601 312.944 255.584 312.944 255.568L297.812 262.395Z" fill="#6CE3FF"/>
<path opacity="0.5" d="M298.924 265.413L299.244 266.321L314.358 259.526L314.037 258.619L298.924 265.413Z" fill="#6CE3FF"/>
<path opacity="0.5" d="M299.998 268.431L300.318 269.355L315.469 262.544L315.111 261.62L299.998 268.431Z" fill="#6CE3FF"/>
<path opacity="0.5" d="M301.072 271.449L301.411 272.373L316.544 265.545L316.204 264.638L301.072 271.449Z" fill="#6CE3FF"/>
<path opacity="0.5" d="M302.165 274.5L302.485 275.408L317.618 268.58L317.297 267.673L302.165 274.5Z" fill="#6CE3FF"/>
<path opacity="0.5" d="M303.239 277.502L303.559 278.409L318.711 271.614L318.39 270.691L303.239 277.502Z" fill="#6CE3FF"/>
<path opacity="0.5" d="M304.313 280.536L304.652 281.443L319.785 274.632L319.464 273.725L304.313 280.536Z" fill="#6CE3FF"/>
<path opacity="0.5" d="M305.406 283.554L305.727 284.478L320.859 277.65L320.539 276.727L305.406 283.554Z" fill="#6CE3FF"/>
</g>
<path d="M308.346 284.115L304.973 286.572L304.332 287.034C304.332 287.034 303.559 284.198 302.184 283.126C301.713 282.763 300.337 282.268 299.564 282.087C299.112 281.971 298.716 281.757 298.434 281.427C297.774 280.635 296.794 278.904 297.303 275.902C297.397 275.325 297.567 274.929 297.736 274.649C297.755 274.632 297.755 274.632 297.755 274.632C298.17 274.006 298.698 274.022 298.698 274.022C298.698 274.022 300.978 275.44 301.637 275.869C302.184 276.216 302.881 276.908 303.409 276.397C303.691 276.133 302.033 274.286 301.562 273.445C301.11 272.604 301.995 271.697 302.391 272.01C302.768 272.34 305.105 274.913 306.066 277.09C307.027 279.283 308.346 284.115 308.346 284.115Z" fill="#FFD1A4"/>
<path d="M305.745 284.478L304.973 286.589L304.332 287.051C304.332 287.051 303.559 284.214 302.184 283.142C301.713 282.779 300.337 282.285 299.564 282.103C299.112 281.988 298.716 281.773 298.434 281.444C297.774 280.652 296.794 278.92 297.303 275.919C297.397 275.342 297.567 274.946 297.736 274.665C297.755 274.649 297.755 274.649 297.755 274.649C297.755 274.649 297.774 275.16 298.716 275.902C299.659 276.628 301.034 277.288 301.694 277.65C302.335 278.013 303.352 279.349 303.993 280.668C304.652 282.004 305.745 284.478 305.745 284.478Z" fill="#F2BA88"/>
<path d="M365.578 339.428C363.241 350.61 361.564 364.479 361.564 364.479C361.564 364.479 365.465 392.252 361.074 416.445C360.885 417.583 360.433 420.007 358.756 420.947C357.795 421.459 355.288 421.821 353.329 420.914C353.253 420.865 353.159 420.848 353.084 420.799C346.526 417.665 347.223 413.592 346.281 410.92C346.3 400.151 347.581 373.682 344.98 367.86L342.644 344.393L343.492 327.62H366.953V327.67L367.066 327.62C367.066 327.637 369.064 332.139 365.578 339.428Z" fill="#3A3A3A"/>
<path d="M358.417 339.89C356.212 346.239 353.366 362.847 352.763 366.887C352.763 366.887 354.949 398.848 353.084 420.815C346.526 417.682 347.223 413.608 346.281 410.937C346.299 400.167 347.581 373.698 344.98 367.877L342.644 344.409L343.492 327.637H359.623C359.623 327.637 360.621 333.524 358.417 339.89Z" fill="#2D2D2D"/>
<path d="M356.909 333.178C356.174 336.064 354.723 340.088 351.84 343.914C351.388 344.508 350.992 345.118 350.596 345.728C350.521 346.009 349.371 349.769 347.958 354.815C346.526 359.862 344.811 366.178 343.586 371.571C344.264 378.316 346.168 401.965 342.531 422.448C342.267 423.899 341.08 425.103 339.44 425.499C338.686 425.68 337.819 425.796 336.858 425.746C336.161 425.697 335.445 425.581 334.691 425.301C330.847 423.883 328.077 418.506 328.077 418.506C328.077 418.506 327.982 384.5 325.966 375.578C325.57 373.863 325.382 372.148 325.25 370.417C324.873 364.958 324.195 354.98 323.987 350.808C323.592 342.694 323.516 335.899 323.837 332.865L343.058 333.079L356.909 333.178Z" fill="#3A3A3A"/>
<path d="M343.077 333.03C342.983 334.036 342.907 334.695 342.907 334.695C342.907 334.695 342.719 338.934 340.269 345.283C337.819 351.632 335.388 366.706 335.125 372.362C334.861 377.557 338.027 402.328 336.839 425.697C336.142 425.647 335.426 425.532 334.672 425.252C330.828 423.833 328.058 418.457 328.058 418.457C328.058 418.457 327.964 384.451 325.947 375.529C325.551 373.814 325.363 372.099 325.231 370.367C324.854 364.908 324.176 354.931 323.968 350.758C323.573 342.644 323.497 335.85 323.818 332.815L343.077 333.03Z" fill="#2D2D2D"/>
<path d="M369.347 285.731C366.256 293.961 364.504 307.5 366.369 313.141C368.254 318.797 369.347 326.796 369.347 326.796C367.594 331.034 351.199 340.22 342.041 340.913C340.929 340.995 339.798 340.962 338.686 340.797C330.64 339.758 323.083 333.491 323.083 333.491C323.083 333.491 324.816 310.304 325.909 295.478C326.644 285.616 328.303 279.481 329.339 276.463C329.848 274.946 330.206 274.236 330.206 274.236C331.167 273.115 334.069 271.235 337.744 269.108C337.763 269.108 337.801 269.091 337.819 269.075C340.288 267.64 343.096 266.106 345.923 264.655H345.941C349.71 262.709 353.498 260.878 356.532 259.559C356.89 259.41 357.23 259.262 357.55 259.13C359.698 258.206 361.357 257.613 362.205 257.464C366.52 256.755 372.287 258.751 374.039 265.578C375.792 272.439 372.418 277.485 369.347 285.731Z" fill="#347EE8"/>
<path opacity="0.75" d="M337.706 313.058C337.16 319.391 338.253 335.173 338.667 340.83C330.621 339.791 323.064 333.524 323.064 333.524C323.064 333.524 324.798 310.337 325.891 295.511C326.626 285.649 328.284 279.514 329.32 276.496C330.187 275.622 330.753 275.061 330.753 275.061H341.362C341.362 275.061 346.884 276.051 344.886 287.051C342.87 298.051 338.366 305.29 337.706 313.058Z" fill="#205CE2"/>
<path d="M357.606 262.626C355.986 264.556 350.2 267.359 347.543 267.854C344.867 268.332 342.738 268.102 341.475 268.085C339.704 268.069 338.328 268.926 337.819 269.108C337.782 269.124 337.763 269.141 337.744 269.141C337.725 269.157 337.706 269.157 337.706 269.157L339.289 267.046L341.136 266.024C341.136 266.024 343.831 265.166 344.434 264.919C344.622 264.836 345.207 264.77 345.942 264.688H345.96C347.562 264.523 349.842 264.374 350.2 264.341C350.709 264.292 354.855 261.785 355.044 261.686C355.138 261.637 355.967 260.449 356.551 259.592C356.909 259.443 357.248 259.295 357.569 259.163C358.115 259.79 358.888 261.093 357.606 262.626Z" fill="#165BD6"/>
<path d="M363.524 245.095C362.619 249.812 358.059 257.233 355.741 257.91C354.346 258.338 353.027 258.503 351.934 258.553C350.125 258.635 348.504 257.514 348.184 255.947C347.901 254.628 347.43 252.962 346.62 251.676C344.999 249.07 342.889 247.701 341.833 248.179C340.759 248.658 340.872 250.34 340.872 250.34L340.175 250.323C340.175 250.323 340.118 249.779 340.005 249.07C339.93 248.361 339.836 247.454 339.798 246.761C339.798 244.997 339.176 243.265 337.951 241.88C337.216 241.022 336.331 239.703 335.37 237.707C334.748 236.388 334.597 235.118 334.729 233.98V233.964C335.162 230.335 336.858 228.851 338.46 227.812C343.68 224.464 354.591 230.682 358.624 233.65C360.829 235.266 362.374 237.146 363.147 239.274V239.29C363.806 241.055 363.938 242.968 363.524 245.095Z" fill="#713E23"/>
<path d="M356.853 258.932L355.854 258.124C349.334 264.424 340.722 264.655 340.722 264.655C340.722 264.655 338.366 266.733 337.688 269.157L339.063 268.382C339.779 267.97 340.59 267.689 341.438 267.574C341.984 267.508 343.171 267.442 343.171 267.442C348.561 267.376 353.932 264.078 356.721 262.049C357.851 261.241 357.908 259.79 356.853 258.932Z" fill="white"/>
<path d="M332.467 415.455C332.562 415.62 332.694 415.752 332.807 415.884C332.675 415.719 332.562 415.587 332.467 415.455Z" fill="#474747"/>
<path d="M332.976 416.098C332.901 416.032 332.863 415.95 332.807 415.884C332.901 415.999 333.014 416.131 333.165 416.263C333.089 416.214 333.052 416.164 332.976 416.098Z" fill="#474747"/>
<path d="M303.767 285.5C303.767 285.5 303.767 285.5 303.767 285.517C303.918 285.896 305.444 290.217 306.367 292.922C307.253 295.527 310.174 304.977 312.53 309.479C312.549 309.562 312.586 309.628 312.643 309.71C312.775 309.925 312.888 310.106 312.963 310.271C312.982 310.353 313.02 310.403 313.076 310.485C313.076 310.502 313.095 310.502 313.095 310.518C313.208 310.683 313.284 310.865 313.359 311.013C314.245 312.448 315.865 313.635 317.938 313.866H318.183C321.424 313.866 329.17 301.679 331.469 297.952C330.527 297.44 329.377 296.797 328.133 296.006C325.891 294.571 323.403 292.658 321.538 290.233C320.388 292.476 318.032 295.808 316.996 297.952C316.996 297.952 316.864 297.671 316.676 297.176C315.941 295.577 313.811 291.718 312.077 289.607C309.552 286.556 307.969 282.466 307.762 282.021C307.762 282.152 307.649 282.532 306.481 282.664C306.085 282.713 305.689 283.01 305.293 283.406C304.898 283.802 304.54 284.296 304.219 284.742C304.163 284.791 304.125 284.857 304.087 284.907C303.955 285.121 303.842 285.286 303.767 285.5Z" fill="#FFD1A4"/>
<path d="M303.767 285.5C303.767 285.5 303.767 285.5 303.767 285.517C303.918 285.896 305.444 290.217 306.367 292.921C307.253 295.527 310.174 304.977 312.53 309.479C312.549 309.562 312.586 309.628 312.643 309.71C312.775 309.925 312.888 310.106 312.963 310.271C312.982 310.353 313.02 310.403 313.076 310.485C313.076 310.502 313.095 310.502 313.095 310.518C313.208 310.683 313.284 310.865 313.359 311.013C314.245 312.448 315.865 313.635 317.938 313.866H318.183C321.424 313.866 329.17 301.679 331.469 297.951C330.527 297.44 329.377 296.797 328.133 296.005C325.853 299.7 319.201 310.287 316.713 310.271C315.526 310.271 313.057 303.427 311.248 299.337C309.439 295.247 305.312 283.406 305.312 283.406C304.916 283.802 304.558 284.296 304.238 284.742C304.181 284.791 304.144 284.857 304.106 284.907C303.955 285.121 303.842 285.286 303.767 285.5Z" fill="#F2BA88"/>
<path d="M319.954 290.745C322.762 294.406 327.869 297.49 330.583 298.974C331.412 299.436 332.072 299.749 332.486 299.931C333.052 299.155 341.475 287.562 342.361 283.521C342.474 283.241 342.531 282.977 342.568 282.746C343.68 277.386 341.796 275.473 341.551 275.226C341.494 275.176 341.438 275.11 341.4 275.061C337.593 271.07 331.45 270.938 327.869 276.826C326.211 279.547 322.857 284.989 319.954 290.745Z" fill="#347EE8"/>
<path d="M363.524 245.095C362.619 249.812 358.059 257.233 355.741 257.91C354.346 258.338 353.027 258.503 351.934 258.553C350.125 258.635 348.504 257.514 348.184 255.947C347.901 254.628 347.43 252.962 346.62 251.676C344.999 249.07 342.889 247.701 341.833 248.179C340.759 248.658 340.872 250.34 340.872 250.34L340.175 250.323C340.175 250.323 340.118 249.779 340.005 249.07C339.93 248.361 339.836 247.454 339.798 246.761C339.798 244.996 339.176 243.265 337.951 241.88C337.216 241.022 336.331 239.703 335.37 237.707C334.748 236.388 334.597 235.118 334.729 233.98C335.238 235.118 339.591 243.99 351.746 246.217C364.428 248.542 363.241 239.736 363.147 239.29C363.806 241.055 363.938 242.968 363.524 245.095Z" fill="#442312"/>
<path d="M329.942 328.692C330.979 330.358 334.635 332.733 338.95 332.205C339.723 332.106 340.533 331.974 341.343 331.809C341.438 331.793 341.513 331.776 341.588 331.776C350.634 329.945 362.544 324.421 365.653 320.529C369.648 315.532 365.71 288.436 359.566 278.095V278.079C357.946 275.374 354.855 274.467 353.046 274.715C353.046 274.715 341.023 278.673 337.216 282.763C333.391 286.836 326.72 323.497 329.942 328.692Z" fill="#FBC006"/>
<path d="M329.942 328.692C330.979 330.358 334.635 332.733 338.95 332.205C339.723 332.106 340.533 331.974 341.343 331.809C338.517 332.469 336.349 329.616 336.349 327.637C336.349 325.674 339.195 295.478 342.436 287.05C343.397 284.56 355.684 279.646 359.547 278.079C357.927 275.374 354.836 274.467 353.027 274.715C353.027 274.715 341.004 278.673 337.198 282.763C333.391 286.836 326.72 323.497 329.942 328.692Z" fill="#FFD04D"/>
<path d="M348.184 276.793C348.184 276.793 345.659 272.571 342.662 270.889C339.666 269.19 336.726 269.602 336.726 269.602L332.26 272.389C332.26 272.389 334.823 272.307 337.669 274.137C339.365 275.226 342.154 279.481 342.154 279.481L348.184 276.793Z" fill="#FFD04D"/>
<path d="M324.779 309.018C324.779 309.018 325.551 313.751 330.734 316.901L329.886 322.887C329.886 322.887 327.059 321.419 324.232 316.159L324.779 309.018Z" fill="#FFD04D"/>
</g>
<defs>
<linearGradient id="paint0_linear_1_1779" x1="401.484" y1="166.885" x2="338.499" y2="166.885" gradientUnits="userSpaceOnUse">
<stop stop-color="#B4BBE1" stop-opacity="0.1"/>
<stop offset="1" stop-color="#B4BBE1" stop-opacity="0.3"/>
</linearGradient>
<linearGradient id="paint1_linear_1_1779" x1="448.625" y1="207.839" x2="529.981" y2="261.512" gradientUnits="userSpaceOnUse">
<stop stop-color="#B4BBE1" stop-opacity="0.1"/>
<stop offset="1" stop-color="#B4BBE1" stop-opacity="0.3"/>
</linearGradient>
<linearGradient id="paint2_linear_1_1779" x1="394.186" y1="216.382" x2="475.541" y2="270.054" gradientUnits="userSpaceOnUse">
<stop stop-color="#B4BBE1" stop-opacity="0.1"/>
<stop offset="1" stop-color="#B4BBE1" stop-opacity="0.3"/>
</linearGradient>
<linearGradient id="paint3_linear_1_1779" x1="476.004" y1="310.363" x2="61.8536" y2="310.363" gradientUnits="userSpaceOnUse">
<stop stop-color="#B4BBE1" stop-opacity="0.1"/>
<stop offset="1" stop-color="#B4BBE1" stop-opacity="0.3"/>
</linearGradient>
<linearGradient id="paint4_linear_1_1779" x1="197.816" y1="262.527" x2="98.9783" y2="262.527" gradientUnits="userSpaceOnUse">
<stop stop-color="#CED5EF"/>
<stop offset="0.3714" stop-color="#D5DDF1"/>
<stop offset="0.8656" stop-color="#DAE3F2"/>
</linearGradient>
<linearGradient id="paint5_linear_1_1779" x1="213.876" y1="270.6" x2="115.074" y2="270.6" gradientUnits="userSpaceOnUse">
<stop stop-color="#CED5EF"/>
<stop offset="0.3714" stop-color="#D5DDF1"/>
<stop offset="0.8656" stop-color="#DAE3F2"/>
</linearGradient>
<linearGradient id="paint6_linear_1_1779" x1="229.936" y1="278.665" x2="131.133" y2="278.665" gradientUnits="userSpaceOnUse">
<stop stop-color="#CED5EF"/>
<stop offset="0.3714" stop-color="#D5DDF1"/>
<stop offset="0.8656" stop-color="#DAE3F2"/>
</linearGradient>
<linearGradient id="paint7_linear_1_1779" x1="245.819" y1="286.661" x2="147.034" y2="286.661" gradientUnits="userSpaceOnUse">
<stop stop-color="#CED5EF"/>
<stop offset="0.3714" stop-color="#D5DDF1"/>
<stop offset="0.8656" stop-color="#DAE3F2"/>
</linearGradient>
<linearGradient id="paint8_linear_1_1779" x1="261.914" y1="294.75" x2="163.147" y2="294.75" gradientUnits="userSpaceOnUse">
<stop stop-color="#CED5EF"/>
<stop offset="0.3714" stop-color="#D5DDF1"/>
<stop offset="0.8656" stop-color="#DAE3F2"/>
</linearGradient>
<linearGradient id="paint9_linear_1_1779" x1="278.93" y1="303.296" x2="180.163" y2="303.296" gradientUnits="userSpaceOnUse">
<stop stop-color="#CED5EF"/>
<stop offset="0.3714" stop-color="#D5DDF1"/>
<stop offset="0.8656" stop-color="#DAE3F2"/>
</linearGradient>
<linearGradient id="paint10_linear_1_1779" x1="295.15" y1="311.462" x2="196.418" y2="311.462" gradientUnits="userSpaceOnUse">
<stop stop-color="#CED5EF"/>
<stop offset="0.3714" stop-color="#D5DDF1"/>
<stop offset="0.8656" stop-color="#DAE3F2"/>
</linearGradient>
<linearGradient id="paint11_linear_1_1779" x1="311.369" y1="319.59" x2="212.602" y2="319.59" gradientUnits="userSpaceOnUse">
<stop stop-color="#CED5EF"/>
<stop offset="0.3714" stop-color="#D5DDF1"/>
<stop offset="0.8656" stop-color="#DAE3F2"/>
</linearGradient>
<linearGradient id="paint12_linear_1_1779" x1="321.873" y1="217.964" x2="209.673" y2="217.964" gradientUnits="userSpaceOnUse">
<stop stop-color="#CED5EF"/>
<stop offset="0.3714" stop-color="#D5DDF1"/>
<stop offset="0.8656" stop-color="#DAE3F2"/>
</linearGradient>
<linearGradient id="paint13_linear_1_1779" x1="337.789" y1="225.975" x2="225.643" y2="225.975" gradientUnits="userSpaceOnUse">
<stop stop-color="#CED5EF"/>
<stop offset="0.3714" stop-color="#D5DDF1"/>
<stop offset="0.8656" stop-color="#DAE3F2"/>
</linearGradient>
<linearGradient id="paint14_linear_1_1779" x1="354.021" y1="234.116" x2="241.804" y2="234.116" gradientUnits="userSpaceOnUse">
<stop stop-color="#CED5EF"/>
<stop offset="0.3714" stop-color="#D5DDF1"/>
<stop offset="0.8656" stop-color="#DAE3F2"/>
</linearGradient>
<linearGradient id="paint15_linear_1_1779" x1="370.036" y1="242.178" x2="257.873" y2="242.178" gradientUnits="userSpaceOnUse">
<stop stop-color="#CED5EF"/>
<stop offset="0.3714" stop-color="#D5DDF1"/>
<stop offset="0.8656" stop-color="#DAE3F2"/>
</linearGradient>
<linearGradient id="paint16_linear_1_1779" x1="386.188" y1="250.288" x2="274.015" y2="250.288" gradientUnits="userSpaceOnUse">
<stop stop-color="#CED5EF"/>
<stop offset="0.3714" stop-color="#D5DDF1"/>
<stop offset="0.8656" stop-color="#DAE3F2"/>
</linearGradient>
<linearGradient id="paint17_linear_1_1779" x1="402.203" y1="258.35" x2="290.049" y2="258.35" gradientUnits="userSpaceOnUse">
<stop stop-color="#CED5EF"/>
<stop offset="0.3714" stop-color="#D5DDF1"/>
<stop offset="0.8656" stop-color="#DAE3F2"/>
</linearGradient>
<linearGradient id="paint18_linear_1_1779" x1="418.309" y1="266.436" x2="306.128" y2="266.436" gradientUnits="userSpaceOnUse">
<stop stop-color="#CED5EF"/>
<stop offset="0.3714" stop-color="#D5DDF1"/>
<stop offset="0.8656" stop-color="#DAE3F2"/>
</linearGradient>
<linearGradient id="paint19_linear_1_1779" x1="434.442" y1="274.541" x2="322.287" y2="274.541" gradientUnits="userSpaceOnUse">
<stop stop-color="#CED5EF"/>
<stop offset="0.3714" stop-color="#D5DDF1"/>
<stop offset="0.8656" stop-color="#DAE3F2"/>
</linearGradient>
<linearGradient id="paint20_linear_1_1779" x1="191.723" y1="386.496" x2="50.9667" y2="386.496" gradientUnits="userSpaceOnUse">
<stop stop-color="#B4BBE1" stop-opacity="0.1"/>
<stop offset="1" stop-color="#B4BBE1" stop-opacity="0.3"/>
</linearGradient>
<linearGradient id="paint21_linear_1_1779" x1="223.823" y1="260.821" x2="153.445" y2="260.821" gradientUnits="userSpaceOnUse">
<stop stop-color="#B4BBE1" stop-opacity="0.1"/>
<stop offset="1" stop-color="#B4BBE1" stop-opacity="0.3"/>
</linearGradient>
<clipPath id="clip0_1_1779">
<rect width="544" height="432" fill="white" transform="matrix(-1 0 0 1 544 0)"/>
</clipPath>
</defs>
</svg>
