<svg width="48" height="48" viewBox="0 0 48 48" fill="none" xmlns="http://www.w3.org/2000/svg">
<circle cx="24" cy="24" r="24" fill="#EEFFFF"/>
<path d="M25.8517 32.8273C25.8836 32.8325 25.9158 32.8369 25.9481 32.8411C25.9158 32.837 25.8837 32.8324 25.8517 32.8273Z" fill="black"/>
<path d="M25.6984 32.7986C25.7177 32.8027 25.737 32.8067 25.7565 32.8104C25.7371 32.8067 25.7177 32.8027 25.6984 32.7986Z" fill="black"/>
<path d="M26.012 32.8497C26.0652 32.8556 26.1189 32.8602 26.1729 32.8634C26.1191 32.8603 26.0654 32.8555 26.012 32.8497Z" fill="black"/>
<path d="M26.5478 32.8633C26.4253 32.8702 26.3021 32.8702 26.1796 32.8633C26.2405 32.8668 26.3018 32.869 26.3637 32.869C26.4255 32.869 26.4868 32.8668 26.5478 32.8633Z" fill="black"/>
<path d="M26.7792 32.8411C26.8115 32.8369 26.8437 32.8325 26.8756 32.8273C26.8436 32.8324 26.8115 32.837 26.7792 32.8411Z" fill="black"/>
<path d="M27.0296 32.7986C27.0103 32.8027 26.991 32.8067 26.9716 32.8104C26.9909 32.8067 27.0103 32.8027 27.0296 32.7986Z" fill="black"/>
<path d="M26.5544 32.8634C26.6084 32.8602 26.662 32.8556 26.7153 32.8497C26.6618 32.8555 26.6082 32.8603 26.5544 32.8634Z" fill="black"/>
<rect x="14" y="11" width="20" height="20" rx="1" fill="#3CBCCC"/>
<rect x="14" y="21.9301" width="20" height="14.186" rx="1" fill="#3CBCCC"/>
<path d="M31.7259 12.3951H16.1266C15.723 12.3951 15.3954 12.7227 15.3954 13.1264V33.8442C15.3954 34.2478 15.723 34.5754 16.1266 34.5754H24.17V33.1129V31.9839C23.5699 31.4068 23.195 30.5971 23.195 29.7006C23.195 27.9535 24.6165 26.532 26.3636 26.532C28.1108 26.532 29.5322 27.9535 29.5322 29.7006C29.5322 30.5971 29.1574 31.4068 28.5573 31.9839V33.1129V34.5754H31.7259C32.1295 34.5754 32.4571 34.2478 32.4571 33.8442V13.1264C32.4571 12.7227 32.1295 12.3951 31.7259 12.3951V12.3951ZM19.0515 18.0011H28.801C29.2046 18.0011 29.5322 18.3287 29.5322 18.7323C29.5322 19.136 29.2046 19.4636 28.801 19.4636H19.0515C18.6478 19.4636 18.3203 19.136 18.3203 18.7323C18.3203 18.3287 18.6478 18.0011 19.0515 18.0011ZM18.3203 16.295C18.3203 15.8913 18.6478 15.5637 19.0515 15.5637H21.9763C22.38 15.5637 22.7075 15.8913 22.7075 16.295C22.7075 16.6986 22.38 17.0262 21.9763 17.0262H19.0515C18.6478 17.0262 18.3203 16.6986 18.3203 16.295ZM19.0515 21.901C18.6478 21.901 18.3203 21.5734 18.3203 21.1697C18.3203 20.7661 18.6478 20.4385 19.0515 20.4385H28.801C29.2046 20.4385 29.5322 20.7661 29.5322 21.1697C29.5322 21.5734 29.2046 21.901 28.801 21.901H19.0515ZM28.801 24.3383H25.8762C25.4725 24.3383 25.1449 24.0108 25.1449 23.6071C25.1449 23.2035 25.4725 22.8759 25.8762 22.8759H28.801C29.2046 22.8759 29.5322 23.2035 29.5322 23.6071C29.5322 24.0108 29.2046 24.3383 28.801 24.3383Z" fill="#E0F7FA"/>
<path d="M26.7151 32.8497C26.7369 32.8473 26.7584 32.8442 26.7801 32.8414C26.7585 32.8443 26.7369 32.8473 26.7151 32.8497Z" fill="black"/>
<path d="M26.8756 32.8273C26.9078 32.8221 26.9397 32.8162 26.9716 32.8101C26.9398 32.8163 26.9078 32.822 26.8756 32.8273Z" fill="black"/>
<path d="M26.1729 32.8628C26.175 32.8629 26.1772 32.8632 26.1794 32.8633C26.1772 32.8631 26.1751 32.8629 26.1729 32.8628Z" fill="black"/>
<path d="M25.7556 32.8101C25.7875 32.8162 25.8194 32.8221 25.8516 32.8273C25.8194 32.822 25.7874 32.8162 25.7556 32.8101Z" fill="black"/>
<path d="M26.5477 32.8633C26.5499 32.8632 26.5521 32.8629 26.5542 32.8628C26.552 32.8629 26.5498 32.8631 26.5477 32.8633Z" fill="black"/>
<path d="M25.948 32.8414C25.9697 32.8443 25.9912 32.8474 26.013 32.8497C25.9912 32.8473 25.9696 32.8443 25.948 32.8414Z" fill="black"/>
<path d="M19.0514 17.0266H21.9763C22.3801 17.0266 22.7075 16.6993 22.7075 16.2954C22.7075 15.8916 22.3801 15.5642 21.9763 15.5642H19.0514C18.6476 15.5642 18.3202 15.8916 18.3202 16.2954C18.3202 16.6993 18.6476 17.0266 19.0514 17.0266Z" fill="#80DEEA"/>
<path d="M19.0514 19.4637H28.801C29.2048 19.4637 29.5322 19.1363 29.5322 18.7324C29.5322 18.3286 29.2048 18.0012 28.801 18.0012H19.0514C18.6476 18.0012 18.3202 18.3286 18.3202 18.7324C18.3202 19.1363 18.6476 19.4637 19.0514 19.4637Z" fill="#80DEEA"/>
<path d="M29.5322 21.1697C29.5322 20.7659 29.2048 20.4385 28.801 20.4385H19.0514C18.6476 20.4385 18.3202 20.7659 18.3202 21.1697C18.3202 21.5735 18.6476 21.9009 19.0514 21.9009H28.801C29.2048 21.9009 29.5322 21.5735 29.5322 21.1697Z" fill="#80DEEA"/>
<path d="M24.1699 34.5757V33.1133V31.9843C24.0837 31.9013 24.0027 31.813 23.9262 31.7209V34.5757H24.1699Z" fill="#B2EBF2"/>
<path d="M31.7258 12.3951H23.9262V18.0011H28.801C29.2046 18.0011 29.5322 18.3287 29.5322 18.7323C29.5322 19.136 29.2046 19.4636 28.801 19.4636H23.9262V20.4385H28.801C29.2046 20.4385 29.5322 20.7661 29.5322 21.1697C29.5322 21.5734 29.2046 21.901 28.801 21.901H23.9262V27.6785C24.5079 26.9785 25.3845 26.532 26.3636 26.532C28.1107 26.532 29.5322 27.9535 29.5322 29.7006C29.5322 30.5971 29.1573 31.4068 28.5572 31.9839V33.1129V34.5754H31.7258C32.1295 34.5754 32.4571 34.2478 32.4571 33.8442V13.1264C32.4571 12.7227 32.1295 12.3951 31.7258 12.3951V12.3951ZM28.801 24.3383H25.8761C25.4725 24.3383 25.1449 24.0108 25.1449 23.6071C25.1449 23.2035 25.4725 22.8759 25.8761 22.8759H28.801C29.2046 22.8759 29.5322 23.2035 29.5322 23.6071C29.5322 24.0108 29.2046 24.3383 28.801 24.3383Z" fill="#B2EBF2"/>
<path d="M28.801 18.0015H23.9262V19.4639H28.801C29.2048 19.4639 29.5322 19.1365 29.5322 18.7327C29.5322 18.3289 29.2048 18.0015 28.801 18.0015Z" fill="#4DD0E1"/>
<path d="M28.801 20.4387H23.9262V21.9012H28.801C29.2048 21.9012 29.5322 21.5738 29.5322 21.1699C29.5322 20.7661 29.2048 20.4387 28.801 20.4387Z" fill="#4DD0E1"/>
<path d="M28.801 22.876H25.8761C25.4723 22.876 25.1449 23.2034 25.1449 23.6072C25.1449 24.011 25.4723 24.3384 25.8761 24.3384H28.801C29.2048 24.3384 29.5322 24.011 29.5322 23.6072C29.5322 23.2034 29.2048 22.876 28.801 22.876Z" fill="#4DD0E1"/>
<path d="M27.0285 32.7988C27.0095 32.8027 26.9905 32.8066 26.9715 32.8105C26.9398 32.8164 26.9076 32.8222 26.8754 32.8276C26.8437 32.8325 26.8116 32.8373 26.7794 32.8412C26.7579 32.8442 26.7365 32.8471 26.715 32.8495C26.6619 32.8554 26.6083 32.8603 26.5542 32.8632C26.5522 32.8632 26.5498 32.8637 26.5478 32.8637C26.425 32.8705 26.3021 32.8705 26.1793 32.8637C26.1774 32.8637 26.1749 32.8632 26.173 32.8632C26.1189 32.8603 26.0652 32.8554 26.0121 32.8495C25.9907 32.8471 25.9692 32.8442 25.9478 32.8412C25.9156 32.8373 25.8834 32.8325 25.8517 32.8276C25.8195 32.8222 25.7874 32.8164 25.7557 32.8105C25.7367 32.8066 25.7177 32.8027 25.6987 32.7988C25.4057 32.7359 25.1278 32.6326 24.8709 32.4946C24.614 32.3567 24.3786 32.1846 24.1699 31.9843V37.0131C24.1699 37.2826 24.3181 37.5308 24.556 37.658C24.7939 37.7847 25.0825 37.7711 25.3067 37.6214L26.3636 36.917L27.4204 37.6214C27.5428 37.7029 27.6841 37.7443 27.826 37.7443C27.9445 37.7443 28.0629 37.7155 28.1711 37.658C28.409 37.5308 28.5572 37.2826 28.5572 37.0131V31.9843C28.1404 32.385 27.6144 32.6731 27.0285 32.7988V32.7988Z" fill="#EF5350"/>
<path d="M30.7442 29.2562C30.7442 29.8652 30.6137 30.4438 30.3785 30.9694C30.1433 31.4943 29.8034 31.965 29.3846 32.3569C28.8034 32.901 28.0699 33.2922 27.2528 33.463C27.2263 33.4683 27.1998 33.4736 27.1733 33.4789C27.1291 33.4869 27.0842 33.4948 27.0394 33.5021C26.9952 33.5087 26.9503 33.5153 26.9054 33.5206C26.8755 33.5246 26.8456 33.5286 26.8157 33.5319C26.7416 33.5398 26.6668 33.5464 26.5914 33.5504C26.5887 33.5504 26.5853 33.5511 26.5825 33.5511C26.4112 33.5603 26.2399 33.5603 26.0686 33.5511C26.0659 33.5511 26.0625 33.5504 26.0598 33.5504C25.9843 33.5464 25.9096 33.5398 25.8355 33.5319C25.8056 33.5286 25.7756 33.5246 25.7457 33.5206C25.7009 33.5153 25.656 33.5087 25.6118 33.5021C25.5669 33.4948 25.5221 33.4869 25.4779 33.4789C25.4514 33.4736 25.4249 33.4683 25.3984 33.463C24.9898 33.3776 24.6023 33.2373 24.2441 33.05C23.8858 32.8626 23.5575 32.6289 23.2666 32.3569C22.4297 31.5731 21.907 30.4736 21.907 29.2562C21.907 26.8837 23.8892 24.9534 26.3256 24.9534C28.7619 24.9534 30.7442 26.8837 30.7442 29.2562V29.2562Z" fill="#FDD835"/>
<path d="M27.0286 32.7988C27.0096 32.8027 26.9905 32.8066 26.9715 32.8105C26.9398 32.8164 26.9077 32.8222 26.8755 32.8276C26.8438 32.8325 26.8116 32.8373 26.7795 32.8412C26.758 32.8442 26.7366 32.8471 26.7151 32.8495C26.662 32.8554 26.6084 32.8603 26.5543 32.8632C26.5523 32.8632 26.5499 32.8637 26.5479 32.8637C26.4865 32.8671 26.4251 32.8688 26.3636 32.8688V36.917L27.4205 37.6214C27.5429 37.7029 27.6842 37.7443 27.8261 37.7443C27.9445 37.7443 28.063 37.7155 28.1712 37.658C28.4091 37.5308 28.5573 37.2826 28.5573 37.0131V31.9843C28.1405 32.385 27.6145 32.6731 27.0286 32.7988V32.7988Z" fill="#D32F2F"/>
<path d="M26.3256 24.9534V33.558C26.4112 33.558 26.4969 33.5557 26.5825 33.5511C26.5852 33.5511 26.5886 33.5504 26.5914 33.5504C26.6668 33.5464 26.7416 33.5398 26.8157 33.5319C26.8456 33.5286 26.8755 33.5246 26.9054 33.5206C26.9503 33.5153 26.9952 33.5087 27.0393 33.5021C27.0842 33.4948 27.1291 33.4869 27.1733 33.4789C27.1998 33.4736 27.2263 33.4683 27.2528 33.463C28.0699 33.2922 28.8034 32.901 29.3846 32.3569C29.8033 31.965 30.1432 31.4943 30.3784 30.9694C30.6136 30.4438 30.7442 29.8652 30.7442 29.2562C30.7442 26.8837 28.7619 24.9534 26.3256 24.9534V24.9534Z" fill="#FBC02D"/>
</svg>
