<svg width="1434" height="201" viewBox="0 0 1434 201" fill="none" xmlns="http://www.w3.org/2000/svg">
<path fill-rule="evenodd" clip-rule="evenodd" d="M1.16767e-06 93.5308L34.7516 98.0631C68.305 102.595 136.61 111.66 204.915 107.128C274.418 102.595 342.723 84.4661 411.028 88.9985C479.333 93.5308 547.638 120.725 615.943 138.854C684.248 156.984 753.752 166.049 822.057 152.452C890.362 138.854 958.667 102.596 1026.97 111.66C1095.28 120.725 1163.58 175.113 1233.08 193.243C1301.39 211.372 1369.69 193.243 1403.25 184.178L1438 175.113L1438 0.000251428L1403.25 0.000245352C1369.69 0.000239485 1301.39 0.000227542 1233.08 0.000215599C1163.58 0.000203447 1095.28 0.000191504 1026.97 0.000179561C958.667 0.000167619 890.362 0.000155676 822.057 0.000143733C753.752 0.00013179 684.248 0.000119638 615.943 0.000107695C547.638 9.57521e-05 479.333 8.38093e-05 411.028 7.18665e-05C342.723 5.99236e-05 274.418 4.79808e-05 204.915 3.58285e-05C136.61 2.38856e-05 68.305 1.19428e-05 34.7517 6.07617e-06L0 0L1.16767e-06 93.5308Z" fill="white" fill-opacity="0.5"/>
</svg>
