<svg width="32" height="21" viewBox="0 0 32 21" fill="none" xmlns="http://www.w3.org/2000/svg">
<path d="M30.7196 4.0958C30.4117 3.89318 30.0005 3.88906 29.689 4.08338L24.458 7.28623C24.2568 7.4111 24.1162 7.60542 24.0699 7.82622C24.0219 8.04616 24.0717 8.27526 24.207 8.46218C24.5078 8.87899 24.6662 9.36523 24.6662 9.86886C24.6662 11.2697 23.4398 12.4093 21.9323 12.4093C20.4247 12.4093 19.1983 11.2697 19.1983 9.86886C19.1983 9.04519 19.6362 8.26865 20.3677 7.79065C20.7789 7.52272 20.8786 6.99509 20.5902 6.61221L16.2988 0.91525C15.9607 0.462088 15.1455 0.462088 14.8073 0.91525L10.5159 6.61227C10.2276 6.99515 10.3273 7.52277 10.7384 7.79071C11.47 8.26871 11.9078 9.04524 11.9078 9.86892C11.9078 11.2698 10.6814 12.4094 9.17388 12.4094C7.66633 12.4094 6.43994 11.2698 6.43994 9.86892C6.43994 9.36529 6.59833 8.87904 6.89918 8.46224C7.03448 8.27531 7.0843 8.04628 7.03624 7.82627C6.98995 7.60548 6.84936 7.4111 6.64821 7.28628L1.41714 4.08343C1.10389 3.88912 0.694467 3.89324 0.386565 4.09585C0.0786619 4.29762 -0.0637462 4.65408 0.0270207 4.99315L3.73273 18.5423C3.84664 18.969 4.29161 19.2543 4.76683 19.1724C14 16.3723 19.1983 16.8369 26.3393 19.1724C26.3892 19.1807 26.4408 19.184 26.4889 19.184C26.9 19.184 27.2702 18.9243 27.3735 18.5423L31.0792 4.99315C31.1699 4.65402 31.0276 4.29757 30.7196 4.0958Z" fill="url(#paint0_linear_1_196)"/>
<path d="M16.7536 7.72721H15.3082L13.5078 8.86713V10.2308L15.1733 9.18673H15.2159V14.9999H16.7536V7.72721Z" fill="white"/>
<defs>
<linearGradient id="paint0_linear_1_196" x1="15.5531" y1="19.1864" x2="15.5531" y2="0.575392" gradientUnits="userSpaceOnUse">
<stop stop-color="#FD5900"/>
<stop offset="1" stop-color="#FFDE00"/>
</linearGradient>
</defs>
</svg>
