<svg width="48" height="48" viewBox="0 0 48 48" fill="none" xmlns="http://www.w3.org/2000/svg">
<g filter="url(#filter0_b_1_1297)">
<circle cx="24" cy="24" r="24" fill="#DAFFED" fill-opacity="0.2"/>
</g>
<path d="M14.9483 12C16.5483 12 17.8957 13.3474 17.8957 14.9474C17.8957 16.6315 16.4641 17.9368 14.9483 17.8947C13.3904 17.9368 12.001 16.6315 12.001 14.9474C11.9588 13.3052 13.3062 12 14.9483 12Z" fill="#C2FFFF"/>
<path d="M16.5904 35.9998H13.222C12.7588 35.9998 12.3799 35.6209 12.3799 35.1577V20.421C12.3799 19.9578 12.7167 19.5789 13.1799 19.5789H16.5904C17.0535 19.5789 17.4324 19.9578 17.4324 20.421V35.1998C17.4325 35.6209 17.0535 35.9998 16.5904 35.9998Z" fill="#C2FFFF"/>
<path d="M36.3798 24.7156C36.3798 21.5998 34.064 19.1577 30.9483 19.1577H30.0641C28.3799 19.1577 26.7378 19.9577 25.8536 21.263C25.5588 21.5577 25.4325 21.684 25.4325 21.684V19.9999C25.4325 19.8314 25.1798 19.5788 25.0114 19.5788H20.8009C20.6325 19.5788 20.3798 19.7472 20.3798 19.9577V35.6629C20.3798 35.8314 20.6325 35.9998 20.8009 35.9998H25.4324C25.6009 35.9998 25.8535 35.8314 25.8535 35.6629V26.5682C25.8535 25.0103 27.0324 23.705 28.5903 23.663C29.3903 23.663 30.1061 23.9577 30.6535 24.505C31.1587 25.0103 31.3693 25.7261 31.3693 26.5261V35.5787C31.3693 35.7471 31.6219 35.9997 31.7903 35.9997H36.0008C36.1693 35.9997 36.4219 35.7471 36.4219 35.5787V24.7156H36.3798Z" fill="#C2FFFF"/>
<defs>
<filter id="filter0_b_1_1297" x="-4" y="-4" width="56" height="56" filterUnits="userSpaceOnUse" color-interpolation-filters="sRGB">
<feFlood flood-opacity="0" result="BackgroundImageFix"/>
<feGaussianBlur in="BackgroundImageFix" stdDeviation="2"/>
<feComposite in2="SourceAlpha" operator="in" result="effect1_backgroundBlur_1_1297"/>
<feBlend mode="normal" in="SourceGraphic" in2="effect1_backgroundBlur_1_1297" result="shape"/>
</filter>
</defs>
</svg>
