<svg width="48" height="48" viewBox="0 0 48 48" fill="none" xmlns="http://www.w3.org/2000/svg">
<g filter="url(#filter0_b_1_1576)">
<circle cx="24" cy="24" r="24" fill="#D5D1FF" fill-opacity="0.2"/>
</g>
<path d="M38 24.3238C38 26.0376 38 26.3868 37.8627 29.2272C37.746 29.2272 37.0392 29.2266 36.922 29.2253C36.6074 29.2222 36.531 29.1397 36.5298 28.7878C36.5264 27.0462 36.527 25.3047 36.5235 23.5639C36.523 23.1011 36.3573 22.9141 35.9635 22.916C35.5714 22.9179 35.4018 23.1099 35.4012 23.5651C35.4001 25.2764 35.4012 26.9871 35.4018 28.6977C35.4018 29.1819 35.3305 29.2575 34.8797 29.2543C34.5727 29.2525 34.2662 29.2543 33.9592 29.2525C33.6125 29.2506 33.5291 29.1548 33.5286 28.7506C33.5263 27.0299 33.5262 25.3085 33.5239 23.5878C33.5234 23.1338 33.3629 22.9317 33.0065 22.9204C32.5839 22.9078 32.3987 23.108 32.3987 23.5847C32.3976 25.3061 32.3982 27.0268 32.3982 28.7475C32.3982 29.1618 32.3435 29.2216 31.9612 29.2241C31.6082 29.226 31.2546 29.2229 30.9016 29.2267C30.6613 29.2292 30.5434 29.1184 30.544 28.8426C30.5463 26.3373 30.5463 23.8327 30.5423 21.3275C30.5417 21.0574 30.6555 20.9271 30.8907 20.9233C31.2811 20.917 31.6715 20.9252 32.0619 20.9208C32.308 20.9177 32.3902 21.0921 32.4218 21.3433C33.0342 20.8566 33.6747 20.7445 34.3669 21.0064C34.5733 21.0845 34.7533 21.2092 34.9126 21.364C35.0247 21.473 35.0948 21.4723 35.2167 21.3684C36.0487 20.6614 37.071 20.7256 37.746 21.3905C37.9126 22.3398 38 23.3208 38 24.3238Z" fill="#00B8F8"/>
<path d="M19.174 25.3323H19.1704C19.1704 24.5125 19.1704 23.6928 19.1698 22.873C19.1693 22.8063 19.1598 22.7397 19.1539 22.6736C19.0731 21.7418 18.5754 21.1786 17.6553 21.0312C16.842 20.9014 16.0193 20.9928 15.2007 20.9781C14.9895 20.974 14.907 21.1209 14.9088 21.3225C14.9117 21.6563 14.9093 21.9901 14.9099 22.3234C14.9111 22.6973 14.9878 22.7775 15.3605 22.7799C15.8559 22.7834 16.3519 22.7758 16.8473 22.7816C17.1257 22.7846 17.2484 22.9078 17.2389 23.1556C17.2301 23.4033 17.0998 23.5106 16.852 23.5029C16.576 23.494 16.2988 23.4952 16.0228 23.5023C14.9453 23.5301 14.1839 24.2543 14.1492 25.2976C14.1326 25.8019 14.1385 26.3079 14.1433 26.8127C14.1539 28.0247 14.8321 28.7012 16.047 28.7094C16.7907 28.7147 17.5339 28.7123 18.2775 28.7094C18.8903 28.707 19.1681 28.4346 19.1728 27.82C19.1787 26.9907 19.174 26.1615 19.174 25.3323ZM16.8951 26.9948C16.0948 27.032 16.0771 27.0179 16.0771 26.2187C16.0771 26.0471 16.0759 25.8755 16.0776 25.7038C16.0788 25.6378 16.0682 25.5617 16.0959 25.5068C16.2893 25.1217 16.6479 25.3116 16.9369 25.2898C17.1498 25.2733 17.2566 25.4266 17.2531 25.6448C17.2507 25.8064 17.2525 25.9686 17.2525 26.1308C17.2531 26.293 17.2507 26.4552 17.2537 26.6168C17.2578 26.8621 17.1452 26.983 16.8951 26.9948Z" fill="#002875"/>
<path d="M24.8683 24.162C24.868 25.0204 24.8731 25.8789 24.8668 26.7372C24.8578 27.9798 24.0825 28.7466 22.8377 28.7514C22.1891 28.754 21.5405 28.7537 20.892 28.7516C20.5382 28.7505 20.4586 28.6684 20.4572 28.3111C20.4558 27.9487 20.4641 27.586 20.4555 27.2238C20.4492 26.9564 20.5735 26.8385 20.8326 26.8376C21.4049 26.8359 21.977 26.8294 22.5493 26.8297C22.7704 26.8298 22.9707 26.7876 22.9704 26.5217C22.97 26.2548 22.7675 26.2172 22.5475 26.2141C22.1292 26.2079 21.7076 26.2486 21.2949 26.1437C20.487 25.9385 19.9183 25.3017 19.8907 24.472C19.8554 23.4145 19.8746 22.355 19.8731 21.2964C19.8728 21.0754 19.9889 20.9663 20.2132 20.9678C20.6042 20.9705 20.9953 20.9658 21.3863 20.9694C21.6911 20.9721 21.7783 21.0576 21.7796 21.3618C21.783 22.1725 21.781 22.9832 21.7822 23.794C21.7829 24.2217 21.8574 24.2975 22.2722 24.3C22.9478 24.3041 22.962 24.2896 22.9617 23.6197C22.9613 22.8758 22.9601 22.1317 22.9631 21.3878C22.9645 21.038 23.0333 20.9718 23.3844 20.9691C23.7278 20.9665 24.0711 20.9671 24.4145 20.9684C24.7985 20.9698 24.868 21.0373 24.8685 21.415C24.8695 22.3307 24.8686 23.2464 24.8683 24.162Z" fill="#002875"/>
<path d="M13.6709 22.7894C13.6526 21.6464 12.9602 20.9753 11.8096 20.9693C11.0223 20.9658 9.88816 20.9677 9.10141 20.9689C8.87491 21.9856 9.10134 23.0424 9.10134 24.127C9.10134 25.7417 9.1013 26.4241 9 28.7442C9.10143 28.7442 10.0567 28.7437 10.1576 28.7431C10.5144 28.7413 10.6041 28.6569 10.6058 28.3125C10.6088 27.7593 10.6147 27.2061 10.6058 26.6529C10.6029 26.4807 10.6483 26.4212 10.8281 26.4265C11.2186 26.4389 11.6102 26.4389 12.0006 26.4241C12.9171 26.3887 13.5965 25.7589 13.6508 24.8482C13.6921 24.1641 13.6815 23.4758 13.6709 22.7894ZM11.7565 24.1783C11.7529 24.3941 11.635 24.5127 11.4185 24.5186C11.2098 24.5244 10.9998 24.5103 10.7916 24.5239C10.6277 24.5345 10.6023 24.4578 10.6076 24.321C10.6153 24.1122 10.6094 23.9029 10.6094 23.6941C10.6099 23.4942 10.6217 23.2936 10.6064 23.0955C10.5929 22.9132 10.666 22.8637 10.8359 22.8749C11.0252 22.8879 11.2157 22.8737 11.4056 22.8796C11.6327 22.8867 11.7571 23.0053 11.7577 23.2377C11.7594 23.5514 11.7618 23.8651 11.7565 24.1783Z" fill="#002875"/>
<path d="M28.6491 25.9339C28.6491 26.8901 28.6504 27.8463 28.6484 28.8025C28.6476 29.1785 28.589 29.2479 28.2774 29.2511C27.9413 29.2545 27.605 29.2563 27.2689 29.2509C26.9661 29.2459 26.8981 29.1631 26.8977 28.7981C26.8955 26.9172 26.8952 25.0363 26.8952 23.1555C26.8952 22.743 26.8972 22.743 26.5634 22.7425C25.8823 22.7415 25.8823 22.7415 25.8822 21.9288C25.8822 21.6451 25.8853 21.3613 25.8813 21.0777C25.8775 20.7975 25.9721 20.65 26.2242 20.6437C26.8519 20.6281 27.3433 20.3205 27.6805 19.6736C27.8102 19.4248 27.9669 19.1916 28.2022 19.0626C28.4714 18.9152 28.6356 19.0312 28.6401 19.3781C28.6447 19.7353 28.6457 20.0927 28.6396 20.4498C28.6371 20.5974 28.676 20.6572 28.8056 20.6487C28.9732 20.6377 29.1417 20.6478 29.3098 20.6469C29.5052 20.6458 29.606 20.7613 29.6072 20.9919C29.6098 21.4542 29.6112 21.9165 29.609 22.3789C29.6078 22.6194 29.5092 22.7521 29.297 22.7423C29.2793 22.7414 29.2616 22.7421 29.2439 22.7424C28.6491 22.7534 28.6491 22.7534 28.649 23.4751C28.6491 24.2947 28.6491 25.1143 28.6491 25.9339Z" fill="#00B8F8"/>
<defs>
<filter id="filter0_b_1_1576" x="-4" y="-4" width="56" height="56" filterUnits="userSpaceOnUse" color-interpolation-filters="sRGB">
<feFlood flood-opacity="0" result="BackgroundImageFix"/>
<feGaussianBlur in="BackgroundImageFix" stdDeviation="2"/>
<feComposite in2="SourceAlpha" operator="in" result="effect1_backgroundBlur_1_1576"/>
<feBlend mode="normal" in="SourceGraphic" in2="effect1_backgroundBlur_1_1576" result="shape"/>
</filter>
</defs>
</svg>
