<svg width="48" height="48" viewBox="0 0 48 48" fill="none" xmlns="http://www.w3.org/2000/svg">
<g filter="url(#filter0_b_1_1461)">
<circle cx="24" cy="24" r="24" fill="#FFF5CC" fill-opacity="0.2"/>
</g>
<path d="M18.015 35.6924L22.1955 25.6001L18.8383 24.2095L14.0218 35.8373C13.8189 36.3272 14.278 36.832 14.7849 36.6765L17.516 35.8384C17.597 35.8135 17.675 35.806 17.7553 35.8138L18.015 35.6924Z" fill="#FFE07D"/>
<path d="M22.0167 25.5247L17.7552 35.8124C17.9615 35.8308 18.1518 35.9505 18.2537 36.1426L19.5922 38.6665C19.8407 39.135 20.5223 39.1026 20.7253 38.6127L25.5418 26.9849L22.0167 25.5247Z" fill="#FFD064"/>
<path d="M25.6667 25.4856L22.0479 26.9847L26.8644 38.6125C27.0673 39.1024 27.7489 39.1348 27.9974 38.6663L29.3359 36.1424C29.3771 36.0647 29.4329 35.9987 29.4982 35.9465L29.8259 35.5323L25.6667 25.4856Z" fill="#FFE07D"/>
<path d="M33.5679 35.8358L28.7513 24.208L25.2386 25.6631L29.4985 35.947C29.6564 35.8208 29.8704 35.7746 30.0737 35.8369L32.8048 36.675C33.3118 36.8307 33.7709 36.3257 33.5679 35.8358V35.8358Z" fill="#FFD064"/>
<path d="M25.0043 9.42152C25.508 9.82119 26.1767 9.94617 26.7908 9.75551C27.6544 9.48733 28.5888 9.84938 29.0463 10.6293C29.3717 11.184 29.95 11.5421 30.5916 11.5861C31.4937 11.648 32.2343 12.3232 32.3792 13.2157C32.4822 13.8505 32.8922 14.3933 33.4745 14.6661C34.2933 15.0497 34.74 15.9468 34.5526 16.8314C34.4194 17.4604 34.6056 18.1147 35.05 18.5795C35.675 19.233 35.7674 20.2308 35.2732 20.988C34.9217 21.5265 34.8589 22.2038 35.1055 22.7977C35.4522 23.6329 35.1779 24.5968 34.4435 25.1243C33.9213 25.4994 33.6181 26.1084 33.6334 26.7512C33.655 27.6552 33.0511 28.4549 32.1757 28.6815C31.5532 28.8426 31.0505 29.301 30.8326 29.906C30.5262 30.7567 29.6741 31.2843 28.776 31.1793C28.1373 31.1047 27.503 31.3504 27.0812 31.8359C26.4882 32.5185 25.5031 32.7026 24.7035 32.2803C24.1349 31.9801 23.4547 31.9801 22.8861 32.2803C22.0865 32.7026 21.1014 32.5185 20.5084 31.8359C20.0866 31.3504 19.4524 31.1047 18.8136 31.1793C17.9155 31.2843 17.0635 30.7567 16.757 29.906C16.5391 29.301 16.0364 28.8426 15.4139 28.6815C14.5385 28.4549 13.9346 27.6552 13.9562 26.7512C13.9715 26.1084 13.6683 25.4994 13.1461 25.1243C12.4117 24.5968 12.1374 23.6329 12.4841 22.7977C12.7307 22.2038 12.6679 21.5265 12.3164 20.988C11.8222 20.2308 11.9147 19.233 12.5396 18.5795C12.9841 18.1147 13.1702 17.4604 13.037 16.8314C12.8497 15.9468 13.2964 15.0496 14.1152 14.6661C14.6975 14.3933 15.1074 13.8505 15.2105 13.2157C15.3553 12.3232 16.096 11.648 16.9981 11.5861C17.6396 11.5421 18.218 11.184 18.5433 10.6293C19.0008 9.84938 19.9353 9.48738 20.7988 9.75551C21.413 9.94623 22.0816 9.82119 22.5854 9.42152C23.2938 8.85949 24.296 8.85949 25.0043 9.42152V9.42152Z" fill="#E8AE4D"/>
<path d="M29.1037 20.7531C29.1037 16.786 26.5444 13.4169 22.987 12.2061C18.6246 12.6132 15.2101 16.2844 15.2101 20.7531C15.2101 25.2219 18.6246 28.8931 22.987 29.3002C26.5445 28.0894 29.1037 24.7203 29.1037 20.7531V20.7531Z" fill="#FFE07D"/>
<path d="M23.7947 12.1685C23.1375 12.1685 22.4977 12.2426 21.8828 12.3824C25.7036 13.2515 28.5555 16.6691 28.5555 20.753C28.5555 24.837 25.7036 28.2546 21.8828 29.1237C22.4977 29.2635 23.1375 29.3376 23.7947 29.3376C28.5359 29.3376 32.3793 25.4942 32.3793 20.753C32.3793 16.0119 28.5359 12.1685 23.7947 12.1685V12.1685Z" fill="#FFD064"/>
<path d="M24.0313 24.0479L26.9942 26.0423C27.1107 26.1207 27.2394 26.1322 27.3521 26.0976C27.4568 25.9552 27.5575 25.8097 27.6539 25.6613C27.6516 25.633 27.6464 25.604 27.638 25.5746L26.6568 22.1404C26.6095 21.9747 26.6672 21.7968 26.803 21.6905L29.0658 19.9192C29.0282 19.509 28.9632 19.1068 28.8726 18.7143L25.8002 18.6041C25.6279 18.598 25.4766 18.488 25.4175 18.3261L24.1926 14.9709C24.0572 14.5999 23.5324 14.5999 23.3969 14.9709L22.1721 18.326C22.113 18.4879 21.9617 18.5978 21.7894 18.604L18.2201 18.732C17.8253 18.7462 17.6632 19.2453 17.9742 19.4888L20.7866 21.6904C20.9223 21.7967 20.9801 21.9745 20.9328 22.1403L19.9516 25.5745C19.843 25.9544 20.2676 26.2628 20.5953 26.0422L23.5583 24.0478C23.7013 23.9517 23.8883 23.9517 24.0313 24.0479Z" fill="#E8AE4D"/>
<path d="M26.9942 26.0426C27.3219 26.2632 27.7464 25.9547 27.6379 25.5748L27.46 24.9521C27.2691 25.2919 27.0554 25.6172 26.8216 25.9264L26.9942 26.0426Z" fill="#E5A32E"/>
<path d="M29.3694 18.7325L28.3067 18.6943C28.4364 19.2212 28.5173 19.7672 28.5447 20.3273L29.6153 19.4893C29.9263 19.2458 29.7641 18.7467 29.3694 18.7325Z" fill="#E5A32E"/>
<defs>
<filter id="filter0_b_1_1461" x="-4" y="-4" width="56" height="56" filterUnits="userSpaceOnUse" color-interpolation-filters="sRGB">
<feFlood flood-opacity="0" result="BackgroundImageFix"/>
<feGaussianBlur in="BackgroundImageFix" stdDeviation="2"/>
<feComposite in2="SourceAlpha" operator="in" result="effect1_backgroundBlur_1_1461"/>
<feBlend mode="normal" in="SourceGraphic" in2="effect1_backgroundBlur_1_1461" result="shape"/>
</filter>
</defs>
</svg>
