<svg width="64" height="64" viewBox="0 0 64 64" fill="none" xmlns="http://www.w3.org/2000/svg">
<rect width="64" height="64" rx="12" fill="white"/>
<path d="M22.7775 31.2031L22.7526 32.8241L24.8329 34.8839L26.1345 34.6743L26.7498 33.734L24.2903 31.2987L22.7775 31.2031Z" fill="#D9E5FF"/>
<path d="M21.5416 36.2603L18.6046 32.4207L13.7722 32.3015L16.5162 28.3219L15.1363 23.6891L19.7691 25.069L23.7488 22.325L23.868 27.1575L27.7075 30.0945L23.1484 31.7012L21.5416 36.2603Z" fill="#FDBF00"/>
<path d="M39.7103 31.2989C38.9293 32.0721 38.0326 32.9597 37.2515 33.7329L37.6792 34.8825H39.1687C39.8956 34.1629 40.5207 33.5441 41.2476 32.8244L41.373 31.197L39.7103 31.2989Z" fill="#BED5FF"/>
<path d="M48.8639 23.6891C47.6081 24.0631 44.9703 24.8488 44.231 25.069C43.1524 24.3252 40.8865 22.7628 40.2514 22.325C40.2369 22.9119 40.1467 26.5685 40.1322 27.1575C39.6658 27.5142 36.7607 29.7365 36.2927 30.0944C36.8464 30.2895 40.2961 31.5053 40.8517 31.7011C41.0469 32.2548 42.2626 35.7046 42.4584 36.2603C42.8151 35.794 45.0374 32.8887 45.3954 32.4207C45.9824 32.4062 49.6389 32.316 50.2279 32.3015C49.4841 31.2229 47.9218 28.9569 47.4839 28.3219C47.6515 27.7592 48.6957 24.2537 48.8639 23.6891V23.6891Z" fill="#FF9F22"/>
<path d="M31.4737 30.7158L30.9171 31.2337C29.6314 32.0051 26.19 34.0698 24.8329 34.8839C25.1771 35.4662 27.3229 39.0976 27.6686 39.6826V44.8414L29.8343 45.5633L32.0001 44.8414L32.722 39.1565L32.0001 31.2339L31.4737 30.7158Z" fill="#FFDA2D"/>
<path d="M36.3316 39.6825C36.6745 39.1023 38.8235 35.4665 39.1687 34.8824C37.7536 34.0339 34.2048 31.906 33.0834 31.2334L32.5024 30.8059L32.0001 31.2338V44.8413L34.1658 45.5632L36.3316 44.8413C36.3316 44.2172 36.3316 40.3106 36.3316 39.6825V39.6825Z" fill="#FDBF00"/>
<path d="M31.4586 24.6402L30.9172 25.6214V31.2337H32.0001L32.722 27.8434L32.0001 25.1028C31.9908 25.095 31.4512 24.6338 31.4586 24.6402V24.6402Z" fill="#ECF2FF"/>
<path d="M33.0829 25.6215L32.5415 24.6404L32.0001 25.1031V31.234H33.0829C33.0829 29.4499 33.0829 27.4056 33.0829 25.6215V25.6215Z" fill="#D9E5FF"/>
<path d="M32 13.7722C31.7206 14.2886 29.9802 17.5057 29.6999 18.0239C28.414 18.2602 25.707 18.7577 24.9456 18.8976C25.3503 19.3229 27.8722 21.9722 28.2784 22.399C28.1057 23.695 27.7423 26.4231 27.6401 27.1906C28.1697 26.9371 31.4686 25.3574 32.0001 25.1029L32.722 20.8814L32 13.7722Z" fill="#FFDA2D"/>
<path d="M35.7218 22.399C36.1266 21.9737 38.6483 19.3244 39.0545 18.8976C37.7686 18.6614 35.0617 18.1638 34.3002 18.0239C34.0224 17.5107 32.2787 14.2872 32.0001 13.7722V25.103C32.5274 25.3555 35.8308 26.9372 36.36 27.1907C36.1869 25.8918 35.8236 23.1635 35.7218 22.399V22.399Z" fill="#FDBF00"/>
<path d="M32.7219 46.61L32 44.8413C31.2139 44.8413 26.294 44.8413 25.5027 44.8413C25.5027 46.6325 24.0455 48.09 22.2541 48.09L28.0835 48.8119L32 48.09L32.7219 46.61Z" fill="#495F66"/>
<path d="M20.0884 50.2558H32.0001L32.722 49.173L32.0001 48.0901C28.3247 48.0901 23.7923 48.0901 20.0884 48.0901V50.2558Z" fill="#3B4A51"/>
<path d="M38.4973 44.8413C37.7112 44.8413 32.7914 44.8413 32.0001 44.8413V48.09L36.115 48.8119L41.746 48.09C39.9548 48.09 38.4973 46.6328 38.4973 44.8413Z" fill="#3B4A51"/>
<path d="M43.9117 50.2558C43.9117 49.4984 43.9117 48.8475 43.9117 48.0901C42.5135 48.0901 35.4624 48.0901 32.0001 48.0901V50.2558H43.9117Z" fill="#283646"/>
</svg>
