<svg width="44" height="44" viewBox="0 0 44 44" fill="none" xmlns="http://www.w3.org/2000/svg">
<g id="Group 76">
<g id="Icons" filter="url(#filter0_b_1_517)">
<circle id="Ellipse 76" cx="22" cy="22" r="22" fill="#E2FAFF" fill-opacity="0.2"/>
</g>
<g id="Group 74">
<path id="Vector" d="M20.5624 23.6541C19.8526 22.3721 18.7133 21.6828 17.2681 21.6607C17.2637 21.6607 17.2592 21.6605 17.255 21.6605H12.1414C12.137 21.6605 12.1328 21.6605 12.1284 21.6607C10.683 21.6828 9.5459 22.373 8.84046 23.6566C8.28266 24.6712 8 26.0456 8 27.7416V28.9373C8 29.4081 8.38161 29.7897 8.85241 29.7897H20.5593C21.0301 29.7897 21.4117 29.4081 21.4117 28.9373V27.7416C21.4117 26.0474 21.126 24.6721 20.5624 23.6541Z" fill="#FF6E73"/>
<path id="Vector_2" d="M20.5624 23.6541C19.8526 22.3721 18.7133 21.6828 17.2681 21.6607C17.2637 21.6607 17.2592 21.6605 17.255 21.6605H14.6982V29.7897H20.5593C21.0301 29.7897 21.4117 29.4081 21.4117 28.9373V27.7416C21.4117 26.0474 21.126 24.6721 20.5624 23.6541Z" fill="#FF3364"/>
<path id="Vector_3" d="M17.858 21.9099C17.6979 21.7501 17.4812 21.66 17.255 21.66H16.7464V20.637C16.7464 20.1662 16.3647 19.7845 15.8939 19.7845H13.5211C13.0505 19.7845 12.6687 20.1659 12.6687 20.6367L12.6684 21.66H12.1414C11.9154 21.66 11.6985 21.7499 11.5387 21.9099C11.3786 22.0697 11.289 22.2867 11.289 22.5129C11.2892 23.5344 11.6226 24.4988 12.2275 25.2284C12.8736 26.0075 13.7539 26.4365 14.706 26.4365C16.6129 26.4365 18.107 24.7131 18.1074 22.5129C18.1074 22.2867 18.0178 22.0697 17.858 21.9099Z" fill="#FFD7B3"/>
<path id="Vector_4" d="M17.858 21.9099C17.698 21.7501 17.4813 21.66 17.255 21.66H16.7464V20.637C16.7464 20.1662 16.3648 19.7845 15.894 19.7845H14.6982V26.4363C14.7009 26.4363 14.7033 26.4365 14.706 26.4365C16.6129 26.4365 18.107 24.7131 18.1075 22.5127C18.1075 22.2867 18.0178 22.0697 17.858 21.9099Z" fill="#FFB387"/>
<path id="Vector_5" d="M36.1507 23.6541C35.4408 22.3721 34.3015 21.6828 32.8561 21.6607C32.8519 21.6607 32.8475 21.6605 32.8431 21.6605H27.7297C27.7253 21.6605 27.7208 21.6605 27.7166 21.6607C26.271 21.6828 25.1342 22.373 24.4287 23.6566C23.8711 24.6712 23.5883 26.0456 23.5883 27.7416V28.9373C23.5883 29.4081 23.9701 29.7897 24.4407 29.7897H36.1476C36.6184 29.7897 37 29.4081 37 28.9373V27.7416C37 26.0474 36.7142 24.6721 36.1507 23.6541Z" fill="#FFC364"/>
<path id="Vector_6" d="M36.1507 23.6541C35.4408 22.3721 34.3015 21.6828 32.8561 21.6607C32.8519 21.6607 32.8475 21.6605 32.8431 21.6605H30.2865V29.7897H36.1476C36.6184 29.7897 37 29.4081 37 28.9373V27.7416C37 26.0474 36.7142 24.6721 36.1507 23.6541Z" fill="#FF9B32"/>
<path id="Vector_7" d="M33.446 21.9099C33.2862 21.7501 33.0693 21.66 32.843 21.66H32.3346V20.637C32.3346 20.1662 31.953 19.7845 31.4822 19.7845H29.1093C28.6401 19.7845 28.2591 20.1637 28.2569 20.633L28.2521 21.66H27.7297C27.5035 21.66 27.2865 21.7499 27.1267 21.9099C26.9669 22.0697 26.877 22.2867 26.8773 22.5129C26.8775 23.5344 27.2106 24.4988 27.8158 25.2284C28.4619 26.0075 29.342 26.4365 30.294 26.4365C32.2011 26.4365 33.6952 24.7131 33.6957 22.5129C33.6957 22.2867 33.6058 22.0697 33.446 21.9099Z" fill="#FFD7B3"/>
<path id="Vector_8" d="M33.446 21.9099C33.2862 21.7501 33.0693 21.66 32.8431 21.66H32.3346V20.637C32.3346 20.1662 31.953 19.7845 31.4822 19.7845H30.2865V26.4363C30.2889 26.4363 30.2916 26.4365 30.294 26.4365C32.2009 26.4365 33.695 24.7131 33.6955 22.5127C33.6957 22.2867 33.6058 22.0697 33.446 21.9099Z" fill="#FFB387"/>
<path id="Vector_9" d="M30.8027 9.72595C30.7288 9.67106 28.9595 8.37329 26.0083 7.72341C24.2846 7.34402 22.5052 7.26123 20.7189 7.47793C19.0453 7.68091 17.3646 8.1484 15.7034 8.87155L15.8878 8.0364C15.9891 7.57666 15.6987 7.12178 15.239 7.02018C14.7795 6.91881 14.3244 7.20922 14.2228 7.66896L13.6583 10.2264C13.657 10.2328 13.6563 10.2382 13.6555 10.2439C13.5818 10.6131 13.7599 11 14.1137 11.1747L16.4887 12.3465C16.61 12.4063 16.7384 12.4346 16.8652 12.4346C17.1796 12.4346 17.4819 12.2602 17.6304 11.9591C17.8387 11.537 17.6652 11.0259 17.2431 10.8176L16.4274 10.4152C19.4993 9.08205 22.5652 8.72988 25.5623 9.37135C28.1819 9.93203 29.7716 11.0841 29.7856 11.0943C29.9383 11.2079 30.1167 11.2626 30.2934 11.2626C30.5537 11.2626 30.8109 11.1437 30.9782 10.9188C31.2591 10.5407 31.1805 10.0068 30.8027 9.72595Z" fill="#48B1FF"/>
<path id="Vector_10" d="M30.8027 9.72585C30.7288 9.67095 28.9595 8.37318 26.0083 7.7233C24.8588 7.4703 23.6846 7.34989 22.5001 7.36162V9.06114C23.527 9.0514 24.5485 9.1541 25.5623 9.37125C28.1819 9.9317 29.7716 11.0838 29.7856 11.094C29.9383 11.2078 30.1167 11.2624 30.2934 11.2624C30.5537 11.2624 30.8109 11.1436 30.9782 10.9185C31.2591 10.5406 31.1805 10.0067 30.8027 9.72585Z" fill="#2386E8"/>
<path id="Vector_11" d="M30.818 31.9307C30.8146 31.9143 30.7726 31.8882 30.6712 31.8384L28.2964 30.6664C27.8738 30.4581 27.3629 30.6316 27.1546 31.0537C26.9464 31.4759 27.1197 31.9869 27.5418 32.1952L28.3575 32.5976C25.2856 33.9308 22.2199 34.283 19.2224 33.6415C16.603 33.0811 15.0132 31.929 14.9993 31.9188C14.6214 31.6379 14.0875 31.7162 13.8067 32.0941C13.5258 32.4719 13.6043 33.0058 13.982 33.2867C14.0559 33.3418 15.8251 34.6396 18.7766 35.2892C20.5 35.6689 22.2797 35.7514 24.0657 35.5349C25.7396 35.3317 27.4203 34.8645 29.0815 34.1413L28.8971 34.9765C28.7957 35.436 29.0861 35.8911 29.5459 35.9925C29.6079 36.0062 29.6696 36.0128 29.7305 36.0128C30.1216 36.0128 30.4742 35.7417 30.5621 35.3437L31.1265 32.7865C31.1974 32.4653 31.0767 32.1326 30.818 31.9307Z" fill="#48B1FF"/>
<path id="Vector_12" d="M30.8179 31.9307C30.8146 31.9143 30.7726 31.8882 30.6712 31.8384L28.2963 30.6664C27.8738 30.4581 27.3629 30.6316 27.1546 31.0537C26.9463 31.4759 27.1196 31.9869 27.5418 32.1952L28.3574 32.5976C26.3972 33.4485 24.4391 33.8992 22.4999 33.9474V35.6474C23.0205 35.6352 23.5429 35.5983 24.0657 35.5349C25.7395 35.3317 27.4202 34.8645 29.0815 34.1413L28.8971 34.9765C28.7957 35.4362 29.0861 35.8911 29.5458 35.9925C29.6078 36.0062 29.6696 36.0128 29.7305 36.0128C30.1216 36.0128 30.4742 35.7417 30.5621 35.3439L31.1265 32.7865C31.1973 32.4653 31.0767 32.1326 30.8179 31.9307Z" fill="#2386E8"/>
<path id="Vector_13" d="M14.9513 14.2002H14.445C12.6541 14.2002 11.197 15.6571 11.197 17.4483V18.1588C11.197 20.0894 12.7677 21.6599 14.6983 21.6599C16.6289 21.6599 18.1993 20.0894 18.1993 18.1588V17.4483C18.1995 15.6571 16.7424 14.2002 14.9513 14.2002Z" fill="#FFE4C2"/>
<path id="Vector_14" d="M14.9512 14.2002H14.7341V21.659C16.6481 21.6395 18.1993 20.0772 18.1993 18.1588V17.4483C18.1995 15.6571 16.7424 14.2002 14.9512 14.2002Z" fill="#FFD7B3"/>
<path id="Vector_15" d="M14.743 16.6937L18.1995 18.1588V17.4485C18.1995 15.6573 16.7424 14.2002 14.9513 14.2002H14.445C12.6541 14.2002 11.197 15.6573 11.197 17.4485V18.3744L14.743 16.6937Z" fill="#FFC364"/>
<path id="Vector_16" d="M14.9514 14.2002H14.7341V16.6979L14.7429 16.6937L18.1995 18.1588V17.4485C18.1995 15.6573 16.7424 14.2002 14.9514 14.2002Z" fill="#FF9B32"/>
<path id="Vector_17" d="M30.5395 14.2002H30.0333C28.2424 14.2002 26.7852 15.6571 26.7852 17.4483V18.1588C26.7852 20.0894 28.3559 21.6599 30.2865 21.6599C32.2169 21.6599 33.7876 20.0894 33.7876 18.1588V17.4483C33.7876 15.6571 32.3304 14.2002 30.5395 14.2002Z" fill="#FFE4C2"/>
<path id="Vector_18" d="M30.5395 14.2002H30.3223V21.659C32.2363 21.6395 33.7875 20.0772 33.7875 18.1588V17.4483C33.7875 15.6571 32.3304 14.2002 30.5395 14.2002Z" fill="#FFD7B3"/>
<path id="Vector_19" d="M30.3312 16.6937L33.7876 18.1588V17.4485C33.7876 15.6573 32.3307 14.2002 30.5395 14.2002H30.0333C28.2421 14.2002 26.7852 15.6573 26.7852 17.4485V18.3744L30.3312 16.6937Z" fill="#6D4432"/>
<path id="Vector_20" d="M30.5395 14.2002H30.3223V16.6979L30.3312 16.6937L33.7875 18.1588V17.4485C33.7875 15.6573 32.3306 14.2002 30.5395 14.2002Z" fill="#59311F"/>
</g>
</g>
<defs>
<filter id="filter0_b_1_517" x="-4" y="-4" width="52" height="52" filterUnits="userSpaceOnUse" color-interpolation-filters="sRGB">
<feFlood flood-opacity="0" result="BackgroundImageFix"/>
<feGaussianBlur in="BackgroundImageFix" stdDeviation="2"/>
<feComposite in2="SourceAlpha" operator="in" result="effect1_backgroundBlur_1_517"/>
<feBlend mode="normal" in="SourceGraphic" in2="effect1_backgroundBlur_1_517" result="shape"/>
</filter>
</defs>
</svg>
