<svg width="32" height="20" viewBox="0 0 32 20" fill="none" xmlns="http://www.w3.org/2000/svg">
<path d="M30.7196 4.09586C30.4117 3.89324 30.0005 3.88912 29.689 4.08344L24.458 7.28629C24.2568 7.41117 24.1162 7.60548 24.0699 7.82628C24.0219 8.04623 24.0717 8.27532 24.207 8.46224C24.5078 8.87905 24.6662 9.36529 24.6662 9.86892C24.6662 11.2698 23.4398 12.4094 21.9323 12.4094C20.4247 12.4094 19.1983 11.2698 19.1983 9.86892C19.1983 9.04525 19.6362 8.26871 20.3677 7.79071C20.7789 7.52278 20.8786 6.99515 20.5902 6.61227L16.2988 0.915311C15.9607 0.462149 15.1455 0.462149 14.8073 0.915311L10.5159 6.61233C10.2276 6.99521 10.3273 7.52283 10.7384 7.79077C11.47 8.26877 11.9078 9.0453 11.9078 9.86898C11.9078 11.2698 10.6814 12.4094 9.17388 12.4094C7.66633 12.4094 6.43994 11.2698 6.43994 9.86898C6.43994 9.36535 6.59833 8.8791 6.89918 8.4623C7.03448 8.27538 7.0843 8.04634 7.03624 7.82633C6.98995 7.60554 6.84936 7.41117 6.64821 7.28634L1.41714 4.0835C1.10389 3.88918 0.694467 3.8933 0.386565 4.09592C0.0786619 4.29769 -0.0637462 4.65414 0.0270207 4.99321L3.73273 18.5423C3.84664 18.9691 4.29161 19.2544 4.76683 19.1725C14 16.3724 19.1983 16.837 26.3393 19.1725C26.3892 19.1807 26.4408 19.1841 26.4889 19.1841C26.9 19.1841 27.2702 18.9244 27.3735 18.5423L31.0792 4.99321C31.1699 4.65408 31.0276 4.29763 30.7196 4.09586Z" fill="url(#paint0_linear_1_332)"/>
<defs>
<linearGradient id="paint0_linear_1_332" x1="15.5531" y1="19.1864" x2="15.5531" y2="0.575453" gradientUnits="userSpaceOnUse">
<stop stop-color="#C07ED0"/>
<stop offset="1" stop-color="#E3CAF5"/>
</linearGradient>
</defs>
</svg>
