<svg width="1440" height="226" viewBox="0 0 1440 226" fill="none" xmlns="http://www.w3.org/2000/svg">
<path fill-rule="evenodd" clip-rule="evenodd" d="M0 3.36166L24 9.15278C48 14.9439 96 26.5261 144 26.5261C192 26.5261 240 14.9439 288 7.75493C336 0.565951 384 -2.22976 432 1.96381C480 6.35707 528 17.7396 576 22.1329C624 26.5261 672 23.5307 720 17.7396C768 12.1482 816 3.36166 864 3.36166C912 3.36166 960 12.1482 1008 16.3418C1056 20.735 1104 20.735 1152 26.5261C1200 32.1176 1248 43.6998 1296 48.0931C1344 52.2866 1392 49.4909 1416 48.0931L1440 46.4955V226H1416C1392 226 1344 226 1296 226C1248 226 1200 226 1152 226C1104 226 1056 226 1008 226C960 226 912 226 864 226C816 226 768 226 720 226C672 226 624 226 576 226C528 226 480 226 432 226C384 226 336 226 288 226C240 226 192 226 144 226C96 226 48 226 24 226H0V3.36166Z" fill="white"/>
</svg>
