<svg width="1440" height="84" viewBox="0 0 1440 84" fill="none" xmlns="http://www.w3.org/2000/svg">
<path fill-rule="evenodd" clip-rule="evenodd" d="M-7 81.3362L17.8333 76.747C42.6667 72.1578 92.3333 62.9794 142 62.9794C191.667 62.9794 241.333 72.1578 291 77.8547C340.667 83.5517 390.333 85.7671 440 82.4439C489.667 78.9625 539.333 69.9423 589 66.4609C638.667 62.9794 688.333 65.3532 738 69.9424C787.667 74.3733 837.333 81.3362 887 81.3362C936.667 81.3362 986.333 74.3733 1036 71.0501C1085.67 67.5687 1135.33 67.5687 1185 62.9795C1234.67 58.5485 1284.33 49.3702 1334 45.8887C1383.67 42.5655 1433.33 44.781 1458.17 45.8887L1483 47.1547L1483 0.000122631L1458.17 0.00012046C1433.33 0.000118289 1383.67 0.000113947 1334 0.000109605C1284.33 0.000105263 1234.67 0.000100921 1185 9.65786e-05C1135.33 9.22366e-05 1085.67 8.78946e-05 1036 8.35526e-05C986.333 7.92106e-05 936.667 7.48686e-05 887 7.05266e-05C837.333 6.61846e-05 787.667 6.18426e-05 738 5.75006e-05C688.333 5.31586e-05 638.667 4.88166e-05 589 4.44746e-05C539.333 4.01326e-05 489.667 3.57906e-05 440 3.14486e-05C390.333 2.71066e-05 340.667 2.27646e-05 291 1.84226e-05C241.333 1.40806e-05 191.667 9.7386e-06 142 5.3966e-06C92.3333 1.0546e-06 42.6667 -3.2874e-06 17.8333 -5.4584e-06L-6.99999 -7.62939e-06L-7 81.3362Z" fill="white" fill-opacity="0.1"/>
</svg>
