<svg width="1440" height="165" viewBox="0 0 1440 165" fill="none" xmlns="http://www.w3.org/2000/svg">
<path fill-rule="evenodd" clip-rule="evenodd" d="M0 5.23278L24 14.2473C48 23.2617 96 41.2907 144 41.2907C192 41.2907 240 23.2617 288 12.0713C336 0.880962 384 -3.47085 432 3.05687C480 9.89544 528 27.6135 576 34.4521C624 41.2907 672 36.628 720 27.6135C768 18.9099 816 5.23278 864 5.23278C912 5.23278 960 18.9099 1008 25.4376C1056 32.2762 1104 32.2762 1152 41.2907C1200 49.9943 1248 68.0233 1296 74.8618C1344 81.3896 1392 77.0377 1416 74.8618L1440 72.3751V165H1416C1392 165 1344 165 1296 165C1248 165 1200 165 1152 165C1104 165 1056 165 1008 165C960 165 912 165 864 165C816 165 768 165 720 165C672 165 624 165 576 165C528 165 480 165 432 165C384 165 336 165 288 165C240 165 192 165 144 165C96 165 48 165 24 165H0V5.23278Z" fill="url(#paint0_linear_1_871)" fill-opacity="0.69"/>
<defs>
<linearGradient id="paint0_linear_1_871" x1="720" y1="14.6203" x2="720" y2="127.927" gradientUnits="userSpaceOnUse">
<stop stop-color="#420FBA" stop-opacity="0.92"/>
<stop offset="0.463542" stop-color="#420FBA" stop-opacity="0.72"/>
<stop offset="0.9375" stop-color="#420FBA" stop-opacity="0"/>
</linearGradient>
</defs>
</svg>
